<?xml version="1.0" encoding="UTF-8" standalone="no"?>
<!-- Created with Inkscape (http://www.inkscape.org/) -->

<svg
   version="1.1"
   id="svg2"
   width="91.416718"
   height="170.00908"
   viewBox="0 0 91.416717 170.00908"
   xml:space="preserve"
   sodipodi:docname="pengling.svg"
   inkscape:version="1.2.2 (b0a8486541, 2022-12-01)"
   xmlns:inkscape="http://www.inkscape.org/namespaces/inkscape"
   xmlns:sodipodi="http://sodipodi.sourceforge.net/DTD/sodipodi-0.dtd"
   xmlns="http://www.w3.org/2000/svg"
   xmlns:svg="http://www.w3.org/2000/svg"><sodipodi:namedview
     id="namedview12"
     pagecolor="#ffffff"
     bordercolor="#666666"
     borderopacity="1.0"
     inkscape:showpageshadow="2"
     inkscape:pageopacity="0.0"
     inkscape:pagecheckerboard="0"
     inkscape:deskcolor="#d1d1d1"
     showgrid="false"
     inkscape:zoom="3.7425301"
     inkscape:cx="88.710043"
     inkscape:cy="90.446836"
     inkscape:window-width="1914"
     inkscape:window-height="2126"
     inkscape:window-x="3840"
     inkscape:window-y="0"
     inkscape:window-maximized="1"
     inkscape:current-layer="svg2" /><defs
     id="defs6" /><path
     id="path301"
     style="fill:#d1bb78;fill-opacity:1"
     d="m 61.713418,33.310459 c 2.626399,3.935808 2.490494,8.885609 4.282002,13.159999 1.945731,5.017112 4.689879,9.742935 5.873679,15.036111 2.362051,8.948643 2.044131,18.289847 1.766137,27.460554 -0.280535,6.980282 -0.944793,13.935257 -1.869084,20.858967 -0.659585,0.85878 -1.85842,0.40369 -2.762232,0.60799 -8.547607,0.43152 -17.12304,0.88893 -25.675968,0.36942 -5.46943,-0.7262 -10.549336,-3.57436 -14.346665,-7.5264 -3.773658,-4.254925 -5.17222,-10.086765 -5.328288,-15.655718 -0.190809,-5.862052 0.265643,-11.722377 0.126825,-17.585532 -0.007,-0.738962 -0.02505,-1.515239 0.470703,-2.119922 0.3324,-0.724516 -0.02451,-1.53858 0.0888,-2.307025 -0.01426,-0.62459 0.05253,-1.302094 -0.03411,-1.8961 -0.55857,-0.212903 -0.734294,0.626452 -1.037206,0.923551 -0.823666,1.188583 -1.539315,2.448563 -2.314357,3.670199 -0.714754,0.110139 -0.481921,1.034986 -0.665723,1.530458 -0.920436,5.76343 -1.32572,11.594064 -2.210542,17.362906 -1.520045,11.204652 -3.695515,22.370323 -7.287797,33.100783 -0.163319,1.3439 0.542012,2.57929 0.772391,3.87473 2.617436,9.39423 7.225314,18.44751 14.359584,25.21006 1.838818,1.73563 4.049082,3.03202 5.917673,4.71766 0.539972,0.91899 -0.328278,1.90871 -0.180508,2.887 0.902809,1.01213 2.375727,1.09383 3.578125,1.54883 3.72722,0.95121 7.618828,0.62243 11.415951,0.45809 1.838723,-0.17985 3.698282,-0.53593 5.48444,-0.88192 0.165733,-0.37101 -0.60309,-0.6691 -0.123834,-0.97801 0.751499,-0.68073 1.844421,-0.71371 2.72817,-1.15707 3.058174,-1.07621 6.060815,-2.30578 9.131992,-3.34539 0.152909,0.32306 0.529883,0.69227 0.848383,0.316 4.776389,-2.85338 7.923149,-7.75336 9.852985,-12.86085 2.19109,-5.38142 3.421228,-11.09295 4.27455,-16.8237 0.525218,-3.18097 0.544387,-6.41223 0.898923,-9.6106 1.03571,-12.67903 1.251975,-25.45149 0.194982,-38.134944 -0.250067,-2.542706 -0.613972,-5.072881 -1.044432,-7.590987 0.348675,-0.652948 -0.377412,-1.242527 -0.433521,-1.88532 -0.57609,-1.716257 -1.109316,-3.466013 -1.330151,-5.274836 0.292961,0.146023 0.739483,-0.07008 0.491256,-0.430458 C 75.359872,51.772431 71.874053,43.459721 66.70213,36.230231 66.13857,35.430595 65.583365,34.528956 64.83842,33.92374 c -0.276138,0.290089 -0.48582,0.265735 -0.812781,0.02724 -0.766391,-0.323141 -1.585787,-0.495667 -2.376672,-0.749894 l 0.05077,0.08615 z M 21.115761,157.74992 c 0.0687,0.85416 1.104137,0.94317 1.767579,0.83398 2.040597,-0.0301 4.130943,0.18394 6.136718,-0.1875 0.393038,-0.32044 -0.160816,-0.84183 -0.539452,-0.63445 -2.463745,0.0235 -4.926958,-0.0449 -7.390235,-0.0804 z" /><path
     id="path307"
     style="fill:#d5d0a6;fill-opacity:1"
     d="m 42.85209,4.1581154 c -3.635016,0.201713 -6.802059,3.2882787 -7.180334,6.8979926 -0.757345,4.27439 0.96983,8.636889 3.674862,11.902498 0.955167,1.254017 1.8902,2.585435 3.103128,3.588181 0.843484,-0.139628 1.051991,-1.143795 1.622011,-1.654075 2.069664,-2.654008 4.039571,-5.71317 7.21062,-7.13163 2.033751,-0.808914 4.535417,-1.159244 5.846172,-3.114256 1.301496,-1.97725 0.429029,-4.9514131 -1.719497,-5.9384604 C 53.152632,7.3433273 50.58492,6.6203384 48.256846,5.3948788 46.558858,4.6569965 44.725095,4.0851517 42.85209,4.1581154 Z m 10.185547,5.5761719 c 2.114855,-0.057973 3.474059,2.9509587 1.923828,4.4609377 -1.260178,1.478695 -4.084307,0.868384 -4.458731,-1.101459 -0.470696,-1.52533 0.700774,-3.4640833 2.406294,-3.3540194 0.04301,0.00449 0.0857,-0.00561 0.128609,-0.00546 z M 51.104043,32.158115 c -4.603307,-0.08818 -9.630482,0.0828 -13.622972,2.724144 -3.505307,2.272394 -5.346665,6.237406 -6.647098,10.061953 -2.157242,6.16321 -3.157664,12.806608 -6.659618,18.422887 -0.743105,1.816086 -0.132781,3.824494 -0.253519,5.704527 -0.02086,0.462747 -0.09063,1.239054 0.567972,1.23102 0.968727,-0.111149 1.932612,-0.315877 2.898729,-0.483154 6.058951,-1.241855 11.967746,-4.460836 15.408908,-9.725216 3.389921,-5.23889 4.19017,-11.552689 5.6599,-17.489718 0.689599,-2.779781 1.724116,-5.480318 3.098907,-7.99155 0.306138,-0.687154 0.639355,-1.40875 0.763635,-2.142393 -0.232491,-0.436551 -0.811113,-0.339304 -1.214844,-0.3125 z M 23.676308,58.527256 c -2.671021,0.578778 -4.360779,3.090569 -5.254307,5.503423 -1.611395,4.528093 -1.649395,9.395127 -2.262661,14.114515 -1.024748,10.358758 -2.265749,20.740625 -4.909527,30.830276 -1.5450157,6.25336 -3.3449979,12.54585 -6.5728297,18.16524 -0.7598815,1.27818 -1.7900652,2.41179 -3.090519,3.14241 -0.431701,0.46874 0.066868,1.17731 0.6542969,1.05469 0.7963657,0.0626 1.5923428,-0.26662 2.3710937,-0.1836 0.3521281,0.33597 0.2975084,0.95071 0.5170163,1.39205 1.8479919,5.79886 4.6349765,11.2729 8.0521618,16.2989 1.754943,2.59812 3.330727,5.31513 5.020666,7.95749 0.318612,0.44988 0.62925,0.94002 1.001953,1.33203 4.039549,0.0265 8.092045,0.36294 12.123047,0.0137 0.937564,-0.65353 0.751756,-1.94951 1.161885,-2.89697 0.219192,-0.91495 -0.320661,-1.85758 -1.149823,-2.24671 -2.862436,-2.14141 -5.809322,-4.25571 -8.043312,-7.08679 -6.089367,-7.11711 -9.999243,-15.94106 -12.022083,-25.03749 0.03796,-1.12692 0.651956,-2.13362 0.879704,-3.22734 3.357246,-10.60451 5.28527,-21.59603 6.699789,-32.610547 0.684074,-5.087256 1.20995,-10.197177 1.922937,-15.279045 0.304651,-1.981194 0.632453,-4.005252 1.648736,-5.766076 0.745551,-1.599344 1.789347,-3.211574 1.775963,-5.026902 -0.05584,-0.235333 -0.269759,-0.454377 -0.524187,-0.443224 z m 53.333985,1.65625 c -0.803023,0.380108 -0.252851,1.399998 -0.150117,2.019488 0.633994,3.234607 1.992118,6.257617 3.508828,9.162194 2.883794,5.962713 5.196034,12.22811 6.367554,18.764074 2.065661,10.350148 2.357866,21.160008 -0.0058,31.485538 -0.665213,2.75855 -1.604556,5.5129 -3.251724,7.84801 -0.283609,0.43483 0.05342,1.11399 0.609375,0.95507 0.9888,-0.18854 1.636586,-1.0932 2.328125,-1.75195 2.161149,-2.54671 2.974852,-5.88648 3.818658,-9.04252 1.325909,-6.01485 1.261089,-12.22105 1.092279,-18.34572 C 90.867697,91.346406 88.502001,81.49141 84.283821,72.481706 82.357653,68.278675 80.176407,64.165749 77.5459,60.36599 77.405703,60.236707 77.201889,60.147736 77.010293,60.183506 Z" /><path
     id="path305"
     style="fill:#dcd6bb;fill-opacity:1"
     d="m 56.03959,29.152256 c -2.269595,0.191801 -4.052207,1.892868 -5.267579,3.697265 0.286284,-0.08374 0.872342,-0.445842 1.033204,-0.02539 -1.483338,3.305834 -3.320394,6.519291 -3.932502,10.136725 -1.450644,5.871351 -2.308469,12.098918 -5.725598,17.237751 -3.557721,5.113856 -9.488639,8.150855 -15.506072,9.26877 -0.722274,0.140151 -1.452445,0.235843 -2.181532,0.333316 -0.02845,-0.802064 -0.05348,-1.604272 -0.08398,-2.40625 -1.18223,0.435867 -1.175602,1.894721 -1.096576,2.937852 0.134121,6.740673 -0.532602,13.502112 0.07575,20.227488 0.568585,5.268355 2.455392,10.671757 6.48937,14.284717 3.167868,2.89232 7.056144,5.03326 11.226975,6.06463 4.108889,0.88902 8.343134,0.57874 12.516377,0.60265 5.905046,-0.10027 11.821019,-0.26643 17.70314,-0.77677 0.711041,-0.0709 1.092889,-0.7668 1.03874,-1.42977 1.697118,-13.001587 2.55375,-26.172821 1.57918,-39.269428 -0.705607,-7.34158 -3.028844,-14.458 -6.335125,-21.025367 C 66.055348,45.718479 65.033638,42.217183 64.448932,38.638153 63.604105,35.142087 61.88749,31.517002 58.619575,29.7044 57.824702,29.309288 56.930507,29.106007 56.03959,29.152256 Z m 7.521484,122.998054 c -3.915466,1.52403 -7.911972,2.87575 -11.791081,4.47777 -0.391571,0.21686 -0.649304,1.0791 -0.064,1.16871 3.697076,0.0222 7.482891,-0.0444 11.124609,0.0332 0.10084,0.49224 0.819775,0.20638 0.82264,-0.20438 0.702843,-1.42676 0.638635,-3.07116 0.876787,-4.61038 0.04417,-0.35542 -0.0147,-0.9959 -0.516007,-0.84611 -0.151152,-0.0108 -0.301057,-0.0302 -0.452951,-0.0188 z" /><path
     id="path299"
     style="fill:#f06239"
     d="m 73.348183,9.5194435 c -2.224507,0.1782581 -3.454886,2.3003055 -5.169542,3.4386565 -1.751743,1.393483 -3.839078,2.256542 -5.883192,3.098453 -0.268608,0.331019 0.259754,0.502177 0.504895,0.342771 2.111157,-0.30484 4.377359,-0.475316 6.345705,0.520971 1.875367,0.741617 4.095419,0.913929 5.895303,-0.127011 3.637802,-1.489899 7.183356,-3.350257 10.9748,-4.350013 0.02954,-0.500539 -0.728344,-0.38653 -1.065539,-0.402996 -1.356146,0.01954 -2.703207,0.173517 -4.045789,0.356121 1.513911,-0.250825 3.062899,-0.378407 4.5625,-0.654297 0.297874,-0.302493 -0.365352,-0.481953 -0.5625,-0.585937 C 82.439735,10.220701 79.769566,10.03853 77.180149,9.6891204 75.906418,9.5706894 74.626124,9.5119885 73.348183,9.5194435 Z m 6.058594,3.1132815 c -2.467008,0.444984 -4.920573,0.961527 -7.375,1.470703 2.861962,-0.711507 5.764594,-1.248929 8.681641,-1.677735 -0.435547,0.06901 -0.871094,0.138021 -1.306641,0.207032 z M 50.869668,157.33976 c 0.08989,1.50655 0.07126,3.23525 -1.126493,4.34054 -0.95111,1.37421 -1.356059,3.17015 -0.965304,4.80399 0.749603,0.6901 1.803694,0.0732 2.668508,0.28717 3.4802,0.14693 6.865969,1.19974 10.034617,2.5976 0.723866,0.30074 1.729668,0.0422 1.898437,-0.81446 0.143899,-0.62015 0.589727,-1.20039 1.289063,-1.15039 2.572141,-0.29424 4.988574,1.07013 7.508138,1.38459 0.779259,0.22955 1.558326,-0.5625 1.364909,-1.33185 0.615713,-0.50738 1.416165,-0.0281 2.140876,-0.16123 1.676184,0.0674 3.37597,0.68891 5.050429,0.4317 0.750322,-0.46833 0.341472,-1.52029 -0.153841,-2.02604 -1.770877,-2.81879 -5.117086,-4.07334 -8.268286,-4.56124 -2.748701,-0.59196 -5.508609,-1.13306 -8.28285,-1.5914 -0.709647,-0.50093 -0.707811,-1.47823 -0.636719,-2.25976 -4.173828,0 -8.347656,0 -12.521484,0 z m -20.572266,0.16601 c -3.453291,0.11082 -6.910791,0.0752 -10.363281,0.0137 -0.799801,0.28503 -0.448891,1.29752 -0.474631,1.926 0.101562,0.86346 -0.143736,1.80031 -0.818002,2.39426 -0.909654,1.36391 -1.547483,3.0224 -1.400727,4.67778 0.3496,0.94413 1.544972,0.77897 2.342518,0.75056 2.174022,-0.11965 4.315273,0.28561 6.350975,1.02371 1.283959,0.39855 2.556489,0.95242 3.88973,1.11684 0.559968,-0.0698 1.062911,-0.60844 0.998809,-1.18798 0.685887,-0.32146 1.441619,0.0382 2.175863,-0.0311 2.414877,0.20073 4.662081,1.25118 6.990188,1.81954 0.838784,-0.11632 0.926015,-1.18928 0.793719,-1.82396 -0.04335,-0.41324 0.328924,-0.5422 0.663769,-0.42446 1.885483,0.0776 3.790653,0.45268 5.667476,0.14161 0.758857,-0.48459 0.261945,-1.54268 -0.279297,-1.99219 -1.624945,-2.11289 -4.083649,-3.41491 -6.627792,-4.04513 -2.706742,-0.89066 -5.542889,-1.35323 -8.28627,-2.09159 -0.613577,-0.36004 -0.534299,-1.1427 -0.528384,-1.73136 -0.146783,-0.43786 -0.684468,-0.56789 -1.094663,-0.53622 z" /><path
     id="path1725"
     style="fill:#165e77;fill-opacity:1"
     d="M 53.543496,0.01553733 C 46.231336,-0.09859708 38.727092,2.960209 34.188027,8.8045998 29.532335,14.59537 27.344428,21.89728 25.93998,29.085849 c -0.331313,1.509906 -0.520985,3.078779 -1.009765,4.53711 -0.686406,0.876707 -1.747973,1.341282 -2.428299,2.235833 -4.018041,4.066876 -6.741131,9.163186 -9.451382,14.138987 C 8.2301321,59.326906 4.690741,69.315083 2.4779956,79.578456 -0.18190903,93.330585 0.48896983,107.40294 0.09584741,121.33026 c -0.0121539,2.57638 -0.24414242,5.17573 0.06092941,7.73801 0.26136294,1.01831 1.58050238,1.92963 2.51964498,1.14475 1.7960672,-1.36544 2.8286543,-3.4593 3.8438124,-5.42093 2.3938756,-5.0714 3.8981828,-10.50566 5.2932918,-15.92174 2.620703,-10.435731 3.961705,-21.136723 4.952635,-31.834757 0.415808,-3.938449 0.748561,-7.93066 1.740226,-11.76615 0.759222,-2.551013 2.251028,-5.152732 4.804687,-6.199218 0.663107,-0.100674 0.342235,0.74499 0.240652,1.098184 -0.859569,2.893448 -3.030586,5.411956 -3.03948,8.534628 0.240773,0.555843 0.986178,0.09052 1.009058,-0.37251 1.954428,-3.293143 4.464226,-6.308005 5.682493,-9.991765 2.472578,-6.373513 3.269494,-13.398367 6.88744,-19.305565 1.984065,-3.124562 5.363155,-5.207121 8.972726,-5.857126 4.020183,-0.802887 8.153608,-0.48535 12.226345,-0.35331 3.304674,0.18126 6.650807,0.691552 9.700453,2.040432 0.240586,-0.895932 0.100438,-1.844521 0.268001,-2.751061 0.21523,-2.219932 0.993421,-4.36154 2.288529,-6.179366 2.129065,-3.666624 4.927958,-7.142068 8.805246,-9.055413 3.157119,-1.809398 6.641722,-2.963245 10.116287,-3.977295 0.726221,-0.271797 1.531847,-0.520379 2.135219,-0.978271 -0.05061,-0.811715 -1.057692,-0.92429 -1.564905,-1.376898 C 83.644508,8.4797203 79.572671,8.2846295 75.733156,7.7933571 73.644397,7.5057938 71.619882,6.7381379 69.96856,5.4072759 66.538898,2.9055429 62.606951,1.0368039 58.396114,0.34453538 56.795241,0.06691551 55.167727,-0.04377739 53.543496,0.01553733 Z M 43.410683,4.6522561 c 3.795902,0.1741247 6.985123,2.5446939 10.489243,3.7710411 1.717259,0.6891658 3.546922,2.2055168 3.353814,4.2592448 -0.125087,1.814261 -1.692491,3.274662 -3.430489,3.636396 -2.222181,0.781372 -4.651254,1.50319 -6.17378,3.431855 -1.90033,1.918489 -3.389151,4.18683 -5.123553,6.247166 -1.271439,-1.238841 -2.290359,-2.709518 -3.38499,-4.100328 -2.280492,-3.138844 -3.772307,-7.153506 -2.943369,-11.040062 0.525293,-2.7087911 2.437565,-5.230699 5.191297,-5.92234 0.651558,-0.1875365 1.33624,-0.281151 2.021827,-0.2829729 z m 30.240235,5.3476562 c 3.562338,0.1136557 7.134077,0.4560067 10.574219,1.4394527 -5.616312,0.750862 -11.280368,1.59751 -16.650391,3.447266 -0.266549,0.01147 -0.803964,0.349904 -0.351563,0.552734 0.774101,0.202819 1.529105,-0.256443 2.302616,-0.302052 4.775034,-0.938442 9.52337,-2.192099 14.382931,-2.557323 -3.821609,1.161957 -7.253412,3.343649 -11.094515,4.426432 -2.555053,0.321863 -4.822435,-1.549305 -7.400365,-1.369596 -0.365499,-0.03682 -1.269821,0.150347 -0.532325,-0.122662 2.555409,-1.12841 4.690524,-2.977708 6.732283,-4.842377 0.603031,-0.40424 1.323579,-0.642447 2.03711,-0.6718747 z m 4.896484,57.2871087 c -0.346787,0.898691 0.186979,1.843109 0.208361,2.762955 1.340414,8.787462 1.405361,17.707466 1.324442,26.579482 -0.107483,7.541572 -0.644257,15.070392 -1.273757,22.582152 0.07408,1.5768 0.632337,3.08438 0.840208,4.64646 0.409168,1.9382 0.731652,3.96361 1.672231,5.72192 0.702892,0.88114 2.301116,0.90212 2.828571,-0.18323 1.524918,-2.15978 2.238503,-4.77008 2.968966,-7.28101 1.875626,-7.42441 2.058409,-15.17548 1.458322,-22.777947 -0.787822,-9.091313 -3.021269,-18.093266 -6.890757,-26.372857 -0.880251,-1.874913 -1.728336,-3.787589 -2.799185,-5.556989 -0.06539,-0.08869 -0.248288,-0.21666 -0.337402,-0.120936 z M 12.197793,146.60148 c -0.302356,3.60481 -0.421819,7.22735 -0.921875,10.80859 0.273149,0.59146 0.949543,0.0168 1.205078,-0.29687 0.948406,-0.86094 1.777763,-1.83797 2.646484,-2.77735 0.01211,0.63155 -0.127918,1.52806 0.464844,1.92774 0.98319,-0.26545 1.504266,-1.51454 1.243153,-2.43888 -0.48426,-1.25669 -1.393881,-2.28073 -2.0511,-3.44811 -0.850324,-1.31178 -1.712934,-2.61549 -2.574866,-3.91965 l -0.0081,0.0997 z" /><path
     id="path312"
     d="m 52.9587,8.6522561 c -2.625114,0.1641446 -4.438768,3.4898849 -3.007111,5.7451909 1.124988,2.11521 4.364046,2.674482 6.046174,0.909106 1.6276,-1.529829 1.572803,-4.501804 -0.291016,-5.8242188 C 54.932008,8.8836894 53.939219,8.5629186 52.9587,8.6522561 Z" /><path
     id="path522"
     d="m 55.18307,10.483061 c -1.04687,0.06546 -1.770137,1.391731 -1.199206,2.291125 0.448634,0.843525 1.740338,1.066557 2.411154,0.362543 0.649071,-0.610081 0.627219,-1.795275 -0.116054,-2.322641 -0.308958,-0.238734 -0.704873,-0.366654 -1.095894,-0.331027 z"
     style="fill:#ffffff;stroke-width:0.999998" /></svg>
