<?xml version="1.0" encoding="UTF-8" standalone="no"?>
<!-- Created with Inkscape (http://www.inkscape.org/) -->

<svg
   version="1.1"
   id="svg2"
   width="90.948532"
   height="169.47754"
   viewBox="0 0 90.948532 169.47754"
   xml:space="preserve"
   sodipodi:docname="pengling.svg"
   inkscape:version="1.2.2 (b0a8486541, 2022-12-01)"
   xmlns:inkscape="http://www.inkscape.org/namespaces/inkscape"
   xmlns:sodipodi="http://sodipodi.sourceforge.net/DTD/sodipodi-0.dtd"
   xmlns="http://www.w3.org/2000/svg"
   xmlns:svg="http://www.w3.org/2000/svg"><sodipodi:namedview
     id="namedview12"
     pagecolor="#ffffff"
     bordercolor="#666666"
     borderopacity="1.0"
     inkscape:showpageshadow="2"
     inkscape:pageopacity="0.0"
     inkscape:pagecheckerboard="0"
     inkscape:deskcolor="#d1d1d1"
     showgrid="false"
     inkscape:zoom="7.4850601"
     inkscape:cx="59.852559"
     inkscape:cy="62.05695"
     inkscape:window-width="1914"
     inkscape:window-height="2126"
     inkscape:window-x="3840"
     inkscape:window-y="0"
     inkscape:window-maximized="1"
     inkscape:current-layer="svg2" /><defs
     id="defs6" /><path
     id="path301"
     d="m 56.86205,31.9591 c -0.340315,0.01 -0.755599,0.2559 -0.705957,0.6407 0.08149,0.3829 0.538968,0.4979 0.877387,0.453 0.32865,0.036 0.76891,-0.052 0.870664,-0.4176 0.07507,-0.4179 -0.387885,-0.7125 -0.763001,-0.6744 -0.09303,0 -0.186108,0 -0.279093,0 z m 3.601161,0.5843 c -0.530573,0.01 -1.071426,0.4938 -0.980725,1.0499 0.09981,0.3373 0.512194,0.3046 0.761803,0.4561 0.827304,0.6099 1.254306,1.5804 1.683065,2.4812 1.174189,2.6928 1.595697,5.6352 2.502454,8.4192 0.539364,1.7474 1.296036,3.4152 2.066611,5.0702 1.259146,2.7372 2.546663,5.4672 3.470502,8.3389 1.179626,3.5863 1.91471,7.3105 2.36966,11.0552 0.40546,3.5472 0.4541,7.1229 0.46328,10.6894 -0.0133,5.1725 -0.21317,10.3447 -0.58358,15.5039 -0.31224,4.3141 -0.78129,8.6154 -1.358237,12.9018 -0.02999,0.2356 -0.05998,0.4711 -0.09001,0.7068 -2.461502,0.263 -4.938722,0.3108 -7.409119,0.4425 -5.176954,0.2221 -10.35825,0.3968 -15.540626,0.3621 -3.120028,-0.053 -6.29829,-0.281 -9.234584,-1.3984 -2.174737,-0.8374 -4.20501,-2.0246 -6.110659,-3.3656 -2.288583,-1.6547 -4.279095,-3.7754 -5.567005,-6.3038 -1.140899,-2.1945 -1.869577,-4.5848 -2.288719,-7.0164 -0.386866,-2.4861 -0.427792,-5.0178 -0.472588,-7.5323 -0.04531,-5.0059 0.321144,-10.0021 0.624207,-14.9955 -0.409215,-0.3489 -0.582109,-5.1997 -0.830545,-5.7118 0.03086,-0.3972 -0.266442,-0.811 -0.677859,-0.8383 -0.373177,-0.1458 -0.871709,-0.2808 -1.195697,0.04 -0.09033,0.046 -0.07735,0.246 -0.204548,0.1596 -0.37494,-0.066 -0.676924,0.231 -0.877015,0.5088 -0.565392,0.6464 -1.295482,6.1509 -1.410398,6.9952 -0.32105,1.9556 -0.494524,3.9319 -0.731126,5.899 -1.200629,10.5731 -2.621244,21.1491 -5.139681,31.5 -0.994556,4.1365 -2.247297,8.2083 -3.51826,12.27 -0.128922,0.4246 0.08569,0.8248 0.156226,1.2316 0.698471,2.9254 1.60559,5.8023 2.712797,8.5989 2.248672,5.8229 5.265509,11.4112 9.40827,16.1121 2.20206,2.5005 4.730627,4.7019 7.446469,6.6286 0.555454,0.4168 1.147279,0.8209 1.576586,1.3708 0.104366,0.3822 -0.153128,0.7392 -0.177092,1.1171 -0.119022,0.5643 0.01701,1.2474 0.539731,1.5681 0.620006,0.4383 1.38314,0.571 2.081472,0.8329 1.778566,0.5818 3.638192,0.9621 5.516367,0.9441 2.455142,0.059 4.913532,0 7.363804,-0.1592 0.823495,-0.06 1.634314,-0.225 2.429478,-0.4419 1.07225,-0.2159 2.272157,-0.1017 3.250678,-0.6967 0.838782,-0.4771 1.787908,-0.7016 2.698325,-0.9998 1.059246,-0.3303 2.087545,-0.7506 3.12868,-1.1337 2.12896,-0.8191 4.241975,-1.7054 6.226748,-2.8365 3.17961,-1.9195 5.649204,-4.8419 7.44876,-8.0611 1.99926,-3.5618 3.25372,-7.4784 4.39879,-11.3834 0.56326,-1.9327 0.9757,-3.9063 1.30088,-5.8928 1.22653,-6.9094 2.08674,-13.8824 2.62362,-20.879 0.7932,-10.6613 0.74915,-21.4088 -0.54786,-32.0293 -1.0302,-8.2565 -2.86499,-16.4522 -5.96383,-24.1885 -1.83468,-4.5622 -4.153187,-8.9356 -6.971192,-12.9676 -0.724565,-1.0841 -1.376635,-2.2453 -2.338702,-3.145 -0.138429,-0.087 -0.315562,-0.125 -0.473779,-0.074 C 63.80271,33.58 63.541907,33.399 63.253917,33.4533 62.733044,32.97 61.969732,33.0564 61.335689,32.8808 61.038056,32.7868 60.784256,32.5618 60.46321,32.5432 Z m -3.009627,124.245 c -0.5533,0.029 -1.136147,-0.036 -1.659607,0.178 -0.355597,0.2657 -0.02522,0.9145 0.396382,0.8055 1.661245,0.055 3.32661,0.078 4.986008,-0.029 0.351221,-0.089 0.385458,-0.6283 0.06794,-0.7852 -0.341147,-0.2261 -0.7718,-0.096 -1.15299,-0.1508 -0.878896,-0.03 -1.758484,-0.032 -2.63773,-0.019 z m -33.847251,0.2842 c -0.726037,0.017 -1.459912,-0.01 -2.177613,0.1133 -0.425315,0.1789 -0.213092,0.9217 0.237718,0.8674 2.231332,0.044 4.465173,0.071 6.695371,-0.021 0.271347,-0.033 0.561426,-0.34 0.391955,-0.6115 -0.246733,-0.365 -0.742111,-0.3003 -1.124114,-0.3213 -1.340804,-0.036 -2.68216,-0.043 -4.023317,-0.027 z"
     style="fill:#d1bb78;fill-opacity:1" /><path
     id="path307"
     style="fill:#d5d0a6;fill-opacity:1"
     d="m 42.758155,4.0676 c -1.592204,0.034 -3.248205,0.4851 -4.434711,1.5938 -1.850658,1.6367 -2.854926,4.0798 -3.00383,6.5182 -0.167459,2.6435 0.644934,5.2645 1.922883,7.5551 1.255555,2.2819 2.907075,4.3249 4.732289,6.1735 0.148208,0.1716 0.430515,0.2476 0.601486,0.062 0.273727,-0.2718 0.494835,-0.5921 0.749825,-0.8816 1.717453,-2.1137 3.214999,-4.4476 5.335371,-6.1896 1.339331,-1.1311 2.997061,-1.7624 4.659006,-2.2504 1.168961,-0.3739 2.309857,-0.9681 3.119677,-1.9063 0.495979,-0.4872 0.879822,-1.1426 0.862371,-1.8567 C 57.421056,11.5178 57.02822,10.0374 55.991357,9.0894 55.066414,8.2309 53.839593,7.8404 52.726803,7.2949 50.559392,6.3132 48.379769,5.3499 46.149048,4.521 45.056607,4.1737 43.903062,4.0332 42.758155,4.0675 Z m 10.04499,5.1468 c 1.488726,0 2.798063,1.3317 2.851144,2.7919 0.07543,1.1831 -0.680897,2.3769 -1.786695,2.8176 -0.862209,0.3702 -1.897193,0.2433 -2.663296,-0.2915 -0.599219,-0.3697 -1.102602,-0.9849 -1.183467,-1.7165 -0.0962,-0.6556 -0.100262,-1.3518 0.132581,-1.9801 0.349808,-0.8627 1.192227,-1.4707 2.116804,-1.5794 0.176129,-0.029 0.354675,-0.038 0.532929,-0.042 z m -3.482299,22.8724 c -2.222029,0.068 -4.46215,0.063 -6.657194,0.4504 -2.768945,0.5489 -5.425367,1.85 -7.395721,3.8927 -1.911816,1.9642 -3.170704,4.4595 -4.140732,6.9974 -1.33876,3.5307 -2.205719,7.2159 -3.254759,10.8354 -0.792309,2.7235 -1.777943,5.4093 -3.222909,7.859 -0.30159,0.4923 -0.60921,0.9976 -0.711134,1.5751 -0.175109,0.7977 -0.07041,1.6197 -0.07729,2.4285 0.03263,1.2303 0.09286,2.4598 0.120596,3.6902 2.143494,-0.2635 4.291873,-0.6131 6.330743,-1.3476 3.204201,-1.0792 6.256681,-2.7056 8.792101,-4.9544 2.237756,-2.0143 3.991335,-4.5528 5.116955,-7.3437 1.628752,-3.8469 2.407255,-7.9752 3.32049,-12.0338 0.494411,-2.1414 1.015878,-4.2827 1.814784,-6.3334 2.740878,-5.5778 3.293312,-6.4583 1.448896,-5.7182 -0.494944,0 -0.989889,0 -1.484829,0 z M 23.214927,58.4084 c -0.79657,0.018 -1.404906,0.6047 -1.98443,1.079 -1.571626,1.3544 -2.629871,3.2202 -3.237081,5.1866 -0.727339,2.2719 -0.982583,4.6551 -1.290053,7.0108 -0.599728,5.0731 -1.012861,10.1662 -1.612815,15.2394 -0.481164,4.2211 -1.093117,8.4284 -1.922898,12.5972 -1.28258,6.6922 -2.876573,13.3414 -5.122301,19.7805 -0.884798,2.492 -1.880484,4.9621 -3.231915,7.2428 -0.606384,0.9721 -1.286122,1.9159 -2.109188,2.7085 -0.428959,0.3656 -0.968267,0.6271 -1.285346,1.1075 -0.09549,0.3107 0.283838,0.5364 0.554494,0.4644 0.901011,-0.045 1.797147,-0.1525 2.695064,-0.2355 0.592182,2.6249 1.685537,5.0985 2.736024,7.5653 0.987055,2.2628 2.086447,4.4766 3.366825,6.5882 2.587284,4.3815 5.428815,8.6058 8.201174,12.8718 3.691708,0.061 7.383791,0.2502 11.076349,0.149 0.368096,-0.03 0.763073,-0.015 1.100795,-0.1784 0.305554,-0.2528 0.29546,-0.6873 0.433369,-1.0304 0.193658,-0.7373 0.433334,-1.4758 0.483858,-2.239 -0.06164,-0.6488 -0.636442,-1.0612 -1.112384,-1.4263 -1.443331,-1.111 -3.004578,-2.0722 -4.363533,-3.2927 -3.398086,-2.941 -6.15441,-6.5389 -8.484745,-10.3633 -3.093888,-5.1267 -5.381866,-10.7251 -6.852641,-16.5237 -0.19034,-0.752 -0.397944,-1.5 -0.5474,-2.2591 0.02939,-0.3163 0.194521,-0.6001 0.263136,-0.9026 1.260371,-3.8887 2.436394,-7.809 3.36177,-11.7922 2.204312,-9.2683 3.574729,-18.7104 4.715215,-28.1616 0.34698,-2.8925 0.635086,-5.7921 0.998983,-8.6823 0.407338,-2.8058 1.124524,-5.6081 2.492956,-8.1055 0.553091,-1.1377 1.179397,-2.2859 1.327405,-3.5615 0.04441,-0.2946 -0.02831,-0.6749 -0.348703,-0.7803 -0.0957,-0.039 -0.199531,-0.052 -0.301984,-0.057 z m 53.628754,1.7475 c -0.29067,0.055 -0.31325,0.4268 -0.21727,0.6506 0.52276,2.4215 1.12341,4.8442 2.15485,7.1058 1.1973,2.7602 2.6381,5.4117 3.74902,8.211 2.5845,6.2162 4.33934,12.7791 5.09205,19.4706 0.65993,5.646 0.73507,11.3553 0.3208,17.0226 -0.31278,3.9715 -0.90241,7.9362 -2.11082,11.7414 -0.51304,1.564 -1.21038,3.0742 -2.1079,4.4589 -0.15017,0.2814 -0.39269,0.5798 -0.33607,0.9156 0.12753,0.2968 0.5463,0.2549 0.75325,0.071 1.44387,-0.8308 2.5429,-2.1653 3.26383,-3.6516 0.90626,-1.8179 1.55442,-3.7551 2.08149,-5.7141 0.58378,-2.2325 1.00089,-4.5148 1.15053,-6.8203 0.16486,-2.3735 0.26933,-4.7518 0.30422,-7.1308 0.0719,-6.0756 -0.41492,-12.1738 -1.71024,-18.1164 -1.35196,-6.3121 -3.56957,-12.4236 -6.41639,-18.2126 -1.49374,-3.0396 -3.12751,-6.0143 -4.92847,-8.8833 -0.25141,-0.3815 -0.49102,-0.7964 -0.85381,-1.0802 -0.0586,-0.028 -0.12408,-0.047 -0.18907,-0.037 z" /><path
     id="path305"
     style="fill:#dcd6bb;fill-opacity:1"
     d="m 55.812945,29.1408 c -2.609634,0.2221 -4.4757,2.421 -5.611051,4.5979 -2.148286,4.0544 -3.198296,8.5546 -4.150729,13.0106 -1.120694,5.0178 -2.373397,10.2909 -5.792587,14.298 -3.570554,4.1474 -8.760435,6.5741 -14.062821,7.5681 -0.445561,0.088 -0.982543,0.1562 -1.178833,-0.3561 -0.265767,-0.461 -0.953256,-1.1274 -1.38562,-0.4916 -0.566307,0.7762 -0.240047,1.8107 -0.347347,2.6992 0.04141,3.3318 0.0229,6.6639 -0.134254,9.992 -0.06671,4.3562 -0.204623,8.7801 0.724924,13.0613 0.935279,3.9044 2.556316,7.8118 5.574316,10.573 3.098109,2.9529 6.96601,5.0843 11.0737,6.258 3.586098,0.852 7.308206,0.6297 10.964886,0.6822 6.267999,-0.049 12.535322,-0.3065 18.79044,-0.6934 0.588803,-0.074 1.443392,-0.066 1.512862,-0.8301 0.4826,-3.6562 0.93096,-7.3338 1.24486,-11.0157 0.74941,-8.6779 1.02856,-17.4083 0.6175,-26.1114 -0.43136,-6.8169 -1.96601,-13.5868 -4.826574,-19.8026 -1.730107,-3.8255 -3.706971,-7.6245 -4.36314,-11.8051 -0.592084,-3.5067 -1.700201,-7.1369 -4.26696,-9.7206 -1.159206,-1.1499 -2.699442,-2.0386 -4.383572,-1.9137 z m 7.570312,122.9863 c -3.46418,1.285 -6.892648,2.69 -10.406323,3.8432 -0.584094,0.2585 -1.496523,0.4331 -1.636645,1.1529 0.03547,0.8039 1.047909,0.8264 1.640061,0.7657 3.22411,0.082 6.473965,0.1907 9.682204,-0.1388 0.986463,-0.3767 0.849183,-1.6248 1.065278,-2.4417 0.196726,-1.0414 0.352926,-2.0966 0.313628,-3.1598 -0.226654,0.067 -0.43621,-0.038 -0.658203,-0.021 z" /><path
     id="path299"
     style="fill:#f06239"
     d="m 73.408651,9.3029 c -1.13432,-0.03 -2.17443,0.5005 -2.957034,1.2968 -1.910269,1.8044 -3.992638,3.5022 -6.484903,4.4291 -0.7392,0.3577 -1.580968,0.5327 -2.222129,1.0651 1.627405,0.109 3.244964,-0.5359 4.883423,-0.1859 2.145471,0.4048 4.220926,1.8072 6.471313,1.1808 2.64311,-0.7292 5.01763,-2.1684 7.55783,-3.176 1.16537,-0.5678 2.43871,-0.8525 3.61868,-1.3717 2.20296,-0.4481 0.93768,-0.8829 -0.21407,-0.7169 -1.66626,-0.093 -3.31229,0.3732 -4.9548,0.607 -3.37362,0.5965 -6.72121,1.3298 -10.07136,2.0455 4.44619,-1.1429 8.95061,-2.1408 13.52604,-2.6286 0.62472,-0.1516 2.34497,0.016 2.73152,-0.5782 -0.10034,-0.6293 -1.80571,-0.7312 -2.29366,-0.9148 -3.07005,-0.6146 -6.20375,-0.98 -9.33531,-1.0621 -0.0852,0 -0.17036,0.01 -0.25554,0.01 z M 50.89107,157.4767 c 0.01071,1.2042 0.138878,2.57 -0.761719,3.5215 -1.052564,1.2792 -1.707081,2.9458 -1.401789,4.6155 -0.21013,0.9261 0.636246,0.6371 1.249925,0.6193 2.741462,-0.1279 5.423163,0.5666 8.039755,1.3078 1.234283,0.3058 2.331931,0.9662 3.515825,1.3935 0.631384,0.2496 1.409522,-0.1615 1.41269,-0.8775 0.153548,-1.1554 1.564984,-1.3179 2.499964,-1.2056 2.172141,0.12 4.197961,0.9769 6.29691,1.4458 0.59999,0.1699 1.36933,-0.1501 1.33594,-0.8594 -0.18701,-0.6084 0.34949,-0.7781 0.84487,-0.6928 1.9809,-0.1047 3.91627,0.4161 5.87231,0.5905 0.51138,0.1 1.11844,-0.3318 0.84226,-0.8836 -1.23698,-2.7775 -4.16342,-4.4119 -7.04135,-4.997 -3.286129,-0.7197 -6.583385,-1.4291 -9.906763,-1.937 -0.760751,-0.4649 -0.869068,-1.4298 -0.794922,-2.2402 H 50.89107 v 0.1 z m -31.417969,0.2832 c -0.08114,1.0814 0.188754,2.2562 -0.234375,3.2773 -0.908143,0.6256 -1.246488,1.788 -1.655709,2.7618 -0.278202,0.8427 -0.606041,1.8586 -0.19976,2.6992 0.68397,0.4987 1.630346,0.189 2.420086,0.2511 3.069999,-0.1479 5.976956,1.005 8.8139,2.0141 0.600909,0.2383 1.634273,0.2351 1.709328,-0.6039 -0.119557,-0.5228 0.283413,-0.6725 0.743401,-0.5758 2.379576,0.021 4.685562,0.5036 6.885293,1.4009 0.667251,0.1735 1.380842,0.6552 2.080336,0.4374 0.468359,-0.4626 0.172492,-1.2523 0.328595,-1.8431 -0.03069,-0.7164 0.820528,-0.214 1.22385,-0.3054 1.676052,0.059 3.365608,0.3592 5.038141,0.1969 0.690058,-0.1632 0.380198,-1.0469 0.01362,-1.3946 -1.25813,-1.5396 -2.803601,-2.9705 -4.749527,-3.5532 -2.966881,-1.0857 -6.029058,-1.9011 -9.143268,-2.4232 -0.822639,-0.1451 -1.979912,-0.5591 -1.836407,-1.6036 0.162993,-0.7744 -0.102828,-1.1201 -0.899219,-0.9351 H 19.473105 v 0.1 z" /><path
     style="fill:#165e77;fill-opacity:1"
     d="m 11.350002,156.7988 c 0.08344,-0.2175 0.302354,-2.5257 0.486451,-5.1294 l 0.334736,-4.7341 2.081047,3.1573 c 1.144574,1.7366 2.143177,3.395 2.219091,3.6853 0.143394,0.5483 -0.638959,2.001 -1.077603,2.001 -0.137789,0 -0.2505,-0.5279 -0.2505,-1.1732 v -1.1731 l -1.723384,1.8808 c -1.648517,1.799 -2.396082,2.3355 -2.069838,1.4854 z M 0.539212,129.4259 C 0.068781,128.9065 0,128.374 0,125.2509 0.697692,107.0092 -0.68654,88.742 4.119664,72.6018 7.602719,60.4489 12.224459,50.061 18.116023,41.1433 c 2.127665,-3.2205 4.957297,-6.3757 6.478554,-7.224 0.393072,-0.2192 0.646262,-1.038 1.045363,-3.3807 2.680125,-15.7321 8.509105,-25.1552 17.749356,-28.6937 3.740215,-1.4323 6.289754,-1.8843 10.390392,-1.8423 2.94433,0.03 4.229681,0.1816 6.432001,0.7575 2.997917,0.7839 6.445205,2.44 9.011334,4.329 2.481808,1.8271 3.753988,2.3693 6.294248,2.683 7.1033,0.8769 7.91733,1.0576 10.36263,2.3001 1.30892,0.6651 2.34372,1.3366 2.29955,1.4923 -0.0442,0.1556 -1.43353,0.6813 -3.08749,1.168 -3.80296,1.1192 -4.7997,1.4931 -7.37857,2.7676 -4.98652,2.4644 -6.760318,4.0638 -10.004569,9.0211 -2.076725,3.1733 -2.786845,4.9967 -2.957952,7.5951 l -0.141812,2.1535 -1.321822,-0.5022 c -2.686634,-1.0209 -5.734248,-1.4509 -11.347379,-1.601 -6.611155,-0.1767 -9.75548,0.2433 -12.878803,1.7205 -4.708127,2.2267 -7.097643,6.1181 -9.784844,15.9346 -2.239215,8.1802 -3.457693,11.175 -5.912367,14.5318 -0.626137,0.8562 -1.466742,2.1744 -1.868023,2.9294 -0.401309,0.755 -0.8001,1.3022 -0.886204,1.216 -0.393441,-0.3934 0.342293,-2.9562 1.456439,-5.0733 1.345057,-2.5559 1.972242,-4.4429 1.600341,-4.8147 -0.396582,-0.3967 -2.101596,0.493 -3.079367,1.6066 -2.545138,2.8987 -3.248378,5.6033 -4.31381,16.5902 -0.999707,10.3088 -1.692927,15.7766 -2.695833,21.2635 -2.501292,13.6842 -6.068329,24.9858 -9.327773,29.5535 -1.781211,2.4961 -2.684031,2.9344 -3.710401,1.8012 z M 43.981881,24.0146 c 2.174722,-3.0059 4.429899,-5.4175 5.791892,-6.1937 0.646465,-0.3684 2.09037,-0.9407 3.208677,-1.2718 2.4124,-0.7145 3.640317,-1.6581 4.083821,-3.1384 C 57.831094,10.858 56.522428,8.9688 53.059346,7.6264 51.898747,7.1765 50.113632,6.3925 49.09243,5.8841 44.964304,3.8293 42.203335,3.6024 39.464175,5.0933 34.8978,7.5786 34.150206,14.7472 37.85554,20.5184 c 1.161274,1.8086 4.169366,5.5828 4.460571,5.5964 0.07783,0 0.827434,-0.9414 1.66577,-2.1002 z m 33.2611,-8.8034 c 2.17943,-1.03 4.92464,-2.1679 6.10049,-2.5287 l 2.13791,-0.6561 -1.46718,-0.019 c -1.58942,-0.02 -7.01311,0.9209 -13.061264,2.2664 -2.092625,0.4655 -3.856524,0.7946 -3.919783,0.7314 -0.185831,-0.1858 6.021057,-1.8158 9.249067,-2.429 1.63462,-0.3105 4.24577,-0.7088 5.80255,-0.8852 1.55677,-0.1763 2.86523,-0.3542 2.90768,-0.3953 0.0425,-0.041 -0.59442,-0.282 -1.41526,-0.5356 -2.04379,-0.6313 -8.21788,-1.3961 -10.16147,-1.2588 -1.48275,0.1048 -1.71737,0.2262 -3.396605,1.7575 -2.324055,2.1193 -3.580991,2.9559 -5.880347,3.9141 l -1.867567,0.7782 1.415254,-0.1899 c 2.176297,-0.2919 2.95259,-0.2056 5.094917,0.5658 3.156888,1.1369 3.902498,1.0386 8.461608,-1.1161 z m 3.98936,113.8541 c -0.573,-0.8744 -0.81092,-1.7368 -1.7167,-6.2216 l -0.75127,-3.7199 0.45872,-5.0949 c 1.36799,-15.1942 1.20013,-34.6209 -0.37761,-43.7008 -0.28695,-1.6515 -0.48275,-3.0445 -0.43509,-3.0958 0.22194,-0.2385 4.20563,8.4174 5.37437,11.6776 5.28281,14.7369 6.14222,33.1455 2.12175,45.4486 -0.77897,2.3838 -1.97558,4.7054 -2.66109,5.1631 -0.62812,0.4193 -1.58086,0.2034 -2.01308,-0.4563 z"
     id="path1725" /><path
     id="path312"
     d="m 56.400022,12.245981 a 3.6229031,3.6229031 0 0 1 -3.622903,3.622903 3.6229031,3.6229031 0 0 1 -3.622903,-3.622903 3.6229031,3.6229031 0 0 1 3.622903,-3.6229029 3.6229031,3.6229031 0 0 1 3.622903,3.6229029 z" /></svg>
