<?xml version="1.0" encoding="UTF-8" standalone="no"?>
<!-- Created with Inkscape (http://www.inkscape.org/) -->

<svg
   version="1.1"
   id="svg2"
   width="460.69977"
   height="947.73999"
   viewBox="0 0 460.69977 947.73999"
   sodipodi:docname="professor.svg"
   inkscape:version="1.2.2 (b0a8486541, 2022-12-01)"
   xmlns:inkscape="http://www.inkscape.org/namespaces/inkscape"
   xmlns:sodipodi="http://sodipodi.sourceforge.net/DTD/sodipodi-0.dtd"
   xmlns="http://www.w3.org/2000/svg"
   xmlns:svg="http://www.w3.org/2000/svg">
  <defs
     id="defs6" />
  <sodipodi:namedview
     id="namedview4"
     pagecolor="#ffffff"
     bordercolor="#666666"
     borderopacity="1.0"
     inkscape:showpageshadow="2"
     inkscape:pageopacity="0.0"
     inkscape:pagecheckerboard="0"
     inkscape:deskcolor="#d1d1d1"
     showgrid="false"
     inkscape:zoom="0.60145508"
     inkscape:cx="101.42071"
     inkscape:cy="1025.0142"
     inkscape:window-width="1914"
     inkscape:window-height="2126"
     inkscape:window-x="3840"
     inkscape:window-y="0"
     inkscape:window-maximized="1"
     inkscape:current-layer="g8" />
  <g
     inkscape:groupmode="layer"
     inkscape:label="Image"
     id="g8"
     transform="translate(574.9391,-166.95844)">
    <path
       style="fill:#000000"
       d="m -408.23603,1114.0724 c -4.69068,-1.3133 -8.80648,-5.0901 -8.7874,-8.0635 0.0147,-2.2922 0.0178,-2.2917 1.27607,0.2022 1.48829,2.9498 6.43917,4.8703 12.70919,4.9299 6.9105,0.066 8.91187,-0.8368 11.02031,-4.9697 1.54539,-3.0292 2.8963,-4.1039 6.78037,-5.394 2.69159,-0.894 6.34026,-3.1481 8.19766,-5.0645 2.92808,-3.021 3.07466,-3.4009 1.17066,-3.0342 -1.19708,0.2305 -2.61831,0.6922 -3.15828,1.0259 -0.53997,0.3337 -3.4288,1.005 -6.41962,1.4918 -2.99082,0.4867 -7.28339,2.1063 -9.53906,3.5991 -2.52373,1.6701 -5.9704,2.8936 -8.96085,3.181 -4.52161,0.4344 -5.02029,0.2496 -7.16922,-2.657 l -2.30959,-3.1239 -1.93093,3.0497 c -1.06202,1.6774 -2.09198,2.8887 -2.2888,2.6919 -0.19683,-0.1968 0.18059,-1.7844 0.83871,-3.528 1.48313,-3.9292 0.42165,-5.245 -4.93051,-6.1119 -3.57215,-0.5785 -3.87346,-0.9089 -5.00753,-5.4903 -0.66367,-2.6811 -2.05911,-5.8244 -3.10099,-6.9852 -2.96059,-3.2986 -3.19692,-5.0691 -1.48153,-11.0991 1.56662,-5.507 1.54616,-5.7704 -1.03414,-13.3148 -3.24786,-9.4963 -10.90478,-36.7484 -13.54162,-48.1967 -2.71319,-11.77969 -6.84011,-38.22173 -8.11588,-51.99999 -0.58564,-6.325 -1.35093,-30.01112 -1.70064,-52.63582 l -0.63583,-41.13582 -4.48092,-0.61418 c -2.4645,-0.3378 -7.79016,-0.61418 -11.83481,-0.61418 -4.04464,0 -13.09433,-1.08793 -20.11042,-2.41762 -7.0161,-1.3297 -14.91303,-2.71012 -17.54874,-3.0676 -3.17953,-0.43125 -5.87168,-1.59776 -8,-3.46641 -2.56082,-2.24839 -6.83819,-3.75653 -21.2078,-7.4776 -26.15107,-6.77192 -34.19905,-9.34412 -34.8928,-11.152 -1.9655,-5.12203 0.8313,-14.09599 25.37483,-81.41877 23.85407,-65.4316 31.39814,-88.91031 37.43328,-116.5 1.44372,-6.6 2.84072,-12.97766 3.10444,-14.17257 0.39215,-1.77684 -0.17359,-2.38811 -3.1059,-3.35586 -4.09331,-1.35092 -10.41385,-6.52107 -10.41385,-8.51846 0,-0.73684 0.93305,-1.99324 2.07344,-2.792 2.29335,-1.60632 2.05232,-1.87481 -3.20252,-3.56744 -1.996,-0.64293 -4.31315,-1.93952 -5.14924,-2.88132 -0.83609,-0.94179 -4.45844,-7.33735 -8.04968,-14.21235 -6.71494,-12.85495 -23.5789,-53.84907 -26.27384,-63.86832 -0.83314,-3.09742 -1.50935,-9.00668 -1.5027,-13.13168 0.0131,-8.1216 1.72775,-15.41854 11.51416,-49 7.69768,-26.41411 12.35884,-40.58021 15.207,-46.21676 1.37475,-2.72067 2.38338,-6.47943 2.38338,-8.88196 0,-2.41349 0.83728,-5.51996 1.99088,-7.38652 1.98783,-3.21638 1.98783,-3.22405 0,-5.02302 -2.99838,-2.71349 -2.65218,-8.53651 0.75298,-12.66501 1.50912,-1.8297 3.25551,-3.77673 3.88086,-4.32673 0.62535,-0.55 1.40964,-5.48013 1.74287,-10.95584 0.51907,-8.52957 1.09402,-10.98376 4.01335,-17.13103 3.86462,-8.13778 14.19681,-23.85998 17.75176,-27.01233 4.61763,-4.09468 21.31083,-9.36959 50.3673,-15.91562 17.06226,-3.8439 35.5,-12.72071 35.5,-17.0914 0,-0.69168 -1.35,-2.21888 -3,-3.39378 -1.67782,-1.19471 -3,-3.04775 -3,-4.2045 0,-1.20808 1.94119,-3.7792 4.66732,-6.18191 2.56703,-2.26247 7.5624,-6.70109 11.10083,-9.86359 3.63842,-3.25186 7.375,-5.75 8.60055,-5.75 1.19187,0 3.82262,1.125 5.84611,2.5 2.0235,1.375 3.95701,2.5 4.2967,2.5 0.33968,0 1.72828,-1.31996 3.08578,-2.93325 1.35749,-1.61329 4.02844,-3.44818 5.93544,-4.07755 1.907,-0.62937 3.46049,-1.22191 3.45221,-1.31675 -0.008,-0.0948 -0.66353,-1.97245 -1.4561,-4.17245 -0.79258,-2.2 -1.46081,-5.88594 -1.48495,-8.19098 -0.0241,-2.30504 -0.49389,-4.4691 -1.04389,-4.80902 -1.69925,-1.05019 -1.10356,-6.09631 0.93774,-7.94366 1.60641,-1.45378 1.75723,-2.20699 0.88206,-4.40499 -0.58063,-1.45824 -1.42481,-4.22635 -1.87594,-6.15135 -0.7228,-3.08419 -0.65882,-3.28229 0.53857,-1.66743 1.30829,1.76444 1.39895,1.75759 2.43819,-0.18426 0.59366,-1.10925 1.07938,-2.96054 1.07938,-4.11396 0,-1.15342 0.675,-2.35614 1.5,-2.67273 0.825,-0.31658 1.5,-1.78746 1.5,-3.26861 0,-1.48116 0.5625,-3.25967 1.25,-3.95226 1.0026,-1.01001 0.8808,-1.11862 -0.6154,-0.54873 -1.6008,0.60974 -1.76095,0.36992 -1.12904,-1.69075 0.405,-1.3207 1.10167,-3.07627 1.54815,-3.90127 0.68978,-1.27456 0.91744,-1.22574 1.51475,0.32484 0.60487,1.57021 0.91428,1.38853 2.21729,-1.30191 0.83289,-1.71971 2.76196,-3.77193 4.28684,-4.56047 1.52487,-0.78854 4.14268,-2.68519 5.81735,-4.21476 2.36687,-2.1618 2.91049,-3.33399 2.44141,-5.26437 -0.49607,-2.04149 -0.36573,-2.26093 0.73261,-1.23333 2.13315,1.99578 4.35092,1.47017 7.45132,-1.76595 1.5892,-1.65877 4.7109,-3.48218 6.93709,-4.05201 2.2262,-0.56983 6.86486,-2.13765 10.30815,-3.48405 3.44329,-1.34639 8.19079,-2.44799 10.55,-2.44799 2.35921,0 4.71698,-0.38477 5.23948,-0.85505 0.5225,-0.47027 6.62378,-0.53243 13.55839,-0.13813 15.49219,0.88088 19.12928,2.35744 33.57494,13.63058 5.60083,4.3708 12.91485,9.50293 16.25336,11.40475 5.66427,3.2267 6.17896,3.8255 7.69968,8.95785 0.8963,3.025 2.24479,6.38763 2.99664,7.4725 1.70595,2.46162 1.75768,5.73139 0.11699,7.39482 -1.00151,1.01538 -0.90211,1.52435 0.5,2.56024 0.9625,0.71111 1.75,2.48081 1.75,3.93268 0,2.7297 -3.07546,6.63976 -5.22251,6.63976 -0.67237,0 -0.26362,-0.67163 0.90834,-1.4925 2.8229,-1.97724 2.05327,-4.45536 -2.26171,-7.28247 -3.15535,-2.06734 -3.3605,-2.09602 -2.24774,-0.31422 0.67348,1.07842 2.03431,2.17253 3.02406,2.43135 0.98976,0.25883 1.79956,0.96273 1.79956,1.56422 0,1.86337 -3.88941,1.20421 -6.13302,-1.03941 l -2.13303,-2.13302 0.45983,3.13302 c 0.25291,1.72317 0.20027,3.13688 -0.11697,3.14158 -0.31725,0.005 -1.4098,2.68094 -2.42791,5.94721 -1.32167,4.24016 -1.66148,7.3173 -1.18813,10.75901 0.5815,4.22803 0.37889,5.08055 -1.6489,6.93786 -1.27153,1.16462 -3.36551,2.4376 -4.65329,2.82884 -1.60845,0.48865 -2.16497,1.22899 -1.77777,2.36493 0.31002,0.90948 2.20796,7.19996 4.21765,13.97885 3.06745,10.3468 3.46915,12.73095 2.50245,14.85262 -1.00334,2.20209 -1.63092,2.46442 -4.87623,2.03827 -2.04857,-0.269 -4.68787,-0.80477 -5.86509,-1.19059 -1.8844,-0.61759 -2.3443,-0.0877 -3.84498,4.43047 -1.42995,4.30516 -2.17259,5.22558 -4.60959,5.71298 -1.59776,0.31955 -2.90502,1.22675 -2.90502,2.01599 0,0.78925 -1.575,3.49771 -3.5,6.0188 -2.73709,3.58467 -3.5,5.51397 -3.5,8.85112 0,3.53747 -0.52621,4.71008 -3.07673,6.8562 -2.5326,2.13104 -4.09787,2.58889 -8.85077,2.58889 -3.17573,0 -7.21417,-0.50203 -8.97432,-1.11562 -1.76015,-0.61359 -3.43882,-0.87707 -3.73038,-0.58551 -0.47617,0.47617 2.12868,4.01575 11.79904,16.03297 2.76454,3.43547 2.95145,4.07861 1.80686,6.2173 -1.18014,2.20512 -0.57242,3.50299 8.03894,17.16816 10.64763,16.89649 19.24817,32.91358 24.3938,45.42943 1.95521,4.75571 6.72219,19.38071 10.59328,32.5 3.87109,13.1193 9.27133,30.07312 12.00054,37.67516 2.72921,7.60205 5.63582,17.50205 6.45914,22 0.82333,4.49796 2.87198,21.67811 4.55257,38.17811 3.60254,35.36972 6.56583,55.59026 14.55624,99.32715 1.9734,10.80174 2.47511,15.52804 1.69923,16.00756 -0.79737,0.49281 -0.80271,1.98365 -0.0194,5.40689 0.79238,3.4627 1.90649,5.30147 4.16674,6.87694 4.55616,3.17578 11.26893,11.56822 14.63036,18.29118 2.2232,4.44646 2.95482,7.30344 2.95482,11.53856 0,3.54765 -0.69962,7.00109 -1.8922,9.34028 l -1.89216,3.71144 h 3.8922 c 2.54968,0 4.5772,0.685 5.87813,1.98593 1.09227,1.09227 3.88508,2.28962 6.20625,2.66079 2.32117,0.37117 5.18953,1.64408 6.37414,2.82869 1.18461,1.18461 2.75187,4.48726 3.48281,7.33921 l 1.32897,5.18538 5.06095,-0.0318 c 2.85504,-0.0179 5.90703,-0.67175 7.00208,-1.5 1.06762,-0.80751 2.32988,-1.4682 2.80503,-1.4682 0.47514,0 1.9324,2.41608 3.23836,5.36907 1.3705,3.09896 3.97508,6.68845 6.1601,8.48953 3.63148,2.99337 14.42694,7.20409 22.85538,8.91464 l 4,0.8118 0.7496,14.93162 c 0.41228,8.21239 1.40811,17.50201 2.21295,20.64361 1.19424,4.66158 1.42344,13.8611 1.24636,50.02586 -0.15321,31.29001 -0.55564,44.88941 -1.36925,46.27214 -0.91655,1.55766 -0.84037,2.18633 0.37235,3.07309 1.09088,0.79768 1.33272,1.9885 0.85009,4.1859 -0.49371,2.24786 -1.3966,3.24162 -3.36831,3.70732 -1.48158,0.34993 -21.22539,1.14219 -43.87513,1.76058 l -41.18135,1.12435 -6.81865,-4.058 c -3.75026,-2.23189 -11.71581,-7.48989 -17.70122,-11.68444 l -10.88255,-7.62645 0.67901,4.24632 c 0.37346,2.33548 1.73987,7.41133 3.03646,11.27969 2.3158,6.90911 2.37628,8.08837 3.42324,66.74948 l 1.06579,59.71608 -2.39025,5.1591 c -1.31464,2.8376 -2.14686,5.7934 -1.84938,6.5687 0.29749,0.7752 2.50793,2.7629 4.91211,4.417 4.83579,3.3271 6.31405,6.8244 4.39793,10.4047 -0.68513,1.2802 -0.96246,2.7859 -0.61628,3.346 0.34618,0.5601 1.97425,1.3138 3.61795,1.6748 1.64369,0.361 2.98853,1.2986 2.98853,2.0836 0,0.7849 1.09986,2.3835 2.44414,3.5523 1.34428,1.1688 3.11722,3.8073 3.93986,5.8633 0.82265,2.056 2.19778,4.0076 3.05586,4.3369 0.85808,0.3292 1.56014,1.52 1.56014,2.6462 0,1.3555 1.18299,2.6117 3.5,3.7166 1.925,0.918 3.5,2.2607 3.5,2.9838 0,0.7232 0.93529,1.3148 2.07842,1.3148 1.14313,0 3.84023,1.7795 5.99355,3.9545 2.9851,3.015 5.75766,4.5351 11.67158,6.3988 8.56378,2.6988 22.13378,4.6396 32.47127,4.6439 5.61356,0 6.88459,0.32 7.75,1.9371 1.69448,3.1661 1.22252,4.8526 -2.5162,8.9909 -2.37983,2.6342 -5.9261,4.9112 -10.75,6.9025 -11.43221,4.7192 -17.44859,5.641 -36.19862,5.546 -14.53264,-0.074 -18.69548,-0.4682 -28.68178,-2.7188 -6.42497,-1.448 -15.53747,-2.9291 -20.25,-3.2913 -7.55703,-0.5809 -8.56822,-0.4642 -8.56822,0.9889 0,1.4914 -2.69575,1.6475 -28.45295,1.6475 -28.7855,0 -32.73345,-0.4374 -34.01161,-3.7682 -0.31602,-0.8236 -0.0657,-5.321 0.55616,-9.9944 1.06968,-8.0382 1.01116,-8.7098 -1.08367,-12.4371 -2.52184,-4.487 -2.35105,-6.8109 1.06938,-14.5512 l 2.32037,-5.2509 -2.19884,-4.5258 c -2.5809,-5.3123 -2.76142,-8.8817 -0.69884,-13.8182 0.825,-1.9745 1.5,-4.8703 1.5,-6.4352 0,-1.5698 -1.87734,-5.955 -4.18776,-9.7821 -2.30327,-3.8153 -4.99981,-9.0701 -5.99233,-11.6774 -2.06849,-5.4339 -5.19961,-29.17312 -6.90744,-52.37015 -0.64777,-8.79851 -0.91397,-22.96417 -0.59652,-31.74283 0.50054,-13.84202 0.34249,-16.44303 -1.2457,-20.5 -2.04913,-5.23442 -4.43109,-15.27645 -6.06478,-25.56828 -0.80498,-5.07123 -0.79661,-9.45216 0.0313,-16.38642 l 1.13006,-9.46465 -4.53564,-9.11358 c -4.90944,-9.86465 -12.61243,-28.58073 -12.66163,-30.76417 -0.12334,-5.47336 -5.35399,14.91519 -8.44688,32.92508 -0.876,5.10097 -1.96585,13.31806 -2.42189,18.26021 -0.72077,7.81118 -1.30439,9.75567 -4.46498,14.87623 -3.34757,5.4235 -3.63584,6.49461 -3.63584,13.50967 0,5.81974 -0.59042,9.07218 -2.5,13.77168 -1.82003,4.47911 -2.5,8.00566 -2.5,12.96578 0,3.74728 -0.51658,8.74467 -1.14795,11.10531 -0.92142,3.44506 -0.72947,8.82552 0.97263,27.26435 1.16633,12.63475 2.40419,28.72656 2.7508,35.75958 0.61922,12.56429 0.6922,12.87819 4.18432,17.99999 1.95477,2.867 6.18561,8.2003 9.40187,11.8519 5.97006,6.778 8.84349,12.0092 8.83174,16.0787 -0.004,1.2552 -0.8825,3.6109 -1.95306,5.235 -1.51339,2.2958 -1.81032,3.9462 -1.33454,7.4174 0.55604,4.0568 0.35269,4.6713 -2.22613,6.7276 l -2.83807,2.263 3.67919,4.0724 c 2.92746,3.2404 3.6792,4.8776 3.6792,8.0129 0,2.7167 -0.58124,4.3475 -1.87168,5.2514 -1.8175,1.273 -1.80643,1.4588 0.38222,6.4181 1.73073,3.9216 3.14987,5.5454 6.11379,6.9957 2.12294,1.0387 4.4193,3.0136 5.10304,4.3886 1.6236,3.2651 1.63873,12.4607 0.0226,13.7605 -1.78752,1.4377 -63.1916,2.4325 -67.94786,1.1008 z m 29.19786,-21.8613 5.5,-1.8677 -3.80902,-0.066 c -2.61836,-0.045 -3.58781,0.2918 -3.10137,1.0788 0.50269,0.8134 -0.13187,0.9444 -2.19099,0.4523 -5.40165,-1.2911 -7.91543,-1.5855 -4.53896,-0.5318 4.42614,1.3814 3.60979,2.0553 -1.18085,0.9749 -3.17766,-0.7167 -3.5832,-0.6301 -2.59948,0.5552 1.54511,1.8618 5.2259,1.6779 11.92067,-0.5955 z M -212.86526,718.523 c 0.1799,-3.47385 0.0593,-6.31514 -0.26792,-6.31399 -0.32726,10e-4 -1.42387,0.91797 -2.43691,2.03737 -1.01304,1.11939 -2.49313,1.78536 -3.28908,1.47992 -1.15743,-0.44414 -1.33054,0.16355 -0.86457,3.03501 0.32045,1.97468 0.19465,4.61083 -0.27956,5.8581 -0.83946,2.20793 -0.76099,2.24074 2.97437,1.24371 l 3.83658,-1.02404 z m 28.82709,5.36625 c 0,-1.12984 -3.46028,-10.40353 -4.26417,-11.42814 -1.02047,-1.30066 -13.17902,-1.78463 -16.15404,-0.64301 -1.19477,0.45848 -1.58179,2.04883 -1.58179,6.5 v 5.89301 h 11 c 6.05,0 11,-0.14484 11,-0.32186 z m -138,-369.56736 c 0,-2.35524 -0.75953,-4.82034 -1.92571,-6.25 -1.75945,-2.15696 -1.98568,-2.20667 -2.62041,-0.57581 -0.42559,1.09354 0.22285,3.51457 1.67399,6.25 1.30278,2.45577 2.48197,4.46503 2.62041,4.46503 0.13845,0 0.25172,-1.75015 0.25172,-3.88922 z m -6.85623,-17.76747 c 0.60622,-2.40752 1.49687,-4.62121 1.97923,-4.91933 3.29206,-2.03461 -2.33495,-9.44046 -12.48045,-16.42582 -3.9284,-2.70477 -9.28005,-6.51523 -11.89255,-8.46768 -2.6125,-1.95245 -4.75,-3.32951 -4.75,-3.06013 0,0.26939 2.76563,3.53626 6.14584,7.25972 3.38022,3.72346 7.06484,8.00743 8.18806,9.51993 1.12322,1.5125 2.57749,2.75 3.23171,2.75 0.65423,0 1.72583,0.64623 2.38134,1.43608 0.86235,1.03907 0.89913,1.983 0.13304,3.41446 -0.81073,1.51487 -0.59785,2.99415 0.90864,6.31392 1.0821,2.38455 1.97733,5.40314 1.98941,6.70798 0.0186,2.00911 0.25487,2.17915 1.54274,1.11032 0.83642,-0.69417 2.01677,-3.23192 2.62299,-5.63945 z"
       id="path293" />
  </g>
</svg>
