<?xml version="1.0" encoding="UTF-8" standalone="no"?>
<!-- Created with Inkscape (http://www.inkscape.org/) -->

<svg
   version="1.1"
   id="svg2"
   width="503.5986"
   height="967.66345"
   viewBox="0 0 503.59861 967.66346"
   sodipodi:docname="returning-cropped.svg"
   xml:space="preserve"
   inkscape:version="1.2.2 (b0a8486541, 2022-12-01)"
   xmlns:inkscape="http://www.inkscape.org/namespaces/inkscape"
   xmlns:sodipodi="http://sodipodi.sourceforge.net/DTD/sodipodi-0.dtd"
   xmlns="http://www.w3.org/2000/svg"
   xmlns:svg="http://www.w3.org/2000/svg"><defs
     id="defs6" /><sodipodi:namedview
     id="namedview4"
     pagecolor="#ffffff"
     bordercolor="#666666"
     borderopacity="1.0"
     inkscape:showpageshadow="2"
     inkscape:pageopacity="0.0"
     inkscape:pagecheckerboard="0"
     inkscape:deskcolor="#d1d1d1"
     showgrid="false"
     inkscape:zoom="0.15620064"
     inkscape:cx="179.25663"
     inkscape:cy="829.06192"
     inkscape:window-width="1920"
     inkscape:window-height="1080"
     inkscape:window-x="0"
     inkscape:window-y="0"
     inkscape:window-maximized="1"
     inkscape:current-layer="g8" /><g
     inkscape:groupmode="layer"
     inkscape:label="Image"
     id="g8"
     transform="translate(-229.86257,2.7154893e-4)"><path
       id="path335"
       style="fill:#000000"
       d="M 409.60866 0.10129095 C 409.45491 -0.20914268 409.36339 0.19297748 409.3157 1.2692597 C 409.12047 5.6750509 407.87733 7.2725291 406.20827 5.2614472 C 405.47706 4.3803869 403.95795 3.1680415 402.83327 2.5661347 C 400.8128 1.4848069 400.81007 1.5048306 402.60476 4.2438691 C 403.60376 5.7685201 403.87621 6.6788998 403.21023 6.2673066 C 402.36362 5.7440736 402.18088 6.090297 402.6028 7.4196503 C 403.14297 9.1215709 402.76271 9.2782734 398.98171 8.9176972 C 395.22052 8.5590109 394.90176 8.6878702 396.07155 10.097385 C 397.72978 12.095433 396.75031 13.765335 393.90554 13.784885 C 392.7005 13.793185 389.91412 14.487862 387.71413 15.329807 C 384.00381 16.749758 383.9495 16.822719 386.96413 16.339572 C 388.75163 16.053098 390.21413 16.025087 390.21413 16.277072 C 390.21413 16.529056 388.0363 17.838288 385.37429 19.187228 C 379.6979 22.063673 374.7654 27.351905 371.8196 33.718478 C 369.98035 37.693498 369.71727 40.103855 369.73757 52.76926 C 369.75857 65.917674 370.00308 67.921753 372.37234 74.26926 C 379.56765 93.54637 381.26664 98.983238 381.85671 104.62863 C 382.61895 111.92151 382.73693 111.87987 372.32351 108.08957 L 364.93288 105.39817 L 362.32351 108.48996 C 360.88805 110.18997 358.44784 113.53626 356.90163 115.92551 C 355.35541 118.31477 352.99291 121.79887 351.65163 123.6677 C 350.31034 125.53654 349.21413 127.51689 349.21413 128.07004 C 349.21413 128.62319 351.08856 130.80798 353.38015 132.92356 C 355.67175 135.03914 357.35925 136.92135 357.13015 137.10715 C 356.90106 137.29295 354.58912 138.88112 351.99148 140.63645 C 343.48516 146.38449 327.44636 166.27762 308.65945 194.38254 C 295.75522 213.68706 295.68125 213.77073 294.82351 210.35324 C 294.24958 208.06655 293.67177 207.76926 289.80202 207.76926 C 285.17841 207.76926 284.21413 208.72559 284.21413 213.31223 C 284.21413 216.20266 282.2692 216.81687 263.71413 219.77903 C 248.89513 222.14473 246.13874 223.54391 244.84499 229.36496 C 244.36774 231.51225 242.84437 236.53556 241.45827 240.52903 C 239.40407 246.44735 239.04319 248.94348 239.50905 254.02903 C 240.03686 259.79082 239.76982 260.95784 236.02273 269.26926 C 224.29352 331.09946 232.86087 368.8844 233.18288 399.95871 C 234.90999 426.87425 236.65078 439.97486 239.20241 445.24582 C 242.31469 451.67495 247.50466 455.19005 256.97976 457.28684 C 261.23315 458.22809 265.91736 459.61643 267.38796 460.37082 C 270.19007 461.80826 302.39213 465.76926 311.27468 465.76926 C 316.11735 465.76926 316.39626 465.90558 315.8782 468.01926 C 312.37342 482.31833 310.90214 492.56721 310.81374 503.26926 C 310.74924 511.07635 311.14231 516.01439 311.93874 517.40403 C 313.1658 519.54505 329.652 526.59258 338.86257 528.91184 C 346.81619 530.18284 353.46919 531.09864 359.6028 531.86887 C 357.3815 555.49592 350.67779 604.20326 350.21609 610.46262 C 349.75059 616.78008 349.78175 630.16758 350.28445 640.21262 C 351.11574 656.81289 350.98266 659.15296 348.82546 665.91574 C 346.25896 673.96132 344.34539 691.37894 344.96609 701.03488 C 345.19049 704.52532 344.212 712.25493 342.6321 719.47629 C 339.3365 734.53979 335.11224 766.1583 334.90554 777.31809 C 334.82254 781.78913 334.94612 791.59385 335.17702 799.1052 C 335.41052 806.61648 335.29104 828.91383 335.03054 834.67551 C 334.60134 844.17111 334.71152 850.47066 335.48952 860.93723 C 335.64282 862.99641 334.90168 865.82516 333.77468 867.49192 C 332.68418 869.10464 331.30628 872.93167 330.71218 875.99582 C 329.93818 879.98779 328.66021 882.54825 326.20241 885.03098 C 321.06102 890.22433 321.0664 892.72002 326.2532 904.80832 C 327.36619 907.40261 327.27106 907.90919 325.60476 908.29465 C 322.13366 909.09765 320.5042 912.88574 319.5696 922.31418 C 319.0657 927.39767 317.92384 933.43587 317.03054 935.73215 C 316.13734 938.02841 315.10703 944.04975 314.74343 949.11496 C 314.17433 957.03901 314.31763 958.47224 315.77273 959.38059 C 316.70293 959.96123 324.23587 961.79556 332.51296 963.45676 C 346.51585 966.94905 499.96684 978.71039 471.23952 936.92356 C 467.62379 931.8937 472.12631 931.68776 456.99734 934.58176 C 443.20721 937.21965 443.09537 937.22068 433.76491 935.11496 C 427.70899 933.74825 423.38427 932.10782 421.54812 930.48215 C 420.97935 929.97856 420.5888 929.7323 420.15945 929.42942 C 422.05885 929.45238 423.95722 929.48477 425.85671 929.52512 C 426.20709 929.70527 426.48056 929.82088 426.84109 930.0134 C 431.60491 932.55724 431.66258 932.56167 428.15359 930.12473 C 427.89666 929.9463 427.47773 929.74182 427.13405 929.54856 C 430.75719 929.62833 434.3801 929.71639 438.00124 929.75168 C 444.08784 929.58818 450.17751 929.4813 456.26101 929.2302 C 467.7437 928.6346 479.06643 926.32996 490.17312 923.45676 C 499.12411 921.08856 507.99819 918.40197 516.74538 915.36887 C 520.47248 914.01197 524.26801 912.69337 527.63601 910.56028 C 529.01601 909.70528 530.32597 908.36114 530.33327 906.63254 C 530.58557 902.87214 530.15464 898.83668 527.90945 895.68918 C 526.52405 893.64598 524.29002 892.21443 521.83132 891.90403 C 514.34143 891.01803 506.78397 890.76085 499.24538 890.85715 C 495.98799 891.00365 492.62599 891.29937 489.49929 890.46067 C 485.01979 889.41337 480.74001 887.68277 476.42312 886.12278 C 475.19542 885.61648 473.88107 885.1408 472.89577 884.2302 C 472.34727 883.4159 473.08439 882.47875 473.84109 882.14035 C 475.97398 880.98365 478.51616 882.09537 480.72976 881.33567 C 481.28026 880.95727 479.86091 881.04118 479.51491 881.06418 C 477.85642 881.08118 476.08731 881.19814 474.54421 880.50754 C 473.38221 879.58244 473.61189 877.90932 473.5032 876.59153 C 473.5032 875.72073 473.36976 874.68754 473.95046 873.97824 C 474.95326 873.47184 476.09134 874.0523 477.05984 874.3884 C 479.15263 875.3288 481.12786 876.74749 482.38405 878.69309 C 482.77145 879.27209 482.71465 879.98364 482.38405 880.57004 C 482.30605 880.92214 483.13663 880.23936 483.27273 879.92356 C 484.06763 878.58646 483.28272 876.95119 482.29812 875.94699 C 480.89872 874.3332 479.18826 872.99526 477.38796 871.86106 C 476.12276 871.20966 474.63517 871.52766 473.42507 872.14426 C 470.70507 873.28026 468.11457 875.18292 465.05007 875.12082 C 463.39577 874.92232 462.33249 873.42118 461.34499 872.18918 C 460.66739 871.34048 459.73379 870.63834 458.62429 870.53684 C 456.98749 870.11744 455.12754 869.07572 454.87624 867.24582 C 454.87624 866.00292 454.65221 864.75 453.94851 863.7009 C 452.62421 861.3623 450.49649 859.44689 447.99929 858.44699 C 446.10519 857.83929 444.0512 857.54721 442.4114 856.33371 C 441.0311 855.44201 439.69355 853.80208 440.19655 852.06418 C 440.84175 850.44728 442.56038 849.64162 443.93288 848.77512 C 446.23428 847.47292 448.89168 846.7194 451.11648 845.2302 C 453.02067 843.6484 453.51633 841.08608 454.33523 838.87668 C 455.65232 834.84869 456.02713 830.5316 455.43093 826.33371 C 454.78593 821.05903 453.41269 815.88762 453.02859 810.58762 C 452.45949 804.79226 452.74957 798.93263 451.83327 793.1677 C 451.52387 790.64287 450.8876 788.17446 450.5071 785.66379 C 450.0415 782.01716 450.56619 778.36206 451.27859 774.79074 C 453.09388 763.04168 453.29547 751.12827 454.30007 739.29856 C 454.86797 731.93387 455.45 724.56559 456.1907 717.21848 C 456.66889 715.645 457.47294 714.20499 458.03054 712.67551 C 463.74733 699.08116 462.10492 682.13856 467.16921 668.28488 C 488.34189 622.37084 459.2323 599.66424 470.08913 529.02707 C 475.25622 529.37312 480.9129 529.82641 487.14577 530.40793 C 484.39405 514.42677 484.40572 514.32724 490.0657 508.91184 C 485.04738 432.7401 484.52657 404.44319 484.51296 387.25754 C 493.92972 390.76662 503.60216 393.8991 501.43093 392.28684 C 517.93254 399.60105 499.28636 395.05234 524.43874 405.01926 C 528.20346 405.72817 534.01003 407.4958 537.34304 408.94699 C 540.67602 410.39817 545.66294 411.51923 548.42507 411.43723 C 555.03609 411.24085 565.40661 413.47753 578.58132 417.93918 C 584.2804 419.86917 587.27553 420.68518 589.48171 420.63645 C 592.41824 424.49369 599.75752 432.02447 606.30984 437.85324 C 621.07816 450.99081 620.82222 450.9842 645.11257 439.32785 C 646.05926 438.87356 647.06705 438.42833 648.04421 437.97434 C 649.05977 438.5359 650.25681 439.27135 651.93484 440.37668 C 661.14532 446.44392 661.56396 446.50839 667.32155 442.72043 C 670.08285 440.90368 673.40957 437.83738 674.71218 435.90793 C 676.4057 433.39954 678.04489 432.10186 680.46804 431.34543 C 683.52915 430.38989 683.89152 429.90327 684.20632 426.34153 C 684.39804 424.17289 684.25108 420.61818 683.8821 418.43918 C 683.66037 417.12982 683.64678 415.69841 683.7903 414.22043 C 686.14818 412.48565 689.00206 410.47139 692.69265 407.93137 C 702.97236 400.85643 716.41625 392.52933 722.57155 389.42356 C 734.52287 383.39326 736.29684 379.92193 729.55788 375.73606 C 714.85248 350.2424 703.30382 324.55276 689.21999 319.40207 C 691.27126 318.37495 687.07667 312.47738 682.00905 309.26731 C 677.97145 306.70972 664.15844 315.54814 636.37234 338.47238 C 621.30559 350.90282 607.51279 361.35928 605.71609 361.71067 C 605.21139 361.64873 604.60498 361.52537 604.07937 361.4509 C 604.22675 361.33408 604.37685 361.21692 604.65359 361.05442 C 604.45248 361.18873 604.27419 361.31716 604.07546 361.4509 C 600.68325 360.97015 596.93384 360.27536 592.46999 359.14621 C 579.62169 355.89628 576.33894 355.63321 572.94655 357.58176 L 571.86648 358.20285 C 570.72324 357.48237 569.78888 356.87591 568.90554 356.34934 L 567.91726 354.44113 C 557.49494 348.63408 539.97705 346.48514 525.70241 343.3552 C 523.85282 343.92738 522.99068 343.20383 519.38601 338.05637 C 514.04962 330.43541 508.60767 325.05345 505.59695 324.4177 C 504.29614 324.14298 502.90274 323.74122 502.49929 323.52512 C 502.09658 323.30798 501.09278 323.27391 500.27077 323.44699 C 499.39097 323.63239 499.62224 323.89723 500.82741 324.09153 C 493.92585 327.91938 494.82951 317.77845 492.82546 310.14426 L 492.81765 310.1384 C 490.96078 300.24899 488.51679 297.24728 481.10866 293.69113 C 480.33694 293.32067 479.76137 293.08247 479.04421 292.75363 C 477.85366 268.42459 476.87429 252.82279 475.74734 245.46067 C 474.07117 234.51065 469.18773 216.35612 463.04616 198.24387 L 458.96804 186.22043 L 461.59109 182.3552 C 463.03365 180.22945 464.21413 178.02368 464.21413 177.45285 C 464.21413 176.43423 455.48733 167.71788 443.43484 156.69895 C 436.4638 150.32593 435.1835 147.15519 437.56374 142.16379 C 439.38903 138.3361 441.37226 137.96568 450.07351 139.83176 C 459.59001 141.87269 467.11306 137.52722 468.67116 129.08957 C 469.05928 126.98777 470.29612 124.27956 471.42116 123.07004 C 472.54621 121.86053 473.21498 120.2151 472.90749 119.41379 C 472.6 118.61248 473.16748 117.21702 474.16726 116.31223 C 475.16704 115.40744 476.23705 113.40273 476.54616 111.85715 C 477.02946 109.44069 477.69339 108.96746 481.28249 108.48606 C 487.77034 107.61586 487.99408 106.89802 484.81765 97.14426 C 481.73249 87.670819 481.83419 84.515151 485.38601 79.527072 C 487.18377 77.002357 487.72723 74.316342 488.43288 64.476291 C 488.96134 57.107252 489.87061 51.490742 490.79421 49.882541 C 492.23308 47.377129 492.2782 47.516875 491.90359 53.236057 C 491.54547 58.703552 491.63454 59.022655 492.95437 57.034885 C 494.15829 55.221685 494.70317 55.058831 496.27859 56.042697 C 497.83292 57.013395 498.43837 56.872464 499.72195 55.243869 C 501.13067 53.455934 501.12991 53.641487 499.7239 57.193088 C 498.86964 59.350901 497.61838 61.785469 496.94265 62.605197 C 495.87247 63.903414 496.01349 63.936375 498.04226 62.855197 C 499.32328 62.172503 501.6895 58.835985 503.30007 55.441135 L 506.2278 49.26926 L 505.75515 54.26926 C 505.38968 58.127812 505.47588 58.584391 506.13015 56.26926 C 509.28636 45.100944 504.48606 31.448807 495.73171 26.695041 C 493.52226 25.495276 488.94551 22.746722 485.56179 20.587619 C 474.79515 13.717587 456.49922 6.0660779 445.6321 3.8884003 C 428.83685 0.52278108 426.85474 0.39460434 421.08132 2.3122285 C 417.16578 3.6127629 415.70863 3.754719 415.4114 2.8630097 C 414.88611 1.2871409 412.28888 4.6488526 412.24538 6.960666 C 412.22788 7.8907051 411.69481 8.9725236 411.05984 9.3649628 C 410.42392 9.757991 410.17365 9.6423274 410.5032 9.1091035 C 410.83224 8.5766815 410.72907 5.9198572 410.27468 3.2048066 C 409.97829 1.4337966 409.76241 0.41172458 409.60866 0.10129095 z M 455.59695 871.2927 C 456.35504 871.292 457.46797 871.50655 457.57937 872.41965 C 457.12907 873.09805 456.23245 872.53714 455.63405 872.35324 C 455.24025 872.25064 454.50401 871.70417 455.07741 871.36887 C 455.24481 871.31487 455.42265 871.3027 455.59695 871.2927 z M 413.93874 929.42746 C 415.50936 929.41409 417.08064 929.41667 418.65163 929.42942 C 418.96247 929.9018 419.51731 930.54823 420.36257 931.35715 C 422.675 933.57008 422.67988 933.606 420.57546 933.03098 C 419.39286 932.7078 417.12424 931.56962 415.53445 930.50168 L 413.93874 929.42746 z " /></g></svg>
