<?xml version="1.0" encoding="UTF-8" standalone="no"?>
<!-- Created with Inkscape (http://www.inkscape.org/) -->

<svg
   version="1.1"
   id="svg2"
   width="634.32306"
   height="814.52039"
   viewBox="0 0 634.32306 814.52039"
   sodipodi:docname="sitting.svg"
   xml:space="preserve"
   inkscape:version="1.2.2 (b0a8486541, 2022-12-01)"
   xmlns:inkscape="http://www.inkscape.org/namespaces/inkscape"
   xmlns:sodipodi="http://sodipodi.sourceforge.net/DTD/sodipodi-0.dtd"
   xmlns="http://www.w3.org/2000/svg"
   xmlns:svg="http://www.w3.org/2000/svg"><defs
     id="defs6" /><sodipodi:namedview
     id="namedview4"
     pagecolor="#ffffff"
     bordercolor="#666666"
     borderopacity="1.0"
     inkscape:showpageshadow="2"
     inkscape:pageopacity="0.0"
     inkscape:pagecheckerboard="0"
     inkscape:deskcolor="#d1d1d1"
     showgrid="false"
     inkscape:zoom="0.85058594"
     inkscape:cx="295.0907"
     inkscape:cy="533.16188"
     inkscape:window-width="1914"
     inkscape:window-height="2126"
     inkscape:window-x="3840"
     inkscape:window-y="0"
     inkscape:window-maximized="1"
     inkscape:current-layer="g8" /><g
     inkscape:groupmode="layer"
     inkscape:label="Image"
     id="g8"
     transform="translate(-61.076172,29.487166)"><path
       id="path293"
       style="fill:#000000"
       d="m 399.51172,-29.476562 c -0.23734,0.07233 -0.7274,0.512705 -1.50977,1.220703 -1.16134,1.050938 -2.61103,2.946158 -3.2207,4.21289 -1.3917,2.891424 -3.3465,1.357234 -4.88672,-3.833984 -0.37501,-1.263624 -0.60166,-1.708681 -0.69336,-1.300781 -0.0906,0.417077 -0.0453,1.695254 0.12695,3.890625 0.26445,3.369626 0.93035,6.564906 1.48047,7.101562 0.55083,0.537507 0.28639,0.750231 -0.58789,0.470703 -0.87303,-0.279089 -1.82751,-1.410947 -2.125,-2.513672 -0.73798,-2.741432 -4.83015,-5.974835 -4.98828,-3.941406 -0.0894,1.15061 -1.86894,1.412739 -6.91992,1.025391 -7.44782,-0.571124 -9.76994,0.171306 -28.78125,9.166015 -12.30094,5.8198952 -31.82854,20.3654395 -42.61719,31.746094 -3.39058,3.576692 -8.02845,8.209766 -10.30468,10.294922 -9.01924,8.262043 -10.68646,25.952886 -3.61133,38.322266 1.46668,2.564091 1.43421,1.994539 -0.14649,-2.494141 L 288.67969,58.074219 294,64.558594 c 2.92648,3.566647 6.73601,6.838307 8.46484,7.271484 2.73806,0.685988 2.8967,0.606041 1.23633,-0.623047 -1.04835,-0.776092 -3.26167,-3.305748 -4.91992,-5.623047 -2.73165,-3.813559 -2.7891,-4.034349 -0.58008,-2.322265 2.01269,1.559364 2.776,1.547541 4.33985,-0.07031 1.58494,-1.63978 2.28334,-1.60766 4.25586,0.195313 2.1624,1.976547 2.1744,1.569895 0.125,-4.837891 -2.14389,-6.702725 -2.13164,-6.882161 0.32617,-4.324219 1.57771,1.641916 4.32774,8.062807 7.14453,16.685547 3.7612,11.514196 5.2065,14.552915 8.09765,17.027344 5.7123,4.888676 6.76837,8.61973 5.9043,20.822267 -0.88951,12.56355 -0.40988,13.35172 7.57813,12.46289 4.41912,-0.49172 5.35154,-0.12421 6.64453,2.61132 0.827,1.74969 2.69654,3.82033 4.15625,4.60157 1.45971,0.78124 2.55041,2.27436 2.42187,3.32031 -0.12841,1.04594 1.15603,2.80893 2.85547,3.91602 1.69935,1.10711 3.97628,3.96656 5.0625,6.35546 4.36064,9.59033 14.61527,12.53345 25.34766,7.27735 9.81304,-4.80584 12.28494,-4.9522 15.5957,-0.9336 -11.65666,18.37305 -13.68947,22.48335 -14.36133,29.04102 -0.37464,3.6567 -0.94861,7.98521 -1.27539,9.61914 -0.36908,1.84538 -0.17923,2.9707 0.5,2.9707 1.15852,0 8.14273,-8.72308 11.88867,-14.84765 2.1782,-3.56133 2.234,-3.58646 2.25,-0.98438 0.0245,3.97119 1.0114,5.83203 3.08985,5.83203 2.79508,0 3.94292,3.01007 2.88672,7.56446 -0.50187,2.16403 -0.95406,6.18559 -1.00586,8.93554 -0.0518,2.75 -0.44796,5.9 -0.88086,7 -0.62448,1.58679 -1.02314,0.90555 -1.92969,-3.29883 -0.62844,-2.91452 -1.14258,-6.17707 -1.14258,-7.25 0,-1.07288 -0.36941,-1.95117 -0.82031,-1.95117 -0.89815,0 -2.77114,11.34538 -3.75781,22.76172 -0.39406,4.5596 -2.10799,11.44435 -4.60547,18.5 -6.77552,19.14179 -7.01334,20.28823 -6.46875,31.23828 0.43909,8.8287 0.27193,10.27706 -1.42578,12.36133 -1.05762,1.29844 -1.92188,3.4098 -1.92188,4.69141 0,1.28161 -0.46275,2.61396 -1.02734,2.96289 -0.56459,0.34893 -0.90209,1.38956 -0.75,2.31054 0.20837,1.26186 -0.40044,1.62819 -2.47266,1.48633 -2.06741,-0.14154 -2.75,0.26585 -2.75,1.64258 0,1.0072 -0.675,2.08966 -1.5,2.40625 -0.91371,0.35062 -1.5,0.002 -1.5,-0.89258 0,-0.80774 -1.8,-3.26875 -4,-5.46875 -3.59243,-3.59239 -4.50589,-4 -8.96484,-4 -3.8679,0 -5.19176,-0.4221 -5.99024,-1.91406 -1.20685,-2.25504 -13.16129,-6.52123 -15.77343,-5.62891 -0.97446,0.3329 -3.12149,1.75987 -4.77149,3.17188 l -3,2.56836 8.5,-0.57617 c 10.3745,-0.70311 13.3518,0.40777 13.8125,5.15234 0.36211,3.72925 -0.88836,4.25391 -2.32617,0.97656 -0.95829,-2.18421 -1.35162,-2.24206 -13.48633,-1.96289 -9.82483,0.22603 -12.89542,-0.0274 -14.34961,-1.18359 -2.28924,-1.82017 -1.34517,-3.60352 1.90821,-3.60352 1.34253,0 2.4414,-0.37221 2.4414,-0.82617 0,-0.45397 -2.88223,-3.16192 -6.40429,-6.01953 -3.52207,-2.85762 -8.98963,-8.35734 -12.1504,-12.2207 -3.16077,-3.8634 -6.60658,-7.48317 -7.65625,-8.04493 -1.80726,-0.96717 -17.74049,-3.1821 -22.51367,-3.1289 -1.23929,0.0138 -3.38102,1.40142 -4.83789,3.13281 -1.43808,1.70906 -3.48062,3.10742 -4.53711,3.10742 -1.05649,0 -2.70303,0.97538 -3.66015,2.16797 -0.95711,1.19259 -3.20274,3.6825 -4.99024,5.5332 -2.2824,2.36315 -3.25492,4.32305 -3.26562,6.58204 -0.0251,5.28293 -1.3859,6.36629 -3.77735,3.00781 -2.47034,-3.46929 -10.51935,-8.03098 -16.42968,-9.3125 l -4.27735,-0.92774 4.9668,0.48438 c 3.04805,0.29795 6.52493,1.51446 9,3.14648 2.70585,1.78421 3.53954,2.05683 2.5332,0.83008 -2.01881,-2.46096 -8.81882,-5.46313 -12.43555,-5.49023 -3.96522,-0.0297 -11.03416,3.51814 -13.00585,6.52734 l -1.60547,2.45117 -25.72657,-0.15429 c -22.75296,-0.13596 -24.24257,-0.23635 -12.89062,-0.8711 9.45713,-0.52881 13.238,-1.12081 14.36719,-2.25 0.84293,-0.84293 1.26992,-1.96034 0.94726,-2.48242 -0.85377,-1.38143 -13.83778,-2.1535 -25.44922,-1.51367 l -10.0625,0.55469 1.50586,2.29882 c 0.82844,1.26435 2.48592,2.49811 3.68164,2.74219 1.19572,0.24406 -0.75121,0.23829 -4.32617,-0.0137 -6.21074,-0.43758 -6.39987,-0.38604 -4.25,1.17188 1.84833,1.33937 2.25,2.58307 2.25,6.96484 v 5.33398 l -7.59961,0.38477 c -6.0501,0.30552 -7.88405,0.77268 -9,2.29883 -2.05339,2.80813 -1.72474,5.45827 1.19532,9.67187 1.42741,2.05977 2.29933,4.22239 1.93945,4.80469 -0.42024,0.67997 -7.16055,1.07065 -18.84375,1.09375 -17.81761,0.0352 -18.25297,0.0875 -21.19141,2.49609 l -3,2.45899 19.80078,0.004 19.80274,0.006 1.05273,3.02149 c 1.7698,5.07678 3.35739,5.39155 29.34375,5.82226 13.19991,0.21878 23.1,0.73738 22,1.15235 -1.1,0.41497 -18.8751,1.03745 -39.5,1.38476 -20.6249,0.34731 -49.9876,0.90758 -65.249998,1.24414 l -27.75,0.61133 v 4.38281 4.38086 h 11.394531 11.392578 l -0.201172,46.25 c -0.11114,25.4374 0.184471,47.42464 0.65625,48.86133 0.47178,1.43669 1.959012,3.1145 3.306641,3.72852 3.233167,1.47315 3.091205,2.90448 -0.675781,6.79101 -3.798116,3.91867 -3.410433,7.34754 1.132812,10.03125 3.725427,2.20067 3.7388,3.14158 0.0957,6.58008 -1.594038,1.50452 -3.392624,4.1517 -3.996093,5.88281 -1.026179,2.94373 -0.856891,3.37315 2.603515,6.63672 l 3.699219,3.49024 -2.878906,2.47461 c -3.746457,3.22255 -4.278441,7.11457 -3.388672,24.77343 0.777449,15.42988 2.987287,76.97454 5.421875,151 0.868259,26.3999 1.886599,54.44323 2.261719,62.31836 0.614569,12.90225 0.507382,14.47473 -1.072266,15.9043 -2.400258,2.1722 -2.19942,3.90209 0.748047,6.46484 3.160077,2.74768 3.131916,3.5438 -0.25,7.07227 -2.500268,2.60858 -2.78082,3.66722 -3.09375,11.66211 -0.33844,8.64632 -0.292163,8.85401 2.802734,12.3789 3.953676,4.503 5.041016,8.27282 5.041016,17.48243 v 7.29687 l 8.250001,-0.28906 8.25,-0.29102 0.29883,-6.3164 c 0.1647,-3.47427 0.6147,-6.17156 1,-5.99414 2.35112,-10.26369 -0.13689,-8.44719 5.46289,-14.4043 1.55852,-7.1506 1.06669,-18.02557 -3.36523,-23.24805 l -3.00196,-3.42187 2.55274,-1.67188 c 2.84085,-1.8614 3.40947,-5.77328 1.21679,-8.36523 -1.02431,-1.21084 -1.15992,-3.55893 -0.58007,-10.07813 0.41581,-4.67495 0.78967,-16.82505 0.83007,-27 0.0404,-10.17495 0.75285,-40.5501 1.58204,-67.5 4.5868,-149.07871 4.58088,-148.73658 2.04492,-154.71093 -0.39967,-0.94157 -1.58363,-1.98536 -2.63281,-2.31836 -2.41568,-0.76671 -2.3991,-1.59869 0.0918,-4.47071 2.78629,-3.21257 2.5013,-5.65104 -1.07617,-9.22851 l -3.07422,-3.07617 2.57422,-2.38868 c 3.08947,-2.86471 3.28662,-6.13434 0.57617,-9.58007 -2.54936,-3.24099 -2.53472,-3.3622 0.75,-6.19532 2.64279,-2.27939 2.7525,-2.75433 2.8125,-12.20117 0.12275,-19.31372 0.12521,-19.33008 2.9375,-19.33008 1.375,0 3.4243,0.92435 4.55469,2.05469 l 2.05469,2.05664 -3.05469,3.47852 c -3.863,4.39961 -3.85282,6.64095 0.0449,9.6914 l 3.10156,2.42774 -2.70898,2.70898 -2.71094,2.70899 0.68555,38.18554 c 0.37696,21.00256 1.04009,75.53351 1.47265,121.17774 0.71,74.91802 0.63336,83.10196 -0.7871,84.14062 -1.62182,1.18591 -1.07751,3.23026 1.98632,7.46289 0.91916,1.26981 0.66751,2.25084 -1.24218,4.83399 -2.08674,2.82257 -2.38985,4.30313 -2.33985,11.47656 0.0476,6.82391 0.45805,8.88427 2.39453,12.01758 1.87578,3.03507 2.43557,5.63751 2.83008,13.17969 l 0.49024,9.39843 h 6.73828 6.73828 l 0.44531,-8.48437 c 0.3975,-7.57314 0.78877,-8.96201 3.62695,-12.91406 2.97291,-4.13971 3.17969,-4.97824 3.17969,-12.875 0,-7.32784 -0.32758,-8.9287 -2.46484,-12.07813 l -2.46289,-3.63086 2.50195,-2.50195 c 2.02069,-2.02074 2.30213,-2.87768 1.45899,-4.45313 -0.57428,-1.07304 -1.49868,-2.23254 -2.05469,-2.57617 -0.55601,-0.34364 -0.7885,-0.98621 -0.51563,-1.42773 0.48282,-0.78121 0.86712,-13.81043 4.06446,-138.0586 0.84213,-32.7248 1.96209,-66.92505 2.48828,-76 1.43983,-24.83222 1.40987,-25.34069 -1.70703,-29.04492 l -2.69336,-3.19922 2.69336,-1.96093 c 3.49138,-2.5433 3.57069,-6.62021 0.1914,-9.79493 -3.09863,-2.91096 -3.12686,-4.06215 -0.16601,-6.84375 l 2.33398,-2.19336 c 83.69479,4.61761 177.52025,-4.79038 252.34766,1.83008 2.52663,0.28376 3.21566,0.99152 4.24804,2.36914 3.3289,4.44212 1.83325,7.18615 -5.52734,10.13282 -28.11573,5.81431 -56.76812,6.08008 -81.1543,8.69531 -23.24691,2.47864 -42.24205,5.45044 -48.96875,7.6582 -9.82831,3.22575 -15.96349,11.49997 -19.76953,26.66797 -2.6717,10.6473 -2.12982,23.87203 1.5918,38.91406 1.99739,8.07323 2.39565,11.21636 1.60937,12.68555 -0.57484,1.07409 -1.06087,6.14392 -1.08007,11.26758 -0.0192,5.12361 -0.69855,12.91645 -1.50977,17.3164 -1.84147,9.98802 -10.03181,67.58132 -11.5,80.86524 -0.82792,7.49066 -1.79431,11.22064 -4.01172,15.5 -2.134,4.11832 -3.18223,8.02156 -3.89844,14.49804 -0.77537,7.01154 -1.59156,9.83091 -3.9082,13.5 -1.61051,2.55071 -5.52667,10.16727 -8.70117,16.92579 l -5.77149,12.2871 2.22266,1.55665 c 1.22245,0.85619 3.39967,2.56954 4.83789,3.80664 l 2.61524,2.25 -2.8379,3.71679 c -1.55988,2.04511 -3.86493,5.94079 -5.12304,8.65625 -1.26915,2.73942 -2.96156,4.9375 -3.80274,4.9375 -0.83383,0 -2.51447,1.35 -3.73437,3 -1.21986,1.65 -3.00543,3 -3.9668,3 -0.97719,0 -2.68088,1.65362 -3.86328,3.75 -1.40579,2.4925 -4.81747,5.51054 -10.17383,9 -5.94814,7.58389 -11.0962,11.32269 -24.08398,16.94922 -30.73834,14.02303 -39.89258,-6.53491 -39.89258,34.97071 7.11721,2.37079 12.21134,3.54961 23.13867,4.41406 7.42495,0.58738 17.32501,1.42109 22,1.85351 56.69089,3.01748 135.58669,7.43499 116.85156,-24.41992 l 3.26758,-3.72461 -0.65234,-13.14648 c -0.35959,-7.23073 -1.0592,-14.76149 -1.55469,-16.73438 -0.91916,-3.6598 -3.95213,-5.91211 -7.95898,-5.91211 -1.79061,0 -1.95313,-0.7374 -1.95313,-8.87695 0,-5.90175 0.419,-9.21381 1.25,-9.87891 0.6875,-0.55025 0.14458,-0.17748 8.39453,-0.4707 14.25198,-0.50655 25.62759,-2.44389 27.94727,-4.75977 1.14952,-1.14756 -2.89272,-18.82652 -5.47656,-23.95117 -2.49018,-4.93883 -6.5176,-9 -8.92383,-9 -1.12625,0 -2.04582,-0.3375 -2.04492,-0.75 0.008,-3.7465 12.15871,-41.66801 12.91992,-44.52343 0.54421,-2.04135 2.04581,-5.99078 3.33594,-8.7754 l 2.3457,-5.0625 12.3125,21.77344 c 6.7721,11.97592 16.95467,31.65209 22.62695,43.72461 5.67225,12.07252 10.74174,22.38041 11.26758,22.90625 1.07472,1.07472 9.28224,-2.27258 20.74805,-8.46484 3.96158,-2.13952 7.63692,-3.89063 8.16797,-3.89063 1.64191,0 5.3437,6.84948 4.44921,8.23243 -0.45116,0.69748 -0.91739,2.84262 -1.03515,4.76757 -0.73019,11.93683 -1.18122,14.26107 -3.18555,16.39453 -1.15489,1.22932 -2.09961,3.04591 -2.09961,4.03711 0,1.33271 -0.54271,1.65986 -2.08008,1.25782 -1.58059,-0.41332 -1.93611,-0.17133 -1.48437,1.00586 0.74397,1.93883 -3.34782,10.70862 -7.67774,16.45507 -1.80292,2.39278 -4.0599,5.56946 -5.01562,7.06055 -0.95576,1.49109 -4.41769,4.53137 -7.69336,6.75586 -9.0863,6.17037 -13.04883,12.62289 -13.04883,21.24805 0,8.56763 3.99177,10.78515 19.41797,10.78515 23.97522,0.98634 27.90559,-9.93098 44.91211,-17.50976 15.93993,-8.05995 18.70392,-9.41728 27.58789,-16.40821 -0.25321,2.45573 -0.24096,4.94336 -0.37305,7.40625 -0.005,2.26397 -0.32466,4.66254 0.58594,6.80274 0.65046,1.27316 1.58923,2.34069 2.52149,3.41601 -1.67499,3.01259 -3.19167,5.91394 -5.18164,8.9668 -6.5379,10.03004 -6.32114,10.84999 2.83203,10.77539 2.89101,-0.0236 5.16082,-0.1692 7.14062,-0.76758 -5.4e-4,1.78334 0.0207,3.56639 0.0312,5.34961 5.36984,-0.18719 10.73966,-0.37599 16.10938,-0.5664 0.25192,-3.75443 0.15007,-7.55494 0.85351,-11.26368 0.0464,-0.46823 0.33382,-0.85071 0.51563,-1.23437 0.65205,-2.69029 0.95735,-5.42587 1.37304,-8.14844 0.40653,-2.42277 2.38527,-4.10278 3.92188,-5.85937 0.37786,-0.9065 0.41996,-2.00092 0.58594,-2.97656 0.43579,-3.77846 0.42639,-7.65463 -0.25196,-11.40235 1.24792,-2.53661 3.42343,-6.98454 3.72461,-7.58008 1.8056,-3.57024 6.74611,-4.85448 23.72657,-6.16601 21.85461,-2.96502 28.27376,-0.87756 63.46679,-0.72266 23.32699,0.54768 28.57346,0.90173 36.16016,2.44336 1.631,0.33142 2.82952,2.21803 4.88086,7.69141 1.49514,3.98921 6.04769,14.11258 10.11719,22.49414 8.214,16.91756 9.29368,18.01022 18.70312,18.92969 3.60804,0.35253 5.71699,0.0653 7.08203,-0.9629 1.89419,-1.42676 1.84802,-1.63912 -1.81055,-8.33593 -6.44524,-11.7978 -10.375,-20.58149 -14.04882,-31.4043 -3.45247,-10.17078 -3.49675,-10.49738 -1.69336,-12.30078 1.8034,-1.80339 1.98822,-1.61392 6.99804,7.14062 6.54592,11.43883 11.15119,15.73525 17.84766,16.65625 3.51742,0.48378 6.04181,0.23899 8.61914,-0.83789 2.0046,-0.83759 3.64453,-1.74176 3.64453,-2.00976 0,-0.268 -2.39559,-3.23579 -5.32422,-6.59375 -2.92861,-3.35802 -7.22218,-9.44004 -9.54101,-13.51563 -4.13674,-7.27075 -4.22287,-7.61206 -4.54688,-18.20703 -0.18163,-5.93891 -0.85212,-12.69891 -1.49023,-15.02148 -1.38321,-5.03484 -5.84014,-8.81731 -13.42969,-11.39649 -4.12711,-1.40252 -5.10897,-2.15413 -4.87109,-3.73047 0.16382,-1.08556 -0.20653,-2.28626 -0.82422,-2.66796 -0.75522,-0.46678 -0.38939,-1.47445 1.11719,-3.07813 1.94701,-2.07251 2.08426,-2.7259 1.05078,-4.99414 -0.65401,-1.43539 -2.06428,-2.83776 -3.13282,-3.11719 -2.20571,-0.57681 -2.28046,-0.78073 -4.51757,-12.08984 -2.84863,-14.40065 -8.60765,-29.05076 -12.21289,-31.06836 -1.64572,-0.92101 -1.64633,-1.06969 -0.008,-2.88086 2.28673,-2.5268 2.1861,-5.13987 -0.30273,-7.78906 -1.80746,-1.924 -1.86299,-2.30629 -0.5,-3.4375 2.30549,-1.91339 1.86577,-3.65393 -1.5332,-6.07422 l -3.06641,-2.1836 2.06641,-2.19921 c 2.83287,-3.01546 2.62136,-4.04481 -1.47071,-7.16602 l -3.53711,-2.69727 2.03711,-2.16796 c 2.6733,-2.8456 2.59666,-3.36734 -1.0625,-7.14258 -2.98868,-3.08355 -3.02462,-3.22265 -1,-3.86524 3.57734,-1.1354 2.76571,-5.80263 -1.61914,-9.32031 -5.50797,-4.41861 -3.74609,-5.75518 8.71289,-6.61328 38.68591,-2.66446 58.75467,-13.88557 51.86719,-29.00195 -1.36899,-3.00461 -6.70956,-5.71223 -12.57227,-6.37305 -2.35958,-0.26596 -4.28906,-0.79045 -4.28906,-1.16602 0,-0.37557 1.31156,-1.93935 2.91602,-3.47656 2.91604,-2.79375 2.91936,-2.79459 7.75,-1.25781 10.04653,3.19611 10.32023,3.15646 16.08398,-2.3125 6.59931,-6.26182 6.90977,-9.16784 1.60547,-15.03906 -2.65427,-2.93797 -5.24534,-8.16973 -9.5332,-19.25196 -7.31028,-18.8939 -9.03845,-25.36994 -8.25196,-30.93164 1.23394,-8.7257 3.57034,-13.86976 9.13086,-20.10156 8.77778,-9.83743 8.73203,-9.66923 7.69532,-28.16992 -1.92093,-34.28035 -1.25911,-47.26337 4.55859,-89.51563 4.29126,-31.16648 5.63584,-38.78572 7.0625,-40 1.34798,-1.14735 2.3859,-5.84944 4.41211,-20 1.45692,-10.17495 3.50412,-22.1 4.54883,-26.5 1.68516,-7.09732 1.73452,-8.25386 0.4375,-10.25 -2.27258,-3.49757 -6.92473,-2.72381 -12.13477,2.01953 -2.60285,2.36971 -2.13759,3.73047 1.27735,3.73047 4.56997,0 2.4591,1.91056 -4.35352,3.93946 -7.35517,2.19042 -10.57214,4.83692 -14.04883,11.56054 -1.66476,3.2195 -2.07768,3.55944 -2.11328,1.73828 -0.0243,-1.24441 0.81398,-5.3552 1.86133,-9.13476 l 1.9043,-6.87305 -3.6543,-0.60351 c -2.00985,-0.33237 -4.92271,-0.60924 -6.47266,-0.61524 l -2.81836,-0.0117 2.19141,-3.07812 c 3.22156,-4.52432 5.84101,-5.40941 10.38281,-3.51172 4.3849,1.83214 6.0137,1.30287 4.5293,-1.4707 -1.21381,-2.26809 -4.46336,-2.4679 -13.40625,-0.82618 -9.90305,1.81804 -14.36956,3.7689 -17.24219,7.53516 -2.51001,3.2908 -2.71436,4.45317 -3.95312,22.45899 -0.71848,10.44337 -1.55847,19.39689 -1.86719,19.89648 -0.74334,1.20274 3.1881,3.62926 7.25195,4.47656 3.93976,0.82144 4.1461,2.66514 0.75,6.70117 -3.03357,3.60519 -3.10657,5.10305 -0.45312,9.39649 l 2.04883,3.3125 -2.54883,1.66992 c -2.74457,1.79835 -3.34242,5.19701 -1.29688,7.36523 1.0005,1.06049 0.99585,1.41662 -0.0215,1.78907 -0.69907,0.25594 -1.88319,1.66219 -2.63086,3.125 -1.92466,3.76562 -3.91614,16.65446 -3.17969,20.58008 0.42332,2.25648 0.17193,3.67642 -0.79687,4.48046 -1.10461,0.91675 -1.18537,1.7954 -0.36133,3.97852 0.88553,2.34604 0.73296,3.12836 -0.93946,4.80078 -2.91254,2.91255 -5.99176,18.22608 -4.58593,22.80664 0.84363,2.74879 0.76142,3.68684 -0.4043,4.6543 -0.93266,0.77402 -1.23736,2.09779 -0.84375,3.66601 0.43949,1.75105 -0.0196,3.1324 -1.60352,4.81836 -1.83457,1.95282 -2.75874,5.70657 -5.32031,21.61133 l -3.09961,19.24805 -2.42383,-3.92188 c -1.333,-2.15679 -4.52643,-6.44586 -7.0957,-9.5332 -4.60795,-5.53697 -4.67743,-5.72967 -5.13476,-14.07227 -0.32466,-5.92216 -1.09379,-9.67865 -2.56641,-12.53125 -1.34386,-2.60308 -2.04127,-5.67317 -1.93164,-8.50585 0.12351,-3.19225 -0.45896,-5.3179 -2.07813,-7.5918 -3.24092,-4.55147 -4.66764,-13.00948 -8.75,-51.82813 -1.76532,-16.78634 -6.29562,-42.56539 -12.47656,-71 -7.46714,-34.35143 -12.36489,-45.62971 -28.43945,-65.5 -12.27141,-15.16913 -20.49569,-22.93951 -28.10156,-26.54883 -7.00129,-3.32237 -12.62894,-8.39526 -19.85547,-17.89648 -2.75724,-3.62521 -3.10294,-3.7767 -7.5,-3.29687 -7.37157,0.80437 -9.94761,-1.37345 -4.05469,-3.42774 2.87624,-1.00267 2.94416,-1.14262 1.16797,-2.38672 -3.44679,-2.41425 -6.87352,-2.71861 -9.70508,-0.86328 l -2.66992,1.75 0.64258,-3.43164 c 0.54273,-2.893 0.11514,-4.13817 -2.72852,-7.91601 -1.85571,-2.46535 -4.39906,-6.169934 -5.65039,-8.232424 -1.29214,-2.129685 -2.35099,-3.274463 -3.66797,-3.533203 -1.31698,-0.25874 -2.89211,0.368558 -5.21875,1.787109 -0.39874,0.243109 -0.43929,0.22547 -0.80859,0.441407 -3.01923,1.257796 -3.40461,-0.649245 -4.20508,-6.330078 -0.97261,-6.901154 -0.5621,-13.88365 2.28906,-38.986329 0.93888,-8.265735 0.63525,-10.724976 -3.24219,-26.396484 C 448.59907,6.6385553 447.57026,3.8443316 444.19922,-0.34570312 438.79993,-7.0566389 431.35305,-11.894421 423.73633,-13.636719 c -3.5719,-0.817072 -6.55411,-1.729071 -6.62891,-2.029297 -0.0748,-0.300212 1.67595,-0.701398 3.89063,-0.890625 3.73516,-0.319129 3.64874,-0.389967 -1.19336,-0.980468 -2.87087,-0.350149 -6.39781,-0.352083 -7.83594,-0.0039 -3.39505,0.821022 -5.05836,-0.877327 -3.67578,-3.75 0.97537,-2.026525 0.55829,-2.084695 -3.81641,-0.541015 -4.39774,1.551791 -4.89823,1.477093 -4.75976,-0.710938 0.10812,-1.709024 -0.2111,-2.066073 -1.06446,-1.191406 -0.67132,0.688044 -0.61661,-0.478796 0.1211,-2.591797 0.8283,-2.372498 1.13382,-3.27094 0.73828,-3.15039 z M 280.99219,252.125 c 0.34724,0.0146 0.64636,0.10728 0.8125,0.27344 0.33229,0.33229 -0.25834,0.56879 -1.3125,0.52539 -1.16495,-0.048 -1.40125,-0.28625 -0.60352,-0.60547 0.36093,-0.14446 0.75629,-0.20795 1.10352,-0.19336 z m 2.83398,1.21484 c 0.6875,-0.27741 1.8125,-0.27741 2.5,0 0.6875,0.27741 0.125,0.50391 -1.25,0.50391 -1.375,0 -1.9375,-0.2265 -1.25,-0.50391 z m 21.70117,1.71289 c -0.28372,0.11157 -0.45117,0.35869 -0.45117,0.75586 0,1.15534 4.7345,7.46471 6.71094,8.94336 0.91891,0.6875 2.0469,1.25 2.50586,1.25 1.12107,0 -1.93975,-5.94144 -4.50781,-8.75 -1.51413,-1.65593 -3.40666,-2.5339 -4.25782,-2.19922 z m -29.95117,4.81446 c 8.09349,-0.33611 14.19633,1.21602 15.95313,4.05859 1.13936,1.84355 -1.01206,1.85526 -4.45313,0.0234 -1.92478,-1.02456 -5.525,-1.88842 -8,-1.91992 -6.04662,-0.0769 -9.04909,-1.93166 -3.5,-2.16211 z m -46.68555,3.32031 c 3.42629,-0.4058 6.38648,0.7971 11.69532,4.21289 7.67233,4.93645 9.23166,7.9884 4.92187,9.62695 -4.4297,1.68417 -8.75421,1.05789 -14.18164,-2.05468 -2.8875,-1.65597 -5.25,-3.29311 -5.25,-3.63868 0,-0.74343 15.60461,0.24977 18.5,1.17774 1.75255,0.56169 1.78911,0.50563 0.30078,-0.45508 -1.41651,-0.91435 -16.84557,-2.9391 -23.08593,-3.0293 -2.83983,-0.041 -0.37095,-3.60112 3.4121,-4.91992 1.34993,-0.47059 2.54542,-0.78465 3.6875,-0.91992 z m 428.18555,10.89648 4.25,1.83204 c 5.03387,2.16956 5.12014,3.12518 1.44141,15.82617 -1.54605,5.33779 -2.04345,8.66547 -1.45508,9.71679 0.63841,1.14076 0.191,2.43403 -1.56055,4.51563 -1.74122,2.06933 -3.22966,6.3499 -5.12109,14.72266 -1.46671,6.49244 -3.52153,14.27973 -4.56445,17.30468 -1.04293,3.025 -2.64185,9.32505 -3.55274,14 -0.91088,4.675 -2.08415,9.30878 -2.60742,10.29688 -0.52328,0.98809 -1.26701,3.65323 -1.6543,5.92187 -0.3873,2.26868 -1.32873,4.33159 -2.09179,4.58594 -1.05683,0.35228 -1.20069,-0.10402 -0.60352,-1.91992 0.43117,-1.31113 0.84382,-3.7861 0.91602,-5.49805 0.0722,-1.71196 0.64326,-3.73696 1.26953,-4.5 2.74943,-3.34989 6.15455,-24.19302 4.31445,-26.41015 -0.92271,-1.1118 -0.72316,-1.98984 0.93945,-4.10352 4.03384,-5.12814 7.12424,-20.43768 5.10743,-25.30664 -1.05663,-2.55094 -0.92585,-3.28437 1.07031,-5.98438 2.18958,-2.96152 2.21309,-3.20608 0.63672,-6.51171 -1.58498,-3.32373 -1.55798,-3.55091 0.81445,-7.04688 1.56917,-2.31236 2.45117,-5.02158 2.45117,-7.52734 z m -507.63086,8.71875 c 5.86992,0 7.78609,1.03819 7.43946,4.03516 -0.35722,3.08852 -2.71271,3.58637 -9.5586,2.01953 -6.50868,-1.48966 -4.91111,-6.05469 2.11914,-6.05469 z m 213.14453,6.55469 c 0.92666,-0.35559 2.35305,0.0835 3.27735,1.00781 1.51566,1.51565 1.44122,1.63672 -1.01758,1.63672 -3.12832,0 -4.6156,-1.74051 -2.25977,-2.64453 z M 99.675781,311.08398 c -15.327664,0.0728 -16.788816,0.22371 -14.099609,1.45508 3.421196,1.56656 44.977658,2.11632 45.910158,0.60742 0.79369,-1.28416 -12.61961,-2.1537 -31.810549,-2.0625 z m 348.400389,210.99024 0.74219,0.006 c 0.0535,1.40493 0.10521,2.80989 0.1582,4.21484 -4.52187,2.48991 -6.10156,4.83666 -6.10156,9.1836 0,4.77104 2.26151,8.8309 6.89648,12.24218 0.93725,26.00519 1.83556,52.01225 2.7129,78.01953 0.27542,8.17437 0.54929,16.34891 0.82226,24.52344 -2.35488,-2.59989 -4.72519,-4.87888 -5.75781,-5.27148 -2.02176,-0.76868 -2.28226,-1.38787 -1.8086,-4.30664 0.68366,-4.21289 -0.74916,-7.03499 -4.76171,-9.38086 -3.04604,-1.78081 -9.4792,-11.99156 -30.4375,-48.30274 -4.28557,-7.42495 -9.51907,-16.06299 -11.62891,-19.19531 -4.94639,-7.34337 -4.8967,-8.4575 0.41406,-9.31641 5.9744,-0.9662 12.38271,-3.93388 13.66406,-6.32812 0.59703,-1.11557 1.08594,-5.32466 1.08594,-9.35352 0,-6.25987 0.29203,-7.5088 2.01367,-8.58398 1.4383,-0.89851 1.84999,-1.91904 1.43555,-3.57031 -0.56715,-2.25972 -0.33565,-2.33939 10.23438,-3.48438 5.94862,-0.64439 15.09141,-1.1372 20.3164,-1.0957 z m 35.35547,36.25195 c 2.1655,0.32385 4.44164,0.62396 6.78906,0.90821 0.22101,21.44078 0.49966,42.88104 0.65235,64.32226 0.0156,5.22847 0.0592,10.45663 0.0605,15.68555 -0.90814,3.46089 -1.82212,7.34406 -2.78125,12.25976 -1.18043,6.05 -2.36445,12.0125 -2.63086,13.25 -0.26642,1.2375 -1.08127,2.25 -1.81054,2.25 -1.17289,0 -2.55793,1.23161 -3.42188,2.5586 0.009,-0.38407 0.008,-0.7683 0.0176,-1.15235 0.75021,-36.70209 2.0448,-73.38887 3.125,-110.08203 z m 93.03516,3.83203 c 3.12911,-0.0169 5.15995,0.0604 5.33593,0.23633 0.35197,0.35198 0.10787,1.17338 -0.54296,1.82422 -1.66801,1.66801 -1.47194,3.80922 0.55664,6.05078 1.66323,1.83785 1.64081,2.00475 -0.5,3.73828 -2.93934,2.38017 -2.83433,4.73927 0.32031,7.22071 l 2.56055,2.01562 -2.06055,2.19336 c -2.65372,2.82476 -2.59566,3.71435 0.42773,6.55469 2.45342,2.30487 2.46052,2.35727 0.5,3.73047 -2.6956,1.88803 -2.50181,4.73071 0.48243,7.07812 2.44949,1.92678 2.45386,1.95837 0.5,3.72656 -2.7133,2.45549 -2.46876,4.93787 0.73632,7.45899 2.19474,1.72638 2.65972,2.83191 2.45118,5.82422 -0.14154,2.03073 1.06338,7.96689 2.67773,13.19336 1.61431,5.22642 3.6982,13.98366 4.63086,19.45898 0.9327,5.47538 2.39063,11.29638 3.23828,12.93555 1.21305,2.34577 1.29047,3.37823 0.36914,4.85351 -1.58965,2.54544 -0.54144,5.28234 2.98438,7.79297 1.61746,1.15174 2.9414,2.51842 2.9414,3.03711 0,0.57483 -11.14105,0.84088 -28.53125,0.68164 -22.89184,-0.20955 -28.80911,-0.53972 -29.93945,-1.66601 -1.21108,-1.20678 -1.06595,-1.67262 1.03125,-3.32227 2.59452,-2.04088 3.14144,-4.67106 1.3457,-6.4668 -0.74345,-0.74345 -1.04878,-9.67238 -0.95508,-27.91992 0.11259,-21.9356 0.40381,-27.12069 1.59375,-28.43555 1.88382,-2.08151 1.86636,-6.36445 -0.0312,-7.93945 -1.30059,-1.0794 -1.23831,-1.54789 0.5,-3.75781 2.51524,-3.1976 2.49016,-4.08867 -0.19531,-6.94727 l -2.17969,-2.32031 2.17969,-2.0332 c 2.79136,-2.60059 2.74293,-3.52715 -0.33203,-6.37696 l -2.51172,-2.33007 2.51172,-1.64649 c 3.11665,-2.04213 3.22564,-4.87335 0.26367,-6.88281 -1.96218,-1.33118 -2.08844,-1.79481 -0.98437,-3.63281 0.6963,-1.15919 0.99813,-3.17848 0.66992,-4.48633 l -0.59766,-2.37695 16.625,-0.73438 c 4.57161,-0.20163 8.79865,-0.31316 11.92774,-0.33008 z m -51.11133,83.16407 c 0.21986,-0.14421 0.44988,0.41982 0.875,1.56835 0.48638,1.31399 0.59986,3.90723 0.25195,5.76172 -0.396,2.11085 -0.16309,3.93748 0.62305,4.88477 0.69072,0.83226 1.07916,1.61993 0.86328,1.75 -0.21587,0.13007 -1.39506,1.07982 -2.62109,2.11133 -2.02823,1.70641 -2.28759,1.7268 -2.86328,0.22656 -0.348,-0.90687 -0.0953,-2.29565 0.56054,-3.08594 0.65589,-0.7903 1.0778,-2.69613 0.9375,-4.23633 -0.1403,-1.54015 0.10957,-4.37578 0.55469,-6.30078 0.38909,-1.68266 0.59854,-2.53547 0.81836,-2.67968 z m -0.4375,23.03125 c 0.99383,-0.28579 2.1582,0.66645 2.1582,2.20703 0,1.52001 -2.53458,2.00437 -3.375,0.64453 -0.27117,-0.43876 -0.12409,-1.39721 0.32813,-2.12891 0.2439,-0.39462 0.55743,-0.62739 0.88867,-0.72265 z m -44.67774,4.63086 c 0.55587,0.79859 1.23325,1.74317 2.03907,2.64062 1.68876,1.8808 1.75758,2.47679 0.60156,5.22656 l -1.30469,3.10352 -1.46875,-1.75586 c 0.0322,-3.07199 0.0795,-6.1433 0.13281,-9.21484 z m 40.84375,6.25781 c 3.02336,-0.31436 5.50179,1.12552 4.56055,2.64843 -0.37792,0.61149 -2.26834,1.11133 -4.20117,1.11133 -2.80672,0 -3.4467,-0.35235 -3.18164,-1.75 0.19231,-1.01427 1.37827,-1.85962 2.82226,-2.00976 z m 40.45313,13.18945 c 30.91492,1.41753 42.47478,3.29628 45.11914,7.33203 1.65988,2.53336 1.64436,2.67757 -0.42969,4.05469 -2.96334,1.96759 -2.69214,4.36966 0.84961,7.52539 5.77736,5.14763 3.75955,6.0863 -16.2832,7.57422 -20.4372,1.5172 -63.29147,1.1155 -83.81055,-0.38086 0.22215,-4.04865 0.33985,-8.1063 0.77149,-12.13867 0.15004,-1.54734 0.58791,-3.04998 1.23828,-4.45508 0.71664,-0.54558 1.52874,-1.16304 2.17383,-1.66992 0.86038,-0.67606 4.57797,-1.86064 8.26171,-2.63282 8.64283,-3.55795 8.0119,-4.84029 42.10938,-5.20898 z m 63.00977,5.98828 c 0.65395,-0.31779 2.60507,0.24192 5.48242,1.85938 2.66316,1.49704 5.30294,2.72265 5.86718,2.72265 0.56425,0 2.40856,-1.16495 4.09961,-2.58789 2.66825,-2.24518 3.15959,-2.37069 3.70508,-0.94922 0.8291,2.16061 -2.78616,5.9783 -9.125,9.63477 -5.51683,3.18229 -10.8762,4.25499 -6.72265,1.3457 3.17794,-2.22592 2.79515,-5.48863 -1.01172,-8.61719 -2.30597,-1.89507 -2.94888,-3.0904 -2.29492,-3.4082 z m -131.14844,13.50977 c 0.0764,1.57285 0.15279,3.14576 0.24218,4.71679 -1.35386,-0.73527 -1.46836,-1.77024 -0.65624,-3.90625 0.11614,-0.30549 0.28322,-0.52818 0.41406,-0.81054 z" /><path
       id="path974"
       style="fill:#000000"
       d="m -482.46942,-29.476562 c -0.23734,0.07233 -0.7274,0.512705 -1.50977,1.220703 -1.16134,1.050939 -2.61103,2.946156 -3.2207,4.21289 -1.3917,2.891427 -3.3465,1.357239 -4.88672,-3.833984 -0.37501,-1.263625 -0.60166,-1.708681 -0.69336,-1.300781 -0.0906,0.417078 -0.0453,1.695252 0.12695,3.890625 0.26445,3.36963 0.93035,6.564905 1.48047,7.101562 0.55083,0.537507 0.28639,0.750231 -0.58789,0.470703 -0.87303,-0.27909 -1.82751,-1.410946 -2.125,-2.513672 -0.73798,-2.741435 -4.83015,-5.974837 -4.98828,-3.941406 -0.0894,1.150611 -1.86893,1.41274 -6.91992,1.025391 -7.44783,-0.571124 -9.76992,0.171297 -28.78125,9.166015 -12.30095,5.8199006 -31.82853,20.365428 -42.61719,31.746094 -3.39059,3.576695 -8.02845,8.209764 -10.30469,10.294922 -9.01924,8.262051 -10.68646,25.952874 -3.61133,38.322266 1.46668,2.564094 1.43422,1.994543 -0.14648,-2.494141 l -2.04688,-5.816406 5.32032,6.484375 c 2.92648,3.566651 6.736,6.838306 8.46484,7.271484 2.73806,0.685989 2.8967,0.606042 1.23633,-0.623047 -1.04835,-0.776093 -3.26167,-3.305746 -4.91992,-5.623047 -2.73165,-3.813563 -2.7891,-4.03435 -0.58008,-2.322265 2.01269,1.559366 2.77599,1.547545 4.33984,-0.07031 1.58495,-1.639782 2.28334,-1.607662 4.25586,0.195313 2.16241,1.976549 2.17441,1.569901 0.125,-4.837891 -2.14389,-6.702732 -2.13164,-6.882164 0.32617,-4.324219 1.57771,1.641917 4.32774,8.062798 7.14453,16.685547 3.76121,11.514207 5.2065,14.552913 8.09766,17.027344 5.7123,4.888681 6.76837,8.619719 5.9043,20.822267 -0.88951,12.56357 -0.40989,13.35172 7.57812,12.46289 4.41913,-0.49172 5.35154,-0.12422 6.64453,2.61132 0.827,1.74969 2.69654,3.82033 4.15625,4.60157 1.45971,0.78124 2.55042,2.27436 2.42188,3.32031 -0.12841,1.04594 1.15603,2.80893 2.85547,3.91602 1.69935,1.10712 3.97628,3.96655 5.0625,6.35546 4.36064,9.59034 14.61525,12.53346 25.34765,7.27735 9.81305,-4.80584 12.28495,-4.95221 15.59571,-0.9336 -11.65667,18.37306 -13.68947,22.48334 -14.36133,29.04102 -0.37464,3.6567 -0.94861,7.98521 -1.27539,9.61914 -0.36908,1.84538 -0.17923,2.9707 0.5,2.9707 1.15852,0 8.14272,-8.72307 11.88867,-14.84765 2.1782,-3.56133 2.234,-3.58646 2.25,-0.98438 0.0245,3.97119 1.01139,5.83203 3.08984,5.83203 2.79509,0 3.94292,3.01007 2.88672,7.56446 -0.50187,2.16404 -0.95406,6.18558 -1.00586,8.93554 -0.0518,2.75 -0.44796,5.9 -0.88086,7 -0.62448,1.58679 -1.02313,0.90555 -1.92968,-3.29883 -0.62844,-2.91453 -1.14258,-6.17707 -1.14258,-7.25 0,-1.07289 -0.36941,-1.95117 -0.82031,-1.95117 -0.89815,0 -2.77115,11.34537 -3.75782,22.76172 -0.39406,4.5596 -2.10799,11.44434 -4.60547,18.5 -6.77552,19.14181 -7.01334,20.28822 -6.46875,31.23828 0.43909,8.82871 0.27193,10.27706 -1.42578,12.36133 -1.05762,1.29844 -1.92187,3.4098 -1.92187,4.69141 0,1.28161 -0.46276,2.61396 -1.02735,2.96289 -0.56459,0.34893 -0.90209,1.38955 -0.75,2.31054 0.20837,1.26186 -0.40043,1.62819 -2.47265,1.48633 -2.06741,-0.14154 -2.75,0.26585 -2.75,1.64258 0,1.0072 -0.675,2.08966 -1.5,2.40625 -0.91371,0.35062 -1.5,0.002 -1.5,-0.89258 0,-0.80774 -1.8,-3.26875 -4,-5.46875 -3.59244,-3.5924 -4.50589,-4 -8.96485,-4 -3.8679,0 -5.19175,-0.4221 -5.99023,-1.91406 -1.20685,-2.25504 -13.16129,-6.52124 -15.77344,-5.62891 -0.97446,0.3329 -3.12148,1.75987 -4.77148,3.17188 l -3,2.56836 8.5,-0.57617 c 10.37451,-0.70311 13.3518,0.40776 13.8125,5.15234 0.36211,3.72925 -0.88836,4.25391 -2.32617,0.97656 -0.95829,-2.18422 -1.35161,-2.24206 -13.48633,-1.96289 -9.82484,0.22603 -12.89542,-0.0274 -14.34961,-1.18359 -2.28924,-1.82017 -1.34518,-3.60352 1.9082,-3.60352 1.34254,0 2.44141,-0.37221 2.44141,-0.82617 0,-0.45397 -2.88223,-3.16192 -6.4043,-6.01953 -3.52207,-2.85762 -8.98962,-8.35733 -12.15039,-12.2207 -3.16078,-3.8634 -6.60658,-7.48317 -7.65625,-8.04493 -1.80727,-0.96718 -17.74049,-3.1821 -22.51367,-3.1289 -1.23929,0.0138 -3.38102,1.40142 -4.83789,3.13281 -1.43808,1.70906 -3.48062,3.10742 -4.53711,3.10742 -1.05649,0 -2.70304,0.97538 -3.66016,2.16797 -0.95711,1.19259 -3.20273,3.68249 -4.99023,5.5332 -2.2824,2.36315 -3.25493,4.32305 -3.26563,6.58204 -0.0251,5.28294 -1.38589,6.36629 -3.77734,3.00781 -2.47035,-3.46929 -10.51935,-8.03098 -16.42969,-9.3125 l -4.27734,-0.92774 4.96679,0.48438 c 3.04805,0.29795 6.52493,1.51445 9,3.14648 2.70585,1.78421 3.53955,2.05683 2.53321,0.83008 -2.01881,-2.46096 -8.81882,-5.46313 -12.43555,-5.49023 -3.96523,-0.0297 -11.03416,3.51814 -13.00586,6.52734 l -1.60547,2.45117 -25.72656,-0.15429 c -22.75299,-0.13596 -24.24258,-0.23635 -12.89062,-0.8711 9.45714,-0.52881 13.23799,-1.12081 14.36718,-2.25 0.84293,-0.84293 1.26993,-1.96034 0.94727,-2.48242 -0.85377,-1.38143 -13.83777,-2.1535 -25.44922,-1.51367 l -10.0625,0.55469 1.50586,2.29882 c 0.82844,1.26435 2.48592,2.49811 3.68164,2.74219 1.19572,0.24406 -0.75121,0.23826 -4.32617,-0.0137 -6.21075,-0.43758 -6.39987,-0.38604 -4.25,1.17188 1.84833,1.33938 2.25,2.58307 2.25,6.96484 v 5.33398 l -7.59961,0.38477 c -6.05011,0.30552 -7.88405,0.77268 -9,2.29883 -2.05339,2.80814 -1.72475,5.45826 1.19531,9.67187 1.42742,2.05977 2.29933,4.22239 1.93945,4.80469 -0.42024,0.67997 -7.16054,1.07065 -18.84375,1.09375 -17.81763,0.0352 -18.25296,0.0875 -21.1914,2.49609 l -3,2.45899 19.80078,0.004 19.80273,0.006 1.05274,3.02149 c 1.7698,5.07679 3.35736,5.39155 29.34375,5.82226 13.19992,0.21878 23.1,0.73738 22,1.15235 -1.1,0.41497 -18.87508,1.03745 -39.5,1.38476 -20.62492,0.34731 -49.98758,0.90758 -65.24999,1.24414 l -27.75,0.61133 v 4.38281 4.38086 h 11.39453 11.39258 l -0.20117,46.25 c -0.11114,25.43742 0.18447,47.42464 0.65625,48.86133 0.47178,1.43669 1.95901,3.1145 3.30664,3.72852 3.23317,1.47315 3.09121,2.90447 -0.67578,6.79101 -3.79812,3.91867 -3.41044,7.34753 1.13281,10.03125 3.72543,2.20067 3.7388,3.14158 0.0957,6.58008 -1.59404,1.50452 -3.39262,4.1517 -3.99609,5.88281 -1.02618,2.94373 -0.8569,3.37314 2.60351,6.63672 l 3.69922,3.49024 -2.87891,2.47461 c -3.74646,3.22256 -4.27844,7.11455 -3.38867,24.77343 0.77745,15.42989 2.98729,76.97446 5.42188,151 0.86826,26.39992 1.8866,54.44322 2.26172,62.31836 0.61457,12.90226 0.50738,14.47473 -1.07227,15.9043 -2.40026,2.1722 -2.19942,3.90208 0.74805,6.46484 3.16008,2.74768 3.13192,3.5438 -0.25,7.07227 -2.50027,2.60858 -2.78082,3.66721 -3.09375,11.66211 -0.33844,8.64633 -0.29217,8.854 2.80273,12.3789 3.95368,4.503 5.04102,8.27281 5.04102,17.48243 v 7.29687 l 8.24999,-0.28906 8.25,-0.29102 0.29883,-6.3164 c 0.1647,-3.47427 0.6147,-6.17156 1,-5.99414 2.35112,-10.2637 -0.1369,-8.44718 5.46289,-14.4043 1.55852,-7.15061 1.06669,-18.02557 -3.36524,-23.24805 l -3.00195,-3.42187 2.55273,-1.67188 c 2.84086,-1.8614 3.40948,-5.77328 1.2168,-8.36523 -1.02432,-1.21084 -1.15993,-3.55893 -0.58008,-10.07813 0.41581,-4.67496 0.78968,-16.82504 0.83008,-27 0.0404,-10.17496 0.75284,-40.55008 1.58203,-67.5 4.58681,-149.07886 4.58089,-148.73657 2.04492,-154.71093 -0.39967,-0.94157 -1.58362,-1.98536 -2.63281,-2.31836 -2.41568,-0.76671 -2.39909,-1.59869 0.0918,-4.47071 2.78629,-3.21258 2.5013,-5.65103 -1.07617,-9.22851 l -3.07422,-3.07617 2.57422,-2.38868 c 3.08947,-2.86472 3.28662,-6.13433 0.57617,-9.58007 -2.54936,-3.24099 -2.53473,-3.3622 0.75,-6.19532 2.64279,-2.2794 2.7525,-2.75432 2.8125,-12.20117 0.12275,-19.31374 0.12521,-19.33008 2.9375,-19.33008 1.375,0 3.4243,0.92435 4.55469,2.05469 l 2.05468,2.05664 -3.05468,3.47852 c -3.863,4.39962 -3.85285,6.64094 0.0449,9.6914 l 3.10156,2.42774 -2.70898,2.70898 -2.71094,2.70899 0.68554,38.18554 c 0.37696,21.00258 1.04009,75.53347 1.47266,121.17774 0.71,74.9181 0.63336,83.10196 -0.78711,84.14062 -1.62182,1.18591 -1.07751,3.23025 1.98633,7.46289 0.91916,1.26981 0.66751,2.25084 -1.24219,4.83399 -2.08674,2.82258 -2.38984,4.30312 -2.33984,11.47656 0.0476,6.82392 0.45804,8.88427 2.39453,12.01758 1.87578,3.03507 2.43557,5.63751 2.83008,13.17969 l 0.49023,9.39843 h 6.73828 6.73829 l 0.44531,-8.48437 c 0.3975,-7.57315 0.78876,-8.962 3.62695,-12.91406 2.97291,-4.13971 3.17969,-4.97823 3.17969,-12.875 0,-7.32784 -0.32759,-8.9287 -2.46485,-12.07813 l -2.46289,-3.63086 2.50196,-2.50195 c 2.02069,-2.02074 2.30213,-2.87768 1.45898,-4.45313 -0.57428,-1.07304 -1.49868,-2.23254 -2.05469,-2.57617 -0.55601,-0.34364 -0.78849,-0.98621 -0.51562,-1.42773 0.48282,-0.78121 0.86711,-13.81031 4.06445,-138.0586 0.84214,-32.72484 1.96209,-66.92504 2.48828,-76 1.43983,-24.83225 1.40988,-25.34069 -1.70703,-29.04492 l -2.69336,-3.19922 2.69336,-1.96093 c 3.49139,-2.5433 3.5707,-6.62021 0.19141,-9.79493 -3.09863,-2.91097 -3.12687,-4.06215 -0.16602,-6.84375 l 2.33399,-2.19336 c 83.69487,4.61761 177.52017,-4.79039 252.34765,1.83008 2.52664,0.28376 3.21567,0.99152 4.24805,2.36914 3.3289,4.44212 1.83326,7.18615 -5.52734,10.13282 -28.11576,5.81432 -56.7681,6.08008 -81.1543,8.69531 -23.24694,2.47864 -42.24205,5.45044 -48.96875,7.6582 -9.82832,3.22575 -15.96349,11.49996 -19.76953,26.66797 -2.6717,10.64731 -2.12982,23.87201 1.5918,38.91406 1.99739,8.07324 2.39565,11.21636 1.60937,12.68555 -0.57484,1.07409 -1.06088,6.14392 -1.08008,11.26758 -0.0192,5.12362 -0.69854,12.91644 -1.50976,17.3164 -1.84147,9.98803 -10.03181,67.58131 -11.5,80.86524 -0.82792,7.49067 -1.79431,11.22064 -4.01172,15.5 -2.134,4.11833 -3.18223,8.02155 -3.89844,14.49804 -0.77537,7.01154 -1.59156,9.8309 -3.9082,13.5 -1.61051,2.55071 -5.52667,10.16727 -8.70117,16.92579 l -5.77149,12.2871 2.22266,1.55665 c 1.22245,0.8562 3.39967,2.56954 4.83789,3.80664 l 2.61523,2.25 -2.83789,3.71679 c -1.55989,2.04511 -3.86494,5.94078 -5.12305,8.65625 -1.26915,2.73942 -2.96155,4.9375 -3.80273,4.9375 -0.83383,0 -2.51448,1.35 -3.73438,3 -1.21986,1.65 -3.00542,3 -3.96679,3 -0.97719,0 -2.68088,1.65361 -3.86328,3.75 -1.40579,2.4925 -4.81747,5.51053 -10.17383,9 -5.94815,7.58389 -11.0962,11.32268 -24.08399,16.94922 -30.73837,14.02304 -39.89257,-6.53495 -39.89257,34.97071 7.11722,2.3708 12.21133,3.54961 23.13867,4.41406 7.42496,0.58738 17.325,1.42109 22,1.85351 56.69094,3.01748 135.5867,7.43502 116.85156,-24.41992 l 3.26758,-3.72461 -0.65235,-13.14648 c -0.35959,-7.23073 -1.05919,-14.76149 -1.55468,-16.73438 -0.91916,-3.65981 -3.95213,-5.91211 -7.95899,-5.91211 -1.79061,0 -1.95312,-0.73739 -1.95312,-8.87695 0,-5.90176 0.419,-9.21381 1.25,-9.87891 0.6875,-0.55025 0.14457,-0.17748 8.39453,-0.4707 14.25199,-0.50655 25.62758,-2.44389 27.94726,-4.75977 1.14952,-1.14757 -2.89271,-18.82652 -5.47656,-23.95117 -2.49018,-4.93884 -6.5176,-9 -8.92383,-9 -1.12625,0 -2.04582,-0.3375 -2.04492,-0.75 0.008,-3.74651 12.15871,-41.668 12.91992,-44.52343 0.54421,-2.04135 2.04581,-5.99078 3.33594,-8.7754 l 2.34571,-5.0625 12.3125,21.77344 c 6.77211,11.97593 16.95466,31.65208 22.62695,43.72461 5.67225,12.07253 10.74174,22.38041 11.26758,22.90625 1.07472,1.07472 9.28222,-2.27257 20.74804,-8.46484 3.96159,-2.13952 7.63692,-3.89063 8.16797,-3.89063 1.64192,0 5.34371,6.84948 4.44922,8.23243 -0.45116,0.69749 -0.9174,2.84261 -1.03516,4.76757 -0.73019,11.93684 -1.18121,14.26106 -3.18554,16.39453 -1.15489,1.22932 -2.09961,3.04591 -2.09961,4.03711 0,1.33271 -0.54271,1.65986 -2.08008,1.25782 -1.5806,-0.41332 -1.93611,-0.17133 -1.48437,1.00586 0.74397,1.93884 -3.34782,10.70861 -7.67774,16.45507 -1.80293,2.39278 -4.0599,5.56946 -5.01562,7.06055 -0.95576,1.49109 -4.41769,4.53137 -7.69336,6.75586 -9.08631,6.17038 -13.04883,12.62288 -13.04883,21.24805 0,8.56764 3.99175,10.78515 19.41797,10.78515 23.97524,0.98634 27.90557,-9.93097 44.91211,-17.50976 22.02387,-11.13626 18.60507,-9.1777 41.43945,-27.49024 1.04629,0 -3.918,14.26887 -8.27539,23.78907 -1.33158,2.90924 -4.94204,9.15753 -8.02344,13.88476 -6.5379,10.03005 -6.32115,10.84999 2.83203,10.77539 11.41582,-0.093 13.18206,-1.96681 25.40235,-26.94922 4.0355,-8.24996 7.90618,-16.125 8.60156,-17.5 1.8056,-3.57025 6.74609,-4.85448 23.72656,-6.16601 21.85464,-2.96502 28.27373,-0.87756 63.4668,-0.72266 23.32701,0.54768 28.57344,0.90173 36.16015,2.44336 1.631,0.33142 2.82952,2.21803 4.88086,7.69141 1.49514,3.98922 6.04769,14.11257 10.11719,22.49414 8.21401,16.91758 9.29368,18.01022 18.70313,18.92969 3.60804,0.35254 5.71699,0.0653 7.08203,-0.9629 1.89419,-1.42677 1.84802,-1.63911 -1.81055,-8.33593 -6.44525,-11.79781 -10.375,-20.58148 -14.04883,-31.4043 -3.45247,-10.17079 -3.49675,-10.49738 -1.69336,-12.30078 1.8034,-1.80339 1.98822,-1.61393 6.99805,7.14062 6.54592,11.43884 11.15118,15.73525 17.84766,16.65625 3.51742,0.48378 6.04181,0.23899 8.61914,-0.83789 2.0046,-0.83759 3.64453,-1.74176 3.64453,-2.00976 0,-0.268 -2.39559,-3.23578 -5.32422,-6.59375 -2.92862,-3.35802 -7.22219,-9.44004 -9.54102,-13.51563 -4.13674,-7.27076 -4.22286,-7.61205 -4.54687,-18.20703 -0.18163,-5.93892 -0.85213,-12.6989 -1.49024,-15.02148 -1.38321,-5.03484 -5.84012,-8.81731 -13.42968,-11.39649 -4.12711,-1.40252 -5.10898,-2.15413 -4.8711,-3.73047 0.16382,-1.08556 -0.20653,-2.28625 -0.82422,-2.66796 -0.75522,-0.46678 -0.38939,-1.47445 1.11719,-3.07813 1.94702,-2.07251 2.08426,-2.7259 1.05078,-4.99414 -0.65401,-1.43539 -2.06427,-2.83776 -3.13281,-3.11719 -2.20572,-0.57681 -2.28046,-0.78072 -4.51758,-12.08984 -2.84863,-14.40066 -8.60764,-29.05076 -12.21289,-31.06836 -1.64572,-0.92101 -1.64651,-1.06969 -0.008,-2.88086 2.28673,-2.5268 2.18609,-5.13986 -0.30274,-7.78906 -1.80746,-1.924 -1.86299,-2.30629 -0.5,-3.4375 2.30549,-1.91339 1.86578,-3.65393 -1.5332,-6.07422 l -3.0664,-2.1836 2.0664,-2.19921 c 2.83288,-3.01546 2.62137,-4.04481 -1.4707,-7.16602 l -3.53711,-2.69727 2.03711,-2.16796 c 2.6733,-2.8456 2.59666,-3.36733 -1.0625,-7.14258 -2.98869,-3.08355 -3.02462,-3.22265 -1,-3.86524 3.57734,-1.1354 2.76571,-5.80263 -1.61914,-9.32031 -5.50798,-4.41862 -3.7461,-5.75518 8.71289,-6.61328 38.68595,-2.66446 58.75468,-13.88555 51.86719,-29.00195 -1.36899,-3.00461 -6.70956,-5.71223 -12.57227,-6.37305 -2.35959,-0.26596 -4.28906,-0.79045 -4.28906,-1.16602 0,-0.37557 1.31155,-1.93935 2.91601,-3.47656 2.91605,-2.79375 2.91936,-2.79459 7.75,-1.25781 10.04654,3.19611 10.32023,3.15647 16.08399,-2.3125 6.59931,-6.26183 6.90977,-9.16783 1.60547,-15.03906 -2.65427,-2.93797 -5.24534,-8.16972 -9.53321,-19.25196 -7.31028,-18.89392 -9.03845,-25.36994 -8.25195,-30.93164 1.23394,-8.72571 3.57033,-13.86975 9.13086,-20.10156 8.77779,-9.83744 8.73202,-9.66921 7.69531,-28.16992 -1.92093,-34.28038 -1.25911,-47.26333 4.5586,-89.51563 4.29126,-31.16651 5.63584,-38.78572 7.0625,-40 1.34798,-1.14735 2.3859,-5.84943 4.41211,-20 1.45692,-10.17496 3.50411,-22.1 4.54882,-26.5 1.68516,-7.09733 1.73452,-8.25386 0.4375,-10.25 -2.27258,-3.49758 -6.92472,-2.72382 -12.13476,2.01953 -2.60285,2.36971 -2.1376,3.73047 1.27734,3.73047 4.56998,0 2.45912,1.91056 -4.35351,3.93946 -7.35518,2.19043 -10.57214,4.83691 -14.04883,11.56054 -1.66476,3.2195 -2.07768,3.55944 -2.11328,1.73828 -0.0243,-1.24442 0.81397,-5.35519 1.86132,-9.13476 l 1.9043,-6.87305 -3.6543,-0.60351 c -2.00985,-0.33237 -4.9227,-0.60924 -6.47265,-0.61524 l -2.81836,-0.0117 2.19141,-3.07812 c 3.22156,-4.52432 5.841,-5.40941 10.38281,-3.51172 4.3849,1.83214 6.01369,1.30288 4.52929,-1.4707 -1.21381,-2.26809 -4.46334,-2.46791 -13.40624,-0.82618 -9.90306,1.81804 -14.36956,3.7689 -17.24219,7.53516 -2.51001,3.2908 -2.71437,4.45316 -3.95313,22.45899 -0.71848,10.44339 -1.55846,19.39689 -1.86718,19.89648 -0.74334,1.20274 3.18809,3.62926 7.25195,4.47656 3.93976,0.82144 4.1461,2.66513 0.75,6.70117 -3.03357,3.60519 -3.10658,5.10305 -0.45313,9.39649 l 2.04883,3.3125 -2.54883,1.66992 c -2.74457,1.79835 -3.34241,5.197 -1.29687,7.36523 1.0005,1.06049 0.99583,1.41662 -0.0215,1.78907 -0.69907,0.25594 -1.88319,1.66219 -2.63086,3.125 -1.92466,3.76563 -3.91613,16.65446 -3.17968,20.58008 0.42332,2.25649 0.17193,3.67642 -0.79688,4.48046 -1.10461,0.91675 -1.18537,1.7954 -0.36133,3.97852 0.88553,2.34604 0.73297,3.12836 -0.93945,4.80078 -2.91255,2.91255 -5.99177,18.22607 -4.58594,22.80664 0.84363,2.74879 0.76143,3.68684 -0.40429,4.6543 -0.93266,0.77402 -1.23736,2.09778 -0.84375,3.66601 0.43949,1.75105 -0.0196,3.1324 -1.60352,4.81836 -1.83458,1.95282 -2.75874,5.70655 -5.32031,21.61133 l -3.09961,19.24805 -2.42383,-3.92188 c -1.33301,-2.1568 -4.52643,-6.44586 -7.0957,-9.5332 -4.60796,-5.53698 -4.67744,-5.72967 -5.13477,-14.07227 -0.32466,-5.92217 -1.09378,-9.67865 -2.5664,-12.53125 -1.34386,-2.60309 -2.04127,-5.67316 -1.93164,-8.50585 0.12351,-3.19225 -0.45896,-5.3179 -2.07813,-7.5918 -3.24093,-4.55147 -4.66764,-13.00944 -8.75,-51.82813 -1.76533,-16.78636 -6.29562,-42.56536 -12.47656,-71 -7.46715,-34.35147 -12.36488,-45.62969 -28.43946,-65.5 -12.27142,-15.16915 -20.49568,-22.93951 -28.10156,-26.54883 -7.00129,-3.32238 -12.62893,-8.39525 -19.85547,-17.89648 -2.75724,-3.62521 -3.10293,-3.7767 -7.5,-3.29687 -7.37157,0.80438 -9.94761,-1.37345 -4.05468,-3.42774 2.87624,-1.00267 2.94415,-1.14262 1.16796,-2.38672 -3.44679,-2.41425 -6.87351,-2.71861 -9.70507,-0.86328 l -2.66993,1.75 0.64258,-3.43164 c 0.54273,-2.893 0.11515,-4.13816 -2.72851,-7.91601 -1.85571,-2.46535 -4.39906,-6.169932 -5.65039,-8.232424 -1.29214,-2.129687 -2.35099,-3.274463 -3.66797,-3.533203 -1.31698,-0.25874 -2.89211,0.368556 -5.21875,1.787109 -0.39874,0.243109 -0.4393,0.22547 -0.8086,0.441407 -3.01923,1.257798 -3.4046,-0.649239 -4.20507,-6.330078 -0.97261,-6.90116 -0.5621,-13.883625 2.28906,-38.986329 0.93888,-8.265744 0.63525,-10.72496 -3.24219,-26.396484 -3.73492,-15.0958348 -4.76372,-17.8900392 -8.13476,-22.08007812 -5.39929,-6.71094248 -12.84617,-11.54871688 -20.4629,-13.29101588 -3.5719,-0.817073 -6.5541,-1.729071 -6.6289,-2.029297 -0.0748,-0.300213 1.67594,-0.701398 3.89062,-0.890625 3.73517,-0.31913 3.64875,-0.389966 -1.19336,-0.980468 -2.87087,-0.350149 -6.3978,-0.352077 -7.83593,-0.0039 -3.39505,0.821022 -5.05837,-0.877325 -3.67579,-3.75 0.97537,-2.026527 0.5583,-2.084696 -3.8164,-0.541015 -4.39775,1.551793 -4.89824,1.477095 -4.75977,-0.710938 0.10812,-1.709026 -0.21109,-2.066074 -1.06445,-1.191406 -0.67132,0.688045 -0.61662,-0.478794 0.12109,-2.591797 0.8283,-2.3725 1.13383,-3.27094 0.73829,-3.15039 z M -600.98896,252.125 c 0.34724,0.0146 0.64636,0.10728 0.8125,0.27344 0.33229,0.33229 -0.25834,0.56879 -1.3125,0.52539 -1.16495,-0.048 -1.40124,-0.28625 -0.60351,-0.60547 0.36093,-0.14446 0.75628,-0.20795 1.10351,-0.19336 z m 2.83399,1.21484 c 0.6875,-0.27741 1.8125,-0.27741 2.5,0 0.6875,0.27741 0.125,0.50391 -1.25,0.50391 -1.375,0 -1.9375,-0.2265 -1.25,-0.50391 z m 21.70117,1.71289 c -0.28372,0.11157 -0.45117,0.35869 -0.45117,0.75586 0,1.15534 4.7345,7.46471 6.71094,8.94336 0.91891,0.6875 2.04689,1.25 2.50585,1.25 1.12107,0 -1.93974,-5.94144 -4.50781,-8.75 -1.51413,-1.65593 -3.40665,-2.5339 -4.25781,-2.19922 z m -29.95117,4.81446 c 8.0935,-0.33611 14.19632,1.21602 15.95312,4.05859 1.13936,1.84355 -1.01205,1.85522 -4.45312,0.0234 -1.92478,-1.02456 -5.525,-1.88842 -8,-1.91992 -6.04663,-0.0769 -9.0491,-1.93166 -3.5,-2.16211 z m -46.68555,3.32031 c 3.42629,-0.4058 6.38647,0.7971 11.69531,4.21289 7.67234,4.93645 9.23167,7.98839 4.92188,9.62695 -4.42971,1.68417 -8.75421,1.0579 -14.18164,-2.05468 -2.8875,-1.65597 -5.25,-3.29311 -5.25,-3.63868 0,-0.74344 15.60461,0.24977 18.5,1.17774 1.75255,0.56169 1.78911,0.50563 0.30078,-0.45508 -1.41651,-0.91435 -16.84557,-2.9391 -23.08594,-3.0293 -2.83983,-0.041 -0.37095,-3.60112 3.41211,-4.91992 1.34993,-0.47059 2.54541,-0.78465 3.6875,-0.91992 z m 428.18555,10.89648 4.25,1.83204 c 5.03387,2.16957 5.12014,3.12517 1.4414,15.82617 -1.54605,5.3378 -2.04344,8.66546 -1.45507,9.71679 0.63841,1.14076 0.191,2.43403 -1.56055,4.51563 -1.74122,2.06933 -3.22966,6.3499 -5.12109,14.72266 -1.46671,6.49245 -3.52154,14.27972 -4.56446,17.30468 -1.04293,3.025 -2.64184,9.32504 -3.55273,14 -0.91088,4.675 -2.08415,9.30878 -2.60742,10.29688 -0.52328,0.98809 -1.26701,3.65322 -1.6543,5.92187 -0.3873,2.26868 -1.32874,4.33159 -2.0918,4.58594 -1.05683,0.35228 -1.20068,-0.10402 -0.60351,-1.91992 0.43117,-1.31113 0.84381,-3.7861 0.91601,-5.49805 0.0722,-1.71196 0.64326,-3.73696 1.26953,-4.5 2.74944,-3.3499 6.15456,-24.19301 4.31446,-26.41015 -0.92271,-1.1118 -0.72317,-1.98984 0.93945,-4.10352 4.03384,-5.12815 7.12424,-20.43767 5.10742,-25.30664 -1.05663,-2.55094 -0.92585,-3.28437 1.07031,-5.98438 2.18958,-2.96153 2.21309,-3.20607 0.63672,-6.51171 -1.58498,-3.32373 -1.55797,-3.55091 0.81446,-7.04688 1.56917,-2.31236 2.45117,-5.02157 2.45117,-7.52734 z m -507.63086,8.71875 c 5.86992,0 7.78608,1.03819 7.43945,4.03516 -0.35722,3.08852 -2.7127,3.58637 -9.55859,2.01953 -6.50869,-1.48966 -4.91112,-6.05469 2.11914,-6.05469 z m 213.14453,6.55469 c 0.92666,-0.35559 2.35304,0.0835 3.27734,1.00781 1.51566,1.51565 1.44123,1.63672 -1.01757,1.63672 -3.12832,0 -4.61561,-1.74051 -2.25977,-2.64453 z m -262.91405,21.72656 c -15.32768,0.0728 -16.78882,0.22371 -14.09961,1.45508 3.4212,1.56656 44.97764,2.11632 45.91014,0.60742 0.79369,-1.28417 -12.61958,-2.1537 -31.81053,-2.0625 z m 348.40038,210.99024 9.5,0.0762 -6.17188,2.84375 c -6.63215,3.05702 -8.52929,5.38822 -8.52929,10.48438 0,12.68736 15.94115,20.35205 50.20117,24.13671 8.52496,0.94175 15.95,2.1237 16.5,2.62696 0.64307,0.58843 -0.33845,2.04795 -2.75,4.08789 -4.47057,3.78162 -4.94879,7.16827 -1.25,8.85351 3.2386,1.47563 3.15371,2.42907 -0.37891,4.25586 -4.08811,2.11407 -4.57071,4.24152 -1.58789,7.00586 l 2.51563,2.33008 -3.52539,2.08008 c -3.99982,2.35995 -4.51027,4.94455 -1.51172,7.6582 2.00373,1.81338 1.99992,1.83257 -1.14844,4.46094 -3.11955,2.60431 -3.1395,2.67682 -1.43555,5.27734 1.66403,2.53962 1.65185,2.68368 -0.34961,3.9336 -2.62449,1.63903 -2.66815,4.97274 -0.0957,7.30078 1.96578,1.77901 1.95754,1.81942 -0.95508,5.13672 -3.41532,3.88984 -5.95118,11.50333 -8.95117,26.8789 -1.18043,6.05 -2.36445,12.0125 -2.63086,13.25 -0.26642,1.2375 -1.08128,2.25 -1.81055,2.25 -2.03259,0 -4.93629,3.68883 -4.08398,5.1875 0.41071,0.72215 1.60403,2.26803 2.65234,3.43555 1.68876,1.8808 1.75759,2.47678 0.60157,5.22656 l -1.30469,3.10352 -10.65235,-12.72656 c -5.85887,-6.99949 -12.98449,-15.56465 -15.83398,-19.03321 -2.8495,-3.46853 -6.24241,-6.70939 -7.54102,-7.20312 -2.02176,-0.76868 -2.28225,-1.38786 -1.80859,-4.30664 0.68366,-4.21289 -0.74916,-7.03499 -4.76172,-9.38086 -3.04604,-1.78081 -9.47917,-11.99153 -30.4375,-48.30274 -4.28557,-7.42496 -9.51906,-16.06299 -11.6289,-19.19531 -4.94639,-7.34338 -4.89671,-8.4575 0.41406,-9.31641 5.9744,-0.96621 12.3827,-3.93388 13.66406,-6.32812 0.59703,-1.11557 1.08594,-5.32466 1.08594,-9.35352 0,-6.25988 0.29202,-7.5088 2.01367,-8.58398 1.4383,-0.89851 1.84999,-1.91904 1.43555,-3.57031 -0.56715,-2.25972 -0.33567,-2.33939 10.23437,-3.48438 5.94863,-0.64439 15.09141,-1.1372 20.31641,-1.0957 z m 128.39062,40.08398 c 3.12912,-0.0169 5.15996,0.0604 5.33594,0.23633 0.35197,0.35198 0.10787,1.17338 -0.54297,1.82422 -1.66801,1.66801 -1.47194,3.80922 0.55664,6.05078 1.66324,1.83785 1.64082,2.00475 -0.5,3.73828 -2.93934,2.38017 -2.83432,4.73927 0.32032,7.22071 l 2.56054,2.01562 -2.06054,2.19336 c -2.65372,2.82476 -2.59567,3.71435 0.42773,6.55469 2.45342,2.30487 2.46052,2.35727 0.5,3.73047 -2.69561,1.88804 -2.50182,4.73071 0.48242,7.07812 2.4495,1.92678 2.45387,1.95836 0.5,3.72656 -2.7133,2.45549 -2.46876,4.93787 0.73633,7.45899 2.19474,1.72638 2.65972,2.83191 2.45117,5.82422 -0.14154,2.03074 1.06339,7.96689 2.67774,13.19336 1.61431,5.22643 3.69819,13.98365 4.63085,19.45898 0.9327,5.47538 2.39064,11.29638 3.23829,12.93555 1.21305,2.34577 1.29047,3.37823 0.36914,4.85351 -1.58965,2.54544 -0.54145,5.28234 2.98437,7.79297 1.61747,1.15174 2.94141,2.51842 2.94141,3.03711 0,0.57483 -11.14103,0.84088 -28.53125,0.68164 -22.89186,-0.20955 -28.80912,-0.53972 -29.93946,-1.66601 -1.21108,-1.20678 -1.06594,-1.67262 1.03126,-3.32227 2.59452,-2.04088 3.14144,-4.67106 1.3457,-6.4668 -0.74345,-0.74345 -1.04878,-9.67236 -0.95508,-27.91992 0.11259,-21.93562 0.40381,-27.12069 1.59375,-28.43555 1.88382,-2.08152 1.86641,-6.36445 -0.0312,-7.93945 -1.3006,-1.0794 -1.23832,-1.54789 0.5,-3.75781 2.51524,-3.1976 2.49016,-4.08867 -0.19531,-6.94727 l -2.17969,-2.32031 2.17969,-2.0332 c 2.79136,-2.60059 2.74293,-3.52715 -0.33203,-6.37696 l -2.51172,-2.33007 2.51172,-1.64649 c 3.11665,-2.04213 3.22564,-4.87335 0.26367,-6.88281 -1.96218,-1.33118 -2.08845,-1.79481 -0.98438,-3.63281 0.6963,-1.15919 0.99814,-3.17848 0.66993,-4.48633 l -0.59766,-2.37695 16.625,-0.73438 c 4.57161,-0.20163 8.79864,-0.31316 11.92773,-0.33008 z m -51.11133,83.16407 c 0.21986,-0.14421 0.44988,0.41981 0.875,1.56835 0.48638,1.31399 0.59987,3.90722 0.25196,5.76172 -0.396,2.11085 -0.1631,3.93748 0.62304,4.88477 0.69072,0.83226 1.07917,1.61993 0.86329,1.75 -0.21587,0.13007 -1.39507,1.07982 -2.6211,2.11133 -2.02823,1.70641 -2.28758,1.7268 -2.86328,0.22656 -0.348,-0.90687 -0.0953,-2.29565 0.56055,-3.08594 0.65589,-0.7903 1.0778,-2.69613 0.9375,-4.23633 -0.1403,-1.54016 0.10957,-4.37578 0.55469,-6.30078 0.38909,-1.68266 0.59853,-2.53547 0.81835,-2.67968 z m -20.77929,13.63085 v 4.8711 c 0,2.67867 -0.61821,5.6139 -1.37305,6.52344 -0.75485,0.90953 -1.81514,1.65429 -2.35742,1.65429 -1.16668,0 -0.46807,-3.16532 1.9668,-8.89843 z m 20.34179,9.4004 c 0.99383,-0.28579 2.15821,0.66645 2.15821,2.20703 0,1.52001 -2.53458,2.00437 -3.375,0.64453 -0.27117,-0.43876 -0.1241,-1.39721 0.32812,-2.12891 0.2439,-0.39462 0.55743,-0.62739 0.88867,-0.72265 z m -3.83398,10.88867 c 3.02336,-0.31436 5.50179,1.12551 4.56055,2.64843 -0.37792,0.61149 -2.26834,1.11133 -4.20117,1.11133 -2.80672,0 -3.4467,-0.35235 -3.18164,-1.75 0.19231,-1.01427 1.37826,-1.85962 2.82226,-2.00976 z m -17.96094,3.04492 c 0.50221,0.0888 0.99655,0.33538 1.48438,0.74023 1.54856,1.28519 1.35704,1.56242 -2.16602,3.11914 -5.20047,2.298 -5.86695,2.24249 -4.15234,-0.33984 1.74299,-2.62509 3.32737,-3.78595 4.83398,-3.51953 z m 58.41407,10.14453 c 30.91495,1.41753 42.47478,3.29627 45.11914,7.33203 1.65988,2.53336 1.64436,2.67757 -0.42969,4.05469 -2.96335,1.96759 -2.69215,4.36966 0.84961,7.52539 5.77736,5.14764 3.75956,6.0863 -16.28321,7.57422 -24.59496,1.82586 -83.85519,0.97019 -94.48828,-1.36524 -3.93145,-0.86346 -4.50556,-1.69506 -3.32031,-4.8125 1.41431,-3.71989 3.93398,-5.73828 7.16211,-5.73828 1.61071,0 3.79685,-0.7875 4.85742,-1.75 1.06058,-0.9625 2.52961,-2.2 3.26367,-2.75 0.73409,-0.55 2.03805,-1.55245 2.89844,-2.22851 0.86039,-0.67606 4.57797,-1.86064 8.26172,-2.63282 8.64283,-3.55796 8.01187,-4.84029 42.10938,-5.20898 z m 63.00976,5.98828 c 0.65396,-0.31779 2.60507,0.24192 5.48242,1.85938 2.66317,1.49704 5.30295,2.72265 5.86719,2.72265 0.56425,0 2.40855,-1.16495 4.09961,-2.58789 2.66825,-2.24518 3.15959,-2.3707 3.70508,-0.94922 0.8291,2.16061 -2.78616,5.9783 -9.125,9.63477 -5.51684,3.18229 -10.87621,4.25499 -6.72266,1.3457 3.17795,-2.22592 2.79516,-5.48863 -1.01172,-8.61719 -2.30597,-1.89508 -2.94888,-3.0904 -2.29492,-3.4082 z"
       sodipodi:nodetypes="sssscssscsssssscccssccsscsscsssssssscsssssssssssssssssssssssssssccssssssssssssssssscccssscccssscccssssccsssssccccssscccccccsssssscccssssssssscccccccccssssssscccsssscccccccsssssssccccsssccsssssscccscccsccssssssssssscscccssssscccsccccssssssssssccssssssssssssssscccsssssccsssssssssssssssssssssssscssscccccsssssssssssssssssssssssssccccccssssscsscccsssssssssssccsssssssssssssscccssssccssssssscsssssssssssssssssssssssssssscsssssssccssssssssssssssssssscsssssssssscsccsssssssccsssssssssssssccssssssssscsscsssssccsssssssssssssssssssssscccccsscccsssssssssssscsssscssssssssssssssscssssssssssccsssssssssssss" /><path
       id="path976"
       style="fill:#000000"
       d="m -434.85054,389.44832 c 3.9e-4,0.66861 -0.009,1.33724 -0.008,2.00586 0.0585,9.74921 0.0582,19.50104 0.44141,29.24414 0.0949,1.2758 -0.0177,2.68252 0.8418,3.74218 0.78774,1.25103 1.98252,2.18773 3.33398,2.76172 0.97106,0.4589 1.95008,1.46843 1.58789,2.63086 -0.84075,2.56431 -3.40534,4.03159 -4.67773,6.30274 -0.96245,1.49039 -1.1494,3.55492 -0.0508,5.02734 1.2434,1.93953 3.59347,2.60178 5.17382,4.16992 0.75549,0.69339 0.74164,1.87803 0.13086,2.6582 -1.26196,1.84061 -3.19267,3.10875 -4.39062,5.00782 -1.16592,1.66305 -2.28203,3.59425 -2.40039,5.6914 0.16342,1.56522 1.58545,2.54965 2.58984,3.61133 1.44473,1.37827 2.90422,2.74458 4.35547,4.11719 -1.70922,1.60857 -3.80061,2.86506 -5.02344,4.91992 -1.60822,2.91717 -1.59497,6.3655 -1.70703,9.60547 -0.0387,7.7042 0.56367,15.39126 0.82031,23.08789 1.61969,40.56262 2.96729,81.13533 4.33594,121.70703 0.90723,26.92546 1.74836,53.85392 2.8711,80.77149 0.14957,4.30923 0.51203,8.6255 0.28906,12.9375 -0.0653,1.40053 -0.44227,2.90056 -1.61914,3.78515 -0.97429,0.84583 -1.81067,2.26796 -1.10547,3.53711 0.97465,2.05417 3.36864,2.97176 4.32226,5.0293 0.52327,1.38855 -0.61581,2.64439 -1.44726,3.625 -1.36731,1.50263 -3.02739,2.95486 -3.41406,5.05859 -0.67173,3.28692 -0.58081,6.66901 -0.75977,10.00586 -0.005,2.26397 -0.32466,4.66254 0.58594,6.80274 1.04753,2.05037 2.92295,3.51096 4.13672,5.45507 2.40795,3.44115 2.99826,7.73688 3.14453,11.83789 0.11328,3.48125 0.0419,6.9648 0.0625,10.44727 5.36984,-0.18719 10.73965,-0.376 16.10937,-0.56641 0.25192,-3.75443 0.15008,-7.55493 0.85352,-11.26367 0.0464,-0.46824 0.33381,-0.85071 0.51562,-1.23437 0.65205,-2.69029 0.95736,-5.42587 1.37305,-8.14844 0.40653,-2.42277 2.38527,-4.10279 3.92188,-5.85938 0.37786,-0.9065 0.41995,-2.00091 0.58593,-2.97656 0.60411,-5.23778 0.39815,-10.67026 -1.33984,-15.67578 -0.73308,-2.17439 -2.00292,-4.12477 -3.59961,-5.76367 -0.67567,-0.77008 -1.35188,-1.5403 -2.02734,-2.31055 1.61213,-1.18269 3.70696,-1.97374 4.61718,-3.88281 1.07067,-2.01284 0.6328,-4.59802 -0.89843,-6.25195 -0.97326,-1.67147 -0.74349,-3.70809 -0.73243,-5.56446 0.24186,-4.01462 0.62092,-8.02026 0.72852,-12.04297 0.47939,-11.6887 0.35316,-23.3909 0.64844,-35.08398 0.75955,-37.15928 2.0779,-74.30271 3.16601,-111.45312 0.6957,-23.80363 1.47795,-47.60687 1.8711,-71.41797 0.0328,-6.04576 0.20878,-12.10854 -0.28711,-18.14063 -0.20478,-2.11636 -0.61399,-4.21939 -1.76172,-6.04687 -0.71599,-0.95889 -1.81099,-1.47764 -2.91797,-1.83594 -0.7428,-0.24948 -1.38835,-1.04181 -1.00977,-1.83985 0.89465,-2.1613 3.25557,-3.51243 3.61328,-5.93945 0.31632,-2.2018 -1.2913,-4.04257 -2.70898,-5.51758 -1.11408,-1.12815 -2.23847,-2.24578 -3.35937,-3.36718 1.71076,-1.73741 3.97169,-3.15499 4.83593,-5.54297 0.87538,-2.34664 -0.28348,-4.81305 -1.80078,-6.61719 -0.6654,-0.9699 -1.79725,-1.96781 -1.57422,-3.25977 0.50857,-1.38147 1.8939,-2.16182 2.89844,-3.15234 1.15815,-0.89573 1.98318,-2.20101 2.12891,-3.67383 0.4395,-3.71951 0.25012,-7.47753 0.33593,-11.21484 0.0743,-4.46649 -0.0423,-8.94915 0.38672,-13.40039 0.15335,-1.05613 0.26454,-2.53039 1.46094,-2.91992 2.19352,-0.4521 4.46057,0.58307 6.0332,2.07617 0.70598,0.70521 1.40947,1.41373 2.11719,2.11719 -1.80715,2.19031 -3.94778,4.14561 -5.375,6.62304 -0.78303,1.29203 -0.90737,3.03173 0.0644,4.26563 1.40001,1.8627 3.47179,3.05108 5.22657,4.54101 0.43681,0.34731 -0.61614,0.78282 -0.80469,1.16797 -1.50305,1.50353 -3.00783,3.00513 -4.51172,4.50781 0.46598,25.75813 0.95179,51.51647 1.24219,77.27735 0.5348,42.63601 0.99324,85.27378 1.29687,127.91211 0.0314,10.53898 0.1756,21.08126 -0.13867,31.61718 -0.1328,2.06072 -0.0644,4.18617 -0.6875,6.17383 -0.28926,0.7434 -1.28108,1.05395 -1.22461,1.97266 0.0218,1.82147 1.20412,3.36056 2.14063,4.83789 0.62671,0.89305 1.54347,1.89165 1.1582,3.07812 -0.74733,2.30916 -2.90259,3.88436 -3.4707,6.28516 -0.73633,2.9504 -0.5046,6.02998 -0.52735,9.04297 0.0646,3.47951 0.0676,7.15631 1.94336,10.22656 1.3316,2.0275 2.26929,4.31463 2.60352,6.72461 0.70771,4.70751 0.71674,9.48344 1.02734,14.22656 0.0386,0.7395 0.0767,1.47927 0.11524,2.21875 h 13.09765 c 0.28526,-4.51989 0.36153,-9.05761 0.84375,-13.5625 0.23692,-2.44334 1.12247,-4.80306 2.57813,-6.7832 1.50972,-2.16539 3.30282,-4.35081 3.56445,-7.08398 0.38285,-3.3858 0.23673,-6.80636 0.21094,-10.20703 -0.0634,-2.6343 -0.34126,-5.40401 -1.88477,-7.63282 -0.9888,-1.53163 -2.04264,-3.0232 -3.05664,-4.53906 1.35768,-1.44854 2.98348,-2.75646 4.09961,-4.36523 0.80011,-1.08154 0.0777,-2.40828 -0.5918,-3.34571 -0.48518,-0.78075 -1.1466,-1.40294 -1.86132,-1.98632 -0.45664,-0.47648 -0.29449,-1.13483 -0.0957,-1.67579 0.41674,-4.39691 0.45322,-8.82085 0.62891,-13.23242 1.04429,-33.89501 1.84842,-67.7962 2.74609,-101.69531 0.82033,-31.42713 1.58452,-62.85864 2.85743,-94.27148 0.34633,-8.21725 1.06859,-16.42113 1.13085,-24.64844 -0.0376,-2.6397 -0.0143,-5.58839 -1.80078,-7.73047 -1.16405,-1.47002 -2.40615,-2.87721 -3.60351,-4.32031 1.7423,-1.40725 4.00059,-2.4277 4.98242,-4.56446 0.90668,-1.82606 0.42762,-4.15544 -0.81836,-5.74804 -1.10895,-1.55934 -3.05964,-2.59428 -3.51172,-4.56641 -0.2152,-1.56703 1.13134,-2.73938 2.12891,-3.74219 0.15381,-0.14564 0.30875,-0.29024 0.46289,-0.43554 -22.92603,-1.51495 -45.85566,-2.9759 -68.78906,-4.375 z" /></g></svg>
