<?xml version="1.0" encoding="UTF-8" standalone="no"?>
<!-- Created with Inkscape (http://www.inkscape.org/) -->

<svg
   version="1.1"
   id="svg2"
   width="422.03342"
   height="933.61481"
   viewBox="0 0 422.03342 933.61481"
   sodipodi:docname="student.svg"
   xml:space="preserve"
   inkscape:version="1.2.2 (b0a8486541, 2022-12-01)"
   xmlns:inkscape="http://www.inkscape.org/namespaces/inkscape"
   xmlns:sodipodi="http://sodipodi.sourceforge.net/DTD/sodipodi-0.dtd"
   xmlns="http://www.w3.org/2000/svg"
   xmlns:svg="http://www.w3.org/2000/svg"><defs
     id="defs6" /><sodipodi:namedview
     id="namedview4"
     pagecolor="#ffffff"
     bordercolor="#666666"
     borderopacity="1.0"
     inkscape:showpageshadow="2"
     inkscape:pageopacity="0.0"
     inkscape:pagecheckerboard="0"
     inkscape:deskcolor="#d1d1d1"
     showgrid="false"
     inkscape:zoom="0.60145508"
     inkscape:cx="415.65864"
     inkscape:cy="561.13916"
     inkscape:window-width="1914"
     inkscape:window-height="2126"
     inkscape:window-x="3840"
     inkscape:window-y="0"
     inkscape:window-maximized="1"
     inkscape:current-layer="g8" /><g
     inkscape:groupmode="layer"
     inkscape:label="Image"
     id="g8"
     transform="translate(530.57579,2.7154893e-4)"><path
       id="path403"
       style="fill:#000000"
       d="m -348.57123,0.1015625 c -0.15375,-0.31043394 -0.24527,0.0916854 -0.29297,1.1679687 -0.19523,4.4057956 -1.43836,6.0032715 -3.10742,3.9921876 -0.73121,-0.8810612 -2.25032,-2.0934052 -3.375,-2.6953126 -2.02048,-1.0813289 -2.02321,-1.0613068 -0.22852,1.6777344 0.999,1.5246525 1.27145,2.4350311 0.60547,2.0234375 -0.84661,-0.5232335 -1.02934,-0.1770109 -0.60742,1.1523438 0.54017,1.7019223 0.15991,1.8586235 -3.62109,1.4980469 -3.76119,-0.3586867 -4.07996,-0.2298287 -2.91016,1.1796872 1.65823,1.99805 0.67875,3.66795 -2.16602,3.6875 -1.20504,0.0083 -3.99141,0.702977 -6.1914,1.544922 -3.71033,1.419953 -3.76464,1.492913 -0.75,1.009766 1.7875,-0.286474 3.25,-0.314485 3.25,-0.0625 0,0.251984 -2.17784,1.561214 -4.83985,2.910156 -5.67639,2.876447 -10.60888,8.16467 -13.55468,14.53125 -1.83925,3.975024 -2.10234,6.385364 -2.08204,19.050781 0.021,13.148427 0.26551,15.152487 2.63477,21.5 7.19532,19.27713 8.89431,24.713977 9.48438,30.359379 0.76224,7.29288 0.88022,7.25123 -9.53321,3.46093 l -7.39062,-2.6914 -2.60938,3.09179 c -1.43546,1.70001 -3.87566,5.0463 -5.42187,7.43555 -1.54622,2.38926 -3.90872,5.87336 -5.25,7.74219 -1.34129,1.86884 -2.4375,3.84919 -2.4375,4.40234 0,0.55315 1.87442,2.73794 4.16601,4.85352 2.2916,2.11559 3.9791,3.99779 3.75,4.18359 -0.22909,0.1858 -2.54102,1.77397 -5.13867,3.5293 -8.50632,5.74805 -24.5451,25.64114 -43.33203,53.74609 -12.90424,19.30454 -12.9782,19.3882 -13.83594,15.97071 -0.57393,-2.2867 -1.15173,-2.58399 -5.02148,-2.58399 -4.62362,0 -5.58789,0.95633 -5.58789,5.54297 0,2.89043 -1.94491,3.50464 -20.5,6.4668 -14.81902,2.36571 -17.57539,3.76487 -18.86914,9.58593 -0.47725,2.14729 -2.00062,7.1706 -3.38672,11.16407 -2.05421,5.91833 -2.41508,8.41445 -1.94922,13.5 0.52781,5.7618 0.26077,6.9288 -3.48633,15.24023 -11.72922,61.83026 -3.16185,99.61511 -2.83984,130.68945 1.72711,26.91556 3.46789,40.01614 6.01953,45.28711 3.11228,6.42913 8.30223,9.94423 17.77734,12.04102 4.2534,0.94125 8.93761,2.32959 10.40821,3.08398 2.80211,1.43744 35.00415,5.39844 43.88671,5.39844 4.84268,0 5.12159,0.13632 4.60352,2.25 -3.50478,14.29908 -4.97605,24.54794 -5.06445,35.25 -0.0645,7.8071 0.32857,12.74513 1.125,14.13477 1.22706,2.14103 17.71324,9.18855 26.92382,11.50781 5.02728,1.26588 4.84013,0.30015 3.36915,17.35742 -0.64994,7.53666 -2.02256,14.46334 -4.36133,22 -1.87744,6.05 -4.86479,19.10001 -6.63867,29 -2.93152,16.36055 -3.58885,18.61032 -7.21485,24.71289 -4.31379,7.26013 -10.10417,23.7983 -11.67578,33.3457 -0.56811,3.45119 -3.26282,10.76193 -6.42969,17.44141 -6.60596,13.93315 -17.84786,43.78719 -20.56445,54.61328 -1.08838,4.33735 -3.17902,13.91687 -4.64648,21.28711 -1.46747,7.37025 -6.60737,29.0669 -8.15973,34.62163 -2.55838,9.15455 -3.87159,15.31684 -5.47266,25.68946 -0.315,2.0407 -1.67279,4.63012 -3.14648,6 -1.4259,1.32545 -3.63094,4.74233 -4.90039,7.59374 -1.65382,3.7148 -3.47747,5.92223 -6.43164,7.78711 -6.17955,3.90097 -6.73646,6.3331 -4.4082,19.2793 0.49967,2.77839 0.29419,3.25 -1.41602,3.25 -3.56281,0 -6.00549,3.32359 -9.04102,12.29883 -1.63665,4.83912 -4.11025,10.46413 -5.49804,12.5 -1.38779,2.03586 -3.74817,7.67051 -5.24414,12.52344 -2.34031,7.59193 -2.52349,9.02143 -1.31055,10.23437 0.77534,0.77534 7.70104,4.26017 15.39063,7.74414 12.85556,6.5585 159.70677,52.60249 141.13671,5.41602 -2.38906,-5.71538 2.04435,-4.90187 -13.34765,-5.49219 -14.02987,-0.53808 -14.1381,-0.56035 -22.75391,-4.71484 -5.59206,-2.69646 -9.43691,-5.2699 -10.85937,-7.26758 -2.68039,-3.76427 -3.86527,-3.25241 -1.35157,0.58398 1.75415,2.67718 1.75069,2.71421 -0.16992,1.67969 -1.07944,-0.58144 -3.03351,-2.20276 -4.34179,-3.60156 l -2.37696,-2.54297 3.87696,0.34961 c 2.13328,0.1925 4.21603,0.39732 4.62695,0.45312 0.41091,0.0558 2.66091,1.77197 5,3.81446 4.06788,3.55208 4.12146,3.56943 1.25195,0.40429 -1.65,-1.81997 -6.01986,-4.8384 -9.71094,-6.70703 -3.69106,-1.86862 -7.19389,-4.30147 -7.78515,-5.40625 -0.59126,-1.10479 -2.59809,-2.64434 -4.45899,-3.42187 -4.22201,-1.76407 -5.40355,-3.9357 -6.17968,-11.36133 -0.57509,-5.5022 -0.42521,-6.08352 2.37695,-9.29492 6.31105,-7.23278 7.72389,-11.4154 7.74219,-22.92578 0.009,-5.775 -0.36159,-15.00001 -0.82422,-20.5 l -0.8418,-10 4.57031,-6.5 c 7.82661,-11.13058 18.71068,-44.78623 27.3609,-58.82281 5.5038,-8.93093 11.80532,-41.12204 13.9375,-42.43359 16.62791,-11.10407 46.30722,-183.05554 64.18555,-56.48242 9.76123,-1.38042 15.92406,63.42107 16.97461,72.37695 1.21849,10.38753 6.49363,34.667 9.39843,43.25586 2.89258,8.5527 2.99331,31.44908 15.40821,59.71875 l 6.80664,15.5 0.0723,10 c 0.0403,5.5 0.1528,10.51064 0.25,11.13477 0.0972,0.62412 2.62092,1.43936 5.60742,1.8125 7.12244,0.88989 8.47915,2.50435 4.54883,5.41015 -4.48276,3.31425 -4.18928,8.45946 0.8125,14.25196 3.6281,4.20164 3.78868,4.69217 3.73438,11.39062 -0.0312,3.85 -0.33689,7.45 -0.67969,8 -0.94804,1.5211 0.81252,31.61351 2.0332,34.75 1.2424,3.19232 1.32235,3.19794 16.1211,1.32422 5.77499,-0.7312 10.79538,-1.15917 11.15625,-0.95117 6.29321,-7.0438 32.64477,-14.98638 44.71484,-18.9668 3.64568,-1.41017 10.90391,-4.21033 16.12891,-6.22266 11.98365,-4.61532 26.26843,-13.0433 42.67968,-25.17968 17.29812,-12.79224 22.45051,-17.83053 21.66797,-21.18946 -1.72376,-7.39901 -6.20627,-12.06445 -11.58984,-12.06445 -2.99705,0 -19.5294,4.98969 -26.0918,7.875 -3.87157,1.70222 -6.81907,2.125 -14.82226,2.125 -8.81335,0 -9.9532,-0.19736 -9.66797,-1.67773 0.17782,-0.92295 1.58906,-2.01775 3.13672,-2.43164 6.82865,-1.82619 7.64614,-5.89044 1.66601,-8.28321 -5.45839,-2.18401 -6.15987,-2.07412 -9.54101,1.47852 -4.38114,4.60333 -6.01677,5.23484 -8.81055,3.4043 -1.31662,-0.86268 -2.78523,-1.49666 -3.26172,-1.41016 -2.86229,0.51938 -5.19552,-0.31976 -5.64258,-2.0293 -0.80833,-3.09107 -6.6645,-6.23018 -10.54297,-5.65039 -4.5407,0.67879 -8.17968,-0.84831 -8.17968,-3.43359 0,-1.19558 1.91738,-3.8293 4.5,-6.17969 4.32655,-3.93752 4.49727,-4.3109 4.45508,-9.69141 -0.0536,-6.83446 -1.49253,-11.046 -6.7793,-19.83398 -2.23735,-3.71906 -5.2778,-10.13672 -6.75586,-14.26172 -1.47807,-4.12499 -4.24744,-9.94128 -6.1543,-12.92578 -2.50546,-3.92137 -3.71825,-7.24955 -4.37304,-12 -0.49835,-3.6155 -2.67502,-12.64923 -4.83594,-20.07422 -2.16092,-7.42499 -5.31577,-18.86953 -7.01172,-25.43164 l -3.08399,-11.93164 1.01368,-18.56836 c 0.55762,-10.21287 1.01653,-25.75614 1.01953,-36.49219 0.006,-23.85251 -1.14621,-28.89447 -14.05664,-61.47851 -8.24762,-20.81579 -14.26242,-42.52589 -17.00586,-58.45899 -2.75173,-15.98118 -2.74006,-16.08068 2.91992,-21.49609 1.68421,-2.04481 -0.92214,4.08821 12.39648,2.76562 0.7329,1.01486 1.59669,2.49307 2.80274,4.67969 5.3268,9.65762 5.66818,9.90825 12.52734,9.23633 3.28958,-0.32232 7.65988,-1.48673 9.71094,-2.58789 2.66663,-1.43153 4.72204,-1.81804 7.21875,-1.35938 3.15396,0.57945 3.70184,0.31815 5.63867,-2.6875 1.17931,-1.83004 2.70471,-5.04429 3.39258,-7.14453 1.25542,-3.833 4.55911,-7.80441 8.72461,-10.49023 2.32358,-1.49826 3.53786,-4.4451 2.88672,-5.87891 18.10948,-6.16815 17.04282,-4.25833 36.48437,-13.27343 15.08523,-5.33619 28.5923,-10.41963 29.33399,-11.04102 0.18307,-0.15338 -2.15563,-8.9797 -5.19727,-19.61328 -6.66332,-23.29505 -25.21361,-89.4311 -30.99609,-110.51172 -2.28984,-8.34785 -4.44109,-15.45673 -4.78125,-15.79688 -0.89455,-0.89455 -43.03564,14.86982 -75.57813,28.00977 -11.22929,4.53414 -20.41601,8.1006 -20.41601,7.92383 0,-0.71426 7.14066,-4.06682 18.5,-8.6836 18.1872,-7.39182 14.82011,-6.56341 31.13476,-12.27343 19.57671,-6.85174 22.5,-8.12286 22.5,-9.78321 0,-2.27405 -0.92644,-2.5532 -4.66992,-1.40429 -3.01509,0.92535 -3.7504,0.8312 -4.80664,-0.61328 -1.16663,-1.59546 -1.57674,-1.56699 -6.36719,0.42382 -2.88745,1.19998 -4.84106,2.57595 -4.48242,3.15625 0.38488,0.62275 0.14002,0.72236 -0.62109,0.25196 -0.7072,-0.43707 -3.29292,0.13747 -5.90625,1.31445 -2.55584,1.15108 -1.63126,1.61886 -8.78125,4.60156 -7.15,2.9827 -18.45323,7.88426 -25.11719,10.89258 l -12.11523,5.4707 -1.14258,-7.61328 c -0.62765,-4.18713 -1.58831,-17.96329 -2.13477,-30.61328 -1.91503,-44.33039 -2.96827,-61.08286 -4.45703,-70.80859 -1.67617,-10.95003 -6.5596,-29.10453 -12.70117,-47.2168 l -4.07813,-12.02344 2.62305,-3.86523 c 1.44257,-2.12575 2.62305,-4.33152 2.62305,-4.90235 0,-1.01862 -8.72679,-9.73496 -20.7793,-20.7539 -6.97104,-6.37302 -8.25133,-9.54376 -5.87109,-14.53516 1.82529,-3.82769 3.8085,-4.19811 12.50976,-2.33203 9.51651,2.04093 17.03955,-2.30453 18.59766,-10.74219 0.38812,-2.1018 1.62496,-4.81001 2.75,-6.01953 1.12505,-1.20951 1.79382,-2.85494 1.48633,-3.65625 -0.30749,-0.80131 0.25998,-2.19677 1.25976,-3.10156 0.99978,-0.90479 2.0698,-2.9095 2.37891,-4.45508 0.4833,-2.41646 1.14722,-2.88969 4.73633,-3.37109 6.48785,-0.8702 6.71159,-1.58803 3.53515,-11.341799 -3.08516,-9.47345 -2.98346,-12.629103 0.56836,-17.617187 1.79776,-2.524718 2.34123,-5.210721 3.04688,-15.050782 0.52846,-7.369046 1.43773,-12.985547 2.36133,-14.59375 1.43887,-2.505414 1.48398,-2.365671 1.10937,3.353516 -0.35812,5.467501 -0.26905,5.7866 1.05078,3.798828 1.20392,-1.813202 1.7488,-1.976054 3.32422,-0.992187 1.55434,0.970699 2.15978,0.829769 3.44336,-0.798828 1.40873,-1.787937 1.40801,-1.602386 0.002,1.949218 -0.85426,2.157815 -2.10552,4.592381 -2.78125,5.41211 -1.07018,1.298218 -0.92916,1.331179 1.09961,0.25 1.28102,-0.682695 3.64724,-4.019209 5.25781,-7.414063 l 2.92774,-6.171875 -0.47266,5 c -0.36547,3.858556 -0.27927,4.315134 0.375,2 3.15622,-11.168327 -1.64407,-24.820448 -10.39843,-29.574219 -2.20945,-1.199766 -6.78621,-3.948316 -10.16993,-6.107421 C -283.38467,13.717852 -301.68057,6.0663517 -312.5477,3.8886719 -329.34297,0.52304929 -331.32506,0.39487397 -337.09849,2.3125 c -3.91554,1.3005357 -5.37269,1.4424914 -5.66992,0.5507812 -0.52529,-1.5758704 -3.12251,1.7858406 -3.16601,4.0976563 -0.0175,0.9300401 -0.55057,2.0118573 -1.18555,2.4042969 -0.63592,0.3930286 -0.88619,0.2773651 -0.55664,-0.2558594 0.32905,-0.5324225 0.22587,-3.1892436 -0.22852,-5.9042969 -0.29639,-1.7710117 -0.51226,-2.79308166 -0.66601,-3.1035156 z M -213.34272,328.1582 c 0.16781,0.0701 0.18103,0.25368 0.006,0.53711 -0.33602,0.5437 -1.03519,0.98828 -1.55273,0.98828 -1.43843,0 -1.12109,-0.71607 0.61133,-1.38086 0.44494,-0.17074 0.76774,-0.21461 0.93554,-0.14453 z m 9.33399,1.39844 c 0.5728,-0.0295 0.70553,0.19267 0.52539,0.66211 -0.26182,0.6823 -1.90977,1.52309 -3.66211,1.86914 -2.86449,0.56567 -14.03486,4.41455 -19.18555,6.60938 -1.1,0.46874 -2.58477,1.61107 -14.13476,6.10156 -11.54999,4.49048 -22.51849,8.84257 -24.37305,9.67187 -4.35742,1.9485 -9.76384,3.49941 -8.56055,2.45508 0.5129,-0.44515 7.68361,-3.42978 15.9336,-6.63086 8.24999,-3.20106 17.025,-6.68869 19.5,-7.75195 4.85189,-2.08438 23.97646,-9.79064 30.79687,-12.13477 1.57503,-0.54132 2.58736,-0.82204 3.16016,-0.85156 z m 33.61523,517.25 c 1.47839,0.0412 3.34147,0.42165 4.88086,1.12305 2.70836,1.23401 3.19682,2.31912 1.51367,3.35937 -0.56791,0.35099 -2.31724,1.00691 -3.88671,1.45703 -2.45565,0.70428 -3.00829,0.47675 -3.9668,-1.62695 -0.6126,-1.34453 -1.11328,-2.87236 -1.11328,-3.39648 0,-0.65852 1.09387,-0.95719 2.57226,-0.91602 z m -20.75976,4.2793 c 0.72187,-0.28891 1.58372,-0.25417 1.91601,0.0781 v 0.002 c 0.33229,0.33229 -0.25834,0.56683 -1.3125,0.52343 -1.16495,-0.048 -1.40124,-0.28429 -0.60351,-0.60351 z m -245.95465,32.07085 c 0.58488,0 1.36012,0.47981 1.72266,1.0664 1.07627,1.74144 -0.148,2.10963 -1.51953,0.45703 -0.78875,-0.95039 -0.86623,-1.52343 -0.20313,-1.52343 z"
       sodipodi:nodetypes="ssssssssssssssscsscccssssssssssssssccsssssssssssssssssssssssssssccssssscccssssssssscccsccsscccssssssssccssssssssssscssssssssssccscssccsssssssccsssssssssssssssscccssccsscssssssssssssssscssscccssssssssssssssssssssssssssssscssssscssssssssss" /></g></svg>
