<?xml version="1.0" encoding="UTF-8" standalone="no"?>
<!-- Created with Inkscape (http://www.inkscape.org/) -->

<svg
   width="2.1497509mm"
   height="1.3897717mm"
   viewBox="0 0 2.149751 1.3897717"
   version="1.1"
   id="svg5"
   xml:space="preserve"
   inkscape:version="1.2.2 (b0a8486541, 2022-12-01)"
   sodipodi:docname="eq.svg"
   xmlns:inkscape="http://www.inkscape.org/namespaces/inkscape"
   xmlns:sodipodi="http://sodipodi.sourceforge.net/DTD/sodipodi-0.dtd"
   xmlns="http://www.w3.org/2000/svg"
   xmlns:svg="http://www.w3.org/2000/svg"><sodipodi:namedview
     id="namedview7"
     pagecolor="#ffffff"
     bordercolor="#666666"
     borderopacity="1.0"
     inkscape:showpageshadow="2"
     inkscape:pageopacity="0.0"
     inkscape:pagecheckerboard="0"
     inkscape:deskcolor="#d1d1d1"
     inkscape:document-units="mm"
     showgrid="false"
     inkscape:zoom="64"
     inkscape:cx="4.3359375"
     inkscape:cy="4.2734375"
     inkscape:window-width="3840"
     inkscape:window-height="2160"
     inkscape:window-x="1920"
     inkscape:window-y="0"
     inkscape:window-maximized="1"
     inkscape:current-layer="layer1" /><defs
     id="defs2">
  

    
  
      
    
        
      </defs><g
     inkscape:label="Layer 1"
     inkscape:groupmode="layer"
     id="layer1"
     transform="translate(155.41635,89.041599)"><path
   style="fill:#000000;fill-opacity:1;stroke:#000000;stroke-width:0;stroke-linecap:butt;stroke-linejoin:miter;stroke-dasharray:none;stroke-opacity:1"
   d="m -155.17933,-88.9675 1.83555,0.0048 0.011,-0.04356 z"
   id="path2000"
   sodipodi:nodetypes="cccc" /><path
   style="fill:#000000;fill-opacity:1;stroke:none;stroke-width:0;stroke-linecap:butt;stroke-linejoin:miter;stroke-dasharray:none;stroke-opacity:1"
   d="m -154.75043,-87.734706 h 0.91672 v -1.198217 l -0.93818,-0.0258 z"
   id="path2740"
   sodipodi:nodetypes="ccccc" /><path
   d="m -153.33278,-88.934183 c 0.0386,-0.01654 0.0433,6.94e-4 0.0473,-0.0589 0.001,-0.01859 -0.0233,-0.04868 -0.0659,-0.04542 -0.009,7.01e-4 -0.009,-0.0038 -0.0475,-0.003 l -1.94815,0.0036 c -0.0606,0.02756 -0.0693,0.04285 -0.0693,0.07041 0,0.03307 0.0221,0.05512 0.0717,0.07717 l 1.94577,-0.0093 c 0.0333,0.004 0.0422,9.06e-4 0.0552,8.46e-4 0.0358,-1.65e-4 0.0565,-0.02701 0.0567,-0.0555 2.1e-4,-0.03307 0.004,-0.03766 -0.0567,-0.06522 l -1.83555,0.05203 z m -0.0606,1.282355 c 0.0606,0 0.12678,0 0.12678,-0.06615 0,-0.07166 -0.0772,-0.07166 -0.12678,-0.07166 h -1.89619 c -0.0551,0 -0.12678,0 -0.12678,0.07166 0,0.06615 0.0606,0.06615 0.12127,0.06615 z"
   id="path316"
   style="fill:#ffffff;fill-opacity:1;stroke:#ffffff;stroke-width:0;stroke-dasharray:none;stroke-opacity:1"
   sodipodi:nodetypes="cssccsccsscccsssssss" />
      
    </g></svg>
