<?xml version="1.0" encoding="UTF-8" standalone="no"?>
<!-- Created with Inkscape (http://www.inkscape.org/) -->

<svg
   width="90.668732mm"
   height="35.012814mm"
   viewBox="0 0 90.668734 35.012813"
   version="1.1"
   id="svg5"
   xml:space="preserve"
   inkscape:version="1.2.2 (b0a8486541, 2022-12-01)"
   sodipodi:docname="iff.svg"
   xmlns:inkscape="http://www.inkscape.org/namespaces/inkscape"
   xmlns:sodipodi="http://sodipodi.sourceforge.net/DTD/sodipodi-0.dtd"
   xmlns="http://www.w3.org/2000/svg"
   xmlns:svg="http://www.w3.org/2000/svg"><sodipodi:namedview
     id="namedview7"
     pagecolor="#ffffff"
     bordercolor="#666666"
     borderopacity="1.0"
     inkscape:showpageshadow="2"
     inkscape:pageopacity="0.0"
     inkscape:pagecheckerboard="0"
     inkscape:deskcolor="#d1d1d1"
     inkscape:document-units="mm"
     showgrid="false"
     inkscape:zoom="4.3893396"
     inkscape:cx="152.52864"
     inkscape:cy="149.56692"
     inkscape:window-width="3834"
     inkscape:window-height="2126"
     inkscape:window-x="1920"
     inkscape:window-y="0"
     inkscape:window-maximized="1"
     inkscape:current-layer="layer1" /><defs
     id="defs2" /><g
     inkscape:label="Layer 1"
     inkscape:groupmode="layer"
     id="layer1"
     transform="translate(171.32649,107.79402)"><path
       d="m -157.38657,-95.22628 c -2.52557,1.590911 -5.12377,3.079578 -7.58463,4.766165 0.0109,0.346964 0.52657,0.42627 0.744,0.652351 1.97954,1.26886 3.97405,2.526229 5.98367,3.739859 27.4485,0.04197 35.89072,0.08089 63.33911,0.170495 2.425187,-1.432338 4.861593,-2.880614 7.249979,-4.371732 0.01379,-0.385034 -0.537439,-0.51122 -0.774195,-0.744688 -2.259263,-1.436468 -4.54115,-2.849086 -6.831085,-4.2291 h -62.068069 z"
       id="path438"
       style="fill:#000000;stroke-width:0.264583"
       sodipodi:nodetypes="cccccccccc" /><path
       id="path304"
       d="m -103.00018,-107.78426 c -0.96994,0.46087 -0.71848,1.81513 -0.1582,2.50781 1.3704,2.49625 2.97913,4.87162 4.908204,6.970707 h -55.593374 c 1.80984,-2.695097 3.93999,-5.216277 5.2461,-8.212887 0.14631,-1.14856 -1.59957,-1.64436 -2.19812,-0.71748 -1.82147,1.52574 -2.74098,3.8128 -4.33124,5.55058 -4.02084,5.022488 -9.80226,8.27944 -15.77533,10.43838 -0.7868,0.321399 -0.35302,1.392192 0.27882,1.617317 5.19258,2.216287 10.48103,4.72348 14.34539,8.961943 1.91815,2.003826 3.40791,4.370475 4.71022,6.804671 0.54364,0.820471 1.8676,1.523687 2.7048,0.724108 0.73475,-0.96996 -0.0189,-2.19277 -0.62399,-3.016736 -1.3624,-2.219485 -3.04479,-4.223938 -4.46407,-6.407709 19.64433,-0.43837 19.90574,-0.241545 39.55313,-0.306115 5.38321,-0.0015 10.76641,-0.003 16.149614,-0.0044 -1.982124,2.900265 -4.468504,5.591302 -5.460944,9.03711 -0.0906,0.969313 1.44358,1.489501 1.90235,0.59375 2.229614,-2.348839 3.705324,-5.307348 6.008904,-7.59756 3.5976,-3.879829 8.33071,-6.501094 13.23915,-8.361425 0.59549,-0.306959 1.36089,-0.434195 1.83007,-0.912109 0.31183,-0.68334 -0.4688,-1.280831 -1.08869,-1.320948 -6.50885,-2.580249 -12.81774,-6.366361 -16.93699,-12.164017 -1.09101,-1.57518 -1.963224,-3.86174 -4.095414,-4.19475 l -0.0998,0.007 z m -32.79883,12.59961 h 40.554694 c 2.58008,1.59375 5.16015,3.1875 7.74023,4.78125 -2.43945,1.469401 -4.8789,2.938802 -7.31836,4.408204 -27.490884,-0.04948 -35.592724,-0.09896 -63.083604,-0.148438 l -6.82422,-4.253906 c 2.5892,-1.595703 5.17839,-3.191407 7.76758,-4.78711 z"
       style="fill:#ffffff"
       sodipodi:nodetypes="cccccccccccccccccccccccccccccccccc" /></g></svg>
