<?xml version="1.0" encoding="UTF-8" standalone="no"?>
<!-- Created with Inkscape (http://www.inkscape.org/) -->

<svg
   width="21.414284mm"
   height="27.254681mm"
   viewBox="0 0 21.414284 27.254681"
   version="1.1"
   id="svg5"
   xml:space="preserve"
   inkscape:version="1.2.2 (b0a8486541, 2022-12-01)"
   sodipodi:docname="l_char.svg"
   xmlns:inkscape="http://www.inkscape.org/namespaces/inkscape"
   xmlns:sodipodi="http://sodipodi.sourceforge.net/DTD/sodipodi-0.dtd"
   xmlns="http://www.w3.org/2000/svg"
   xmlns:svg="http://www.w3.org/2000/svg"><sodipodi:namedview
     id="namedview7"
     pagecolor="#ffffff"
     bordercolor="#666666"
     borderopacity="1.0"
     inkscape:showpageshadow="2"
     inkscape:pageopacity="0.0"
     inkscape:pagecheckerboard="0"
     inkscape:deskcolor="#d1d1d1"
     inkscape:document-units="mm"
     showgrid="false"
     inkscape:zoom="1.5981902"
     inkscape:cx="239.02036"
     inkscape:cy="-29.721118"
     inkscape:window-width="1914"
     inkscape:window-height="2126"
     inkscape:window-x="3840"
     inkscape:window-y="0"
     inkscape:window-maximized="1"
     inkscape:current-layer="layer1" /><defs
     id="defs2" /><g
     inkscape:label="Layer 1"
     inkscape:groupmode="layer"
     id="layer1"
     transform="translate(-47.838903,-162.90787)"><path
       id="path248"
       style="fill:#000000;stroke-width:1"
       d="m 61.543493,162.90789 c -2.204357,-0.005 -4.481073,1.11378 -5.539714,2.52491 -1.19013,1.65232 -1.292537,4.62892 -0.273885,7.95817 0.303648,0.99238 0.606856,1.91476 -0.445451,3.14244 -0.963882,1.12458 -1.139729,1.21844 -2.023649,1.08262 -1.948675,1.71113 -5.253921,7.98266 -5.421891,12.54652 h 16.357141 c 0.03637,-4.40833 0.7363,-4.82941 -0.35295,-8.24704 0.01823,-0.1199 -0.201142,-0.60245 -0.487309,-1.07228 -0.452843,-0.74352 -0.771802,-1.84635 -0.410828,-2.35748 0.339123,-0.48013 0.705542,-0.58319 2.008663,-0.56534 1.837812,0.0252 2.747894,-0.15996 2.883545,-1.04283 0.05327,-0.34916 0.08741,-0.86705 0.13746,-1.32395 0.08733,-0.79727 0.330227,-0.98445 0.342098,-1.70533 0.01475,-0.89583 -0.08188,-1.06474 0.344681,-1.28622 0.683192,-0.35473 0.708935,-0.90161 0.08062,-1.70429 -0.366113,-0.46771 -0.522778,-1.1125 -0.501779,-2.06448 0.01679,-0.76139 -0.108995,-1.69217 -0.279052,-2.0686 -0.304946,-0.67497 -0.29765,-0.68107 0.485758,-0.44029 0.436928,0.13426 0.799459,0.20845 0.806152,0.16485 0.0067,-0.0436 -0.391789,-0.38884 -0.885734,-0.76739 -0.605277,-0.46392 -0.693659,-0.59985 -0.270784,-0.41652 0.345079,0.14965 0.562514,0.17778 0.483175,0.062 -0.236081,-0.34295 -3.852621,-1.78304 -5.537647,-2.22622 -0.485097,-0.13091 -0.989919,-0.19217 -1.498616,-0.19327 z" /></g></svg>
