<?xml version="1.0" encoding="UTF-8" standalone="no"?>
<!-- Created with Inkscape (http://www.inkscape.org/) -->

<svg
   width="2.24979mm"
   height="2.8175867mm"
   viewBox="0 0 2.24979 2.8175866"
   version="1.1"
   id="svg5"
   xml:space="preserve"
   inkscape:version="1.2.2 (b0a8486541, 2022-12-01)"
   sodipodi:docname="leq.svg"
   xmlns:inkscape="http://www.inkscape.org/namespaces/inkscape"
   xmlns:sodipodi="http://sodipodi.sourceforge.net/DTD/sodipodi-0.dtd"
   xmlns="http://www.w3.org/2000/svg"
   xmlns:svg="http://www.w3.org/2000/svg"><sodipodi:namedview
     id="namedview7"
     pagecolor="#ffffff"
     bordercolor="#666666"
     borderopacity="1.0"
     inkscape:showpageshadow="2"
     inkscape:pageopacity="0.0"
     inkscape:pagecheckerboard="0"
     inkscape:deskcolor="#d1d1d1"
     inkscape:document-units="mm"
     showgrid="false"
     inkscape:zoom="64"
     inkscape:cx="5.2109375"
     inkscape:cy="1.2109375"
     inkscape:window-width="1914"
     inkscape:window-height="2126"
     inkscape:window-x="3840"
     inkscape:window-y="0"
     inkscape:window-maximized="1"
     inkscape:current-layer="layer1" /><defs
     id="defs2">
  

    
  
      
    
        
      </defs><g
     inkscape:label="Layer 1"
     inkscape:groupmode="layer"
     id="layer1"
     transform="translate(155.46637,90.037249)"><path
   style="fill:#000000;fill-opacity:1;stroke:#000000;stroke-width:0;stroke-linecap:butt;stroke-linejoin:miter;stroke-dasharray:none;stroke-opacity:1"
   d="m -155.17933,-88.9675 1.83555,0.865409 0.011,-1.736328 z"
   id="path2000" /><path
   style="fill:#000000;stroke:none;stroke-width:0;stroke-linecap:butt;stroke-linejoin:miter;stroke-opacity:1;stroke-dasharray:none;fill-opacity:1"
   d="m -154.75043,-87.341282 h 0.91672 v -0.991796 l -0.93818,-0.442328 z"
   id="path2740" /><path
   d="m -153.33278,-89.838419 c 0.0386,-0.01654 0.0662,-0.03307 0.0662,-0.07717 0,-0.03859 -0.0276,-0.07166 -0.0717,-0.07166 -0.0165,0 -0.0496,0.01654 -0.0606,0.02205 l -1.94579,0.92053 c -0.0606,0.02756 -0.0717,0.04961 -0.0717,0.07717 0,0.03307 0.0221,0.05512 0.0717,0.07717 l 1.94579,0.915018 c 0.0441,0.02756 0.0496,0.02756 0.0606,0.02756 0.0386,0 0.0717,-0.03307 0.0717,-0.07166 0,-0.03307 -0.0165,-0.05512 -0.0772,-0.08268 l -1.83555,-0.865409 z m -0.0606,2.568665 c 0.0606,0 0.12678,0 0.12678,-0.06615 0,-0.07166 -0.0772,-0.07166 -0.12678,-0.07166 h -1.89619 c -0.0551,0 -0.12678,0 -0.12678,0.07166 0,0.06615 0.0606,0.06615 0.12127,0.06615 z m 0,0"
   id="path316"
   style="fill:#ffffff;fill-opacity:1;stroke:#ffffff;stroke-width:1;stroke-dasharray:none;stroke-opacity:1" />
      
    </g></svg>
