<?xml version="1.0" encoding="UTF-8" standalone="no"?>
<!-- Created with Inkscape (http://www.inkscape.org/) -->

<svg
   version="1.1"
   id="svg2"
   width="801.70068"
   height="801.70068"
   viewBox="0 0 801.70068 801.70069"
   sodipodi:docname="pause-hint-wip.svg"
   inkscape:version="1.2.2 (b0a8486541, 2022-12-01)"
   xml:space="preserve"
   xmlns:inkscape="http://www.inkscape.org/namespaces/inkscape"
   xmlns:sodipodi="http://sodipodi.sourceforge.net/DTD/sodipodi-0.dtd"
   xmlns="http://www.w3.org/2000/svg"
   xmlns:svg="http://www.w3.org/2000/svg"><defs
     id="defs6" /><sodipodi:namedview
     id="namedview4"
     pagecolor="#ffffff"
     bordercolor="#666666"
     borderopacity="1.0"
     inkscape:showpageshadow="2"
     inkscape:pageopacity="0.0"
     inkscape:pagecheckerboard="0"
     inkscape:deskcolor="#d1d1d1"
     showgrid="false"
     inkscape:zoom="0.35370163"
     inkscape:cx="562.62111"
     inkscape:cy="872.20408"
     inkscape:window-width="1920"
     inkscape:window-height="1080"
     inkscape:window-x="0"
     inkscape:window-y="0"
     inkscape:window-maximized="1"
     inkscape:current-layer="g8" /><g
     inkscape:groupmode="layer"
     inkscape:label="Image"
     id="g8"
     transform="translate(1842.1278,-186.27936)"><circle
       id="path2417"
       cx="-157.91949"
       cy="587.1297"
       r="376.05521" /><path
       style="fill:#ffffff"
       d="m -278.41949,778.07884 c -1.1,-0.46443 -3.125,-2.05488 -4.5,-3.53434 l -2.5,-2.68992 v -184.9002 -184.9002 l 3.26923,-3.26923 3.26923,-3.26924 h 40.96154 40.96154 l 3.26923,3.26924 3.26923,3.26923 v 184.96153 184.96154 l -3.26831,3.26923 -3.26831,3.26923 -39.73169,0.20377 c -21.85243,0.11208 -40.63169,-0.17621 -41.73169,-0.64064 z m 160,0 c -1.1,-0.46443 -3.125,-2.05488 -4.5,-3.53434 l -2.5,-2.68992 v -184.9002 -184.9002 l 3.26923,-3.26923 3.26923,-3.26924 h 40.961541 40.96154 l 3.26923,3.26924 3.26923,3.26923 v 184.96153 184.96154 l -3.26831,3.26923 -3.26831,3.26923 -39.73169,0.20377 c -21.85243,0.11208 -40.631691,-0.17621 -41.731691,-0.64064 z"
       id="path293" /><circle
       id="path340"
       cx="-157.91949"
       cy="587.1297"
       r="395.85034"
       style="fill:none;stroke:#ffffff;stroke-width:10;stroke-linecap:round;stroke-miterlimit:2;stroke-dasharray:none;stroke-opacity:1;paint-order:fill markers stroke;stop-color:#000000" /><circle
       id="circle458"
       cx="-1441.2775"
       cy="587.1297"
       r="376.05521" /><path
       id="path302"
       style="fill:#ffffff;stroke-width:1.58705"
       d="m -1445.8632,317.80835 c -23.5984,0.3932 -47.1642,4.98112 -69.058,13.83334 -24.9534,10.03908 -47.4142,25.98628 -65.5038,45.85016 -15.7089,17.23809 -28.0526,37.55923 -35.8661,59.54933 -8.1601,22.81808 -11.5215,47.41035 -9.2287,71.56387 2.529,27.87822 11.5331,55.14128 26.0378,79.0781 7.87,12.86043 17.725,24.34167 27.7871,35.51167 5.1173,5.73798 10.2588,11.77441 12.9063,19.10742 2.2677,6.27799 3.0755,12.94782 3.9966,19.52299 1.5255,11.99071 2.0692,24.14972 4.3924,36.04802 0.9655,4.17363 2.4628,8.26213 4.761,11.89408 -4.3968,4.27832 -6.9977,10.64838 -5.9326,16.794 0.5886,4.02011 2.3347,7.82505 4.794,11.04194 -5.1033,6.23477 -6.2096,15.39359 -2.8404,22.69819 0.6715,1.62807 1.511,3.18649 2.4849,4.65337 -4.5604,5.60624 -6.4764,13.55526 -4.0782,20.48285 1.9555,5.79665 6.3671,10.47644 11.4663,13.7048 2.5159,1.8879 3.4645,5.02769 5.0841,7.59584 3.8247,6.67802 8.4628,12.89802 13.9075,18.34395 7.5611,7.9023 16.3711,14.57258 25.8957,19.93116 1.278,1.4312 2.4112,3.00355 3.9305,4.2009 4.487,4.01484 9.7569,7.02563 15.1063,9.72983 13.5178,6.45329 29.2461,8.59308 43.8727,5.0471 10.0285,-2.40317 19.2725,-7.61752 26.893,-14.52089 4.2261,-3.4431 8.9573,-6.1833 13.6883,-8.85949 11.2151,-6.7176 21.0219,-15.75 28.6883,-26.33711 3.1605,-4.26237 5.9776,-8.77003 9.0132,-13.11254 3.0432,-3.14174 7.1617,-5.27938 9.3942,-9.16795 5.1996,-7.96708 5.1151,-19.13835 -0.5221,-26.86267 3.6682,-4.48192 6.101,-10.32106 5.4146,-16.1868 -0.4658,-4.42204 -2.371,-8.67036 -5.3208,-11.99288 3.9962,-5.6786 5.6392,-13.18232 3.5615,-19.89833 -0.8614,-3.02565 -2.371,-5.86956 -4.4209,-8.25792 3.7342,-6.28126 5.8385,-13.45209 6.4757,-20.7127 1.2522,-9.90037 1.9675,-19.84711 3.697,-29.67392 1.0106,-6.39118 2.2545,-12.8125 4.5598,-18.84209 3.0219,-5.2271 7.3059,-9.54385 11.0801,-14.21127 10.5202,-12.19693 21.4367,-24.21726 29.8702,-38.01612 11.3885,-17.98779 19.8299,-38.01683 23.4448,-59.05584 1.8596,-12.55723 1.3041,-25.28729 1.3506,-37.93606 -0.1476,-14.28815 -0.8683,-28.75598 -4.8377,-42.56177 -3.3393,-12.01096 -8.655,-23.35413 -14.375,-34.39134 -7.6956,-14.50944 -17.4413,-27.93998 -28.9681,-39.64567 -20.0518,-20.59334 -44.7067,-36.87957 -71.9331,-46.24508 -18.8102,-6.50338 -38.7186,-9.77829 -58.6217,-9.69778 -0.6824,-0.006 -1.3648,0.003 -2.0473,0.003 z m 4.5215,58.88867 c 9.8494,0.10825 19.8417,0.0451 29.3985,2.76953 17.1825,4.80953 33.5575,12.98633 47.4294,24.2955 10.8107,8.76881 20.0631,19.43558 27.1883,31.42548 6.8249,11.45931 11.8061,24.07379 14.5734,37.12155 1.2657,5.8993 1.8782,11.84766 1.874,17.88519 0.046,6.79002 -0.3438,13.55216 -1.028,20.29767 -1.0047,8.61633 -2.9614,17.0495 -6.0196,25.17969 -3.4926,9.28052 -8.3221,18.14097 -13.9998,26.29382 -9.1821,13.3094 -20.9679,24.54548 -30.8654,37.32141 -6.8979,9.0671 -12.6325,19.18947 -15.6411,30.23448 -3.3053,11.13857 -2.7382,26.21519 -4.4279,37.66756 -35.2039,1.60425 -63.7091,2.17545 -96.872,-0.81894 -1.9214,-0.18362 -3.8375,-0.43931 -5.7289,-0.82724 -1.7161,-12.82793 -3.242,-25.83538 -7.6406,-38.07812 -4.7604,-13.88888 -12.7433,-26.49858 -22.2444,-37.61754 -8.1959,-9.92899 -17.0962,-19.3697 -23.8416,-30.37856 -7.803,-13.02229 -13.4237,-27.57826 -16.3457,-42.52929 -2.3227,-12.1849 -2.7159,-24.75239 -1.168,-37.06641 1.2813,-10.01789 3.8857,-20.00207 7.7845,-29.34553 6.0109,-14.51183 15.0002,-27.71261 26.1527,-38.76632 12.2529,-12.31864 26.9541,-22.51439 43.5126,-28.06442 13.1476,-4.45001 27.0024,-6.33563 40.8016,-6.80559 2.3688,-0.0861 4.7381,-0.14676 7.108,-0.19392 z"
       sodipodi:nodetypes="ccccccccccccccccccccccccccccccccccccccccccccccccccccccccccccccccccccccc" /><circle
       id="circle462"
       cx="-1441.2775"
       cy="587.1297"
       r="395.85034"
       style="fill:none;stroke:#ffffff;stroke-width:10;stroke-linecap:round;stroke-miterlimit:2;stroke-dasharray:none;stroke-opacity:1;paint-order:fill markers stroke;stop-color:#000000" /><path
       id="path589"
       style="fill:#ffffff;stroke-width:1.58705"
       d="m -1625.4143,1349.9523 c -12.2773,0.097 -24.7941,1.5352 -37.4351,4.3489 -46.9,10.4397 -87.0147,41.3603 -108.9234,83.9587 -18.9963,36.936 -22.2491,77.4134 -9.4602,117.674 8.2502,25.9733 18.6731,43.4755 39.2235,65.8624 19.8752,21.6515 22.5637,28.5978 26.1833,67.6261 1.9582,21.1159 2.1339,21.7742 7.7987,29.193 3.1874,4.1744 5.7903,8.3799 5.7903,9.3456 0,0.9656 -2.631,3.1828 -5.843,4.9286 -3.212,1.7457 -6.0974,3.9832 -6.4132,4.9719 -0.3157,0.9887 2.3962,4.6275 6.0288,8.0839 7.6332,7.263 7.5706,11.8004 -0.2014,14.5098 -7.3748,2.5708 -7.3961,5.7654 -0.094,13.6882 3.5902,3.8948 6.5278,7.3958 6.5278,7.7804 0,3.0604 -2.5159,5.7189 -5.4089,5.7189 -3.9139,0 -7.2874,2.7451 -7.2874,5.9267 0,1.1637 2.321,3.5073 5.1579,5.2074 3.2082,1.9227 6.6576,6.2245 9.1255,11.3821 5.813,12.1485 20.7425,26.6942 34.5183,33.6286 6.3283,3.1855 11.506,6.1649 11.506,6.621 0,0.4563 -1.4283,0.063 -3.1741,-0.871 -4.8877,-2.6159 -3.763,-0.6335 1.9499,3.4344 2.8186,2.007 8.7105,4.8887 13.0931,6.404 15.5359,5.3722 32.8065,2.236 43.5724,-7.9134 3.4369,-3.24 10.4013,-8.0183 15.4769,-10.6166 11.4418,-5.8575 23.953,-18.0771 30.6374,-29.9214 2.7928,-4.9484 7.1848,-10.2404 9.7578,-11.7603 3.5139,-2.0757 4.562,-3.7543 4.2125,-6.745 -0.3755,-3.2131 -1.4605,-4.0776 -5.6229,-4.4789 -4.5015,-0.4341 -5.1579,-1.0768 -5.1579,-5.0402 0,-3.2683 1.8658,-6.3167 6.6552,-10.8738 5.6022,-5.3307 6.3353,-6.7148 4.6433,-8.7535 -1.1055,-1.3319 -3.9217,-2.6405 -6.2583,-2.9106 -3.4799,-0.4022 -4.3344,-1.4005 -4.7332,-5.5112 -0.4014,-4.1373 0.5042,-5.8091 5.1579,-9.5223 7.5016,-5.9856 7.534,-10.7759 0.09,-13.2326 -3.055,-1.0085 -5.5546,-2.7683 -5.5546,-3.912 0,-1.1436 2.6191,-5.8868 5.8213,-10.5419 5.2718,-7.6639 5.9533,-9.8952 7.2223,-23.5888 2.1468,-23.1694 5.4809,-40.8228 9.1347,-48.3708 1.8218,-3.7632 9.781,-13.8925 17.6869,-22.507 22.8623,-24.9109 35.6079,-46.5858 43.0797,-73.2738 2.9173,-10.4204 3.4141,-16.3047 3.3787,-39.9923 -0.048,-31.7305 -2.1879,-42.4892 -13.0684,-65.7075 -8.5537,-18.2533 -17.7427,-31.3763 -31.8711,-45.5129 -32.3007,-32.3197 -73.0763,-49.0832 -116.9238,-48.7368 z m 3.3292,22.9441 c 18.1263,-0.018 24.5256,0.6264 34.7476,3.4872 52.9361,14.8148 91.0958,55.1561 101.9895,107.8232 1.8448,8.9189 2.3098,17.3502 1.7265,31.2574 -1.4523,34.6198 -14.0391,62.7301 -41.3811,92.4082 -22.7632,24.7084 -27.3853,34.1708 -31.2139,63.9159 -2.7202,21.1334 -3.3651,26.0414 -13.7649,24.6014 -31.6133,-4.377 -94.4791,9.9276 -119.5161,-2.0325 -3.2672,-1.5607 -3.7724,-5.418 -4.9688,-16.2672 -3.3419,-30.3037 -9.6579,-44.9169 -28.8737,-66.8111 -16.2737,-18.5421 -21.8879,-26.5847 -28.9821,-41.5234 -25.3304,-53.3386 -15.715,-113.7085 24.6984,-155.0812 28.6087,-29.2883 60.0551,-41.7366 105.5386,-41.7779 z m 25.2058,474.6727 c 0.256,0.022 0.3257,0.1555 0.1705,0.4061 -0.6209,1.0045 -4.3225,3.1962 -8.2267,4.8697 -3.9041,1.6736 -7.9331,2.9851 -8.9519,2.9169 -1.0187,-0.068 -0.7792,-0.5271 0.5301,-1.0169 1.3093,-0.4897 5.8427,-2.6232 10.0771,-4.7425 3.1757,-1.5893 5.6328,-2.5011 6.4009,-2.4333 z m -22.9595,8.5118 c 0.5514,0.022 1.0257,0.1703 1.2895,0.4341 0.5274,0.5273 -0.4101,0.9021 -2.083,0.8338 -1.8489,-0.076 -2.2239,-0.4544 -0.9578,-0.9609 0.5728,-0.2292 1.2,-0.3297 1.7513,-0.307 z"
       sodipodi:nodetypes="sssssssssssssssssssssccsssssssssssssssssscssssssssssssssssssscssssssscss" /></g></svg>
