<?xml version="1.0" encoding="UTF-8" standalone="no"?>
<!-- Created with Inkscape (http://www.inkscape.org/) -->

<svg
   width="18.991505mm"
   height="26.41124mm"
   viewBox="0 0 18.991505 26.41124"
   version="1.1"
   id="svg5"
   xml:space="preserve"
   inkscape:version="1.2.2 (b0a8486541, 2022-12-01)"
   sodipodi:docname="r_char.svg"
   xmlns:inkscape="http://www.inkscape.org/namespaces/inkscape"
   xmlns:sodipodi="http://sodipodi.sourceforge.net/DTD/sodipodi-0.dtd"
   xmlns="http://www.w3.org/2000/svg"
   xmlns:svg="http://www.w3.org/2000/svg"><sodipodi:namedview
     id="namedview7"
     pagecolor="#ffffff"
     bordercolor="#666666"
     borderopacity="1.0"
     inkscape:showpageshadow="2"
     inkscape:pageopacity="0.0"
     inkscape:pagecheckerboard="0"
     inkscape:deskcolor="#d1d1d1"
     inkscape:document-units="mm"
     showgrid="false"
     inkscape:zoom="1.5981902"
     inkscape:cx="-9.3856163"
     inkscape:cy="-32.849657"
     inkscape:window-width="1914"
     inkscape:window-height="2126"
     inkscape:window-x="3840"
     inkscape:window-y="0"
     inkscape:window-maximized="1"
     inkscape:current-layer="layer1" /><defs
     id="defs2" /><g
     inkscape:label="Layer 1"
     inkscape:groupmode="layer"
     id="layer1"
     transform="translate(-113.49765,-163.75131)"><path
       id="path415"
       style="fill:#000000;stroke-width:1"
       d="m 119.35344,163.75176 c -1.01614,0.0132 -1.85513,0.31525 -2.98535,0.96945 -1.12405,0.65061 -1.16811,0.71689 -0.98133,1.47485 0.29586,1.20057 -0.0712,2.73381 -1.02837,4.29534 -1.08539,1.77061 -1.09199,1.81133 -0.31264,1.98438 0.51665,0.11472 0.61694,0.27251 0.5023,0.7891 -0.0789,0.35516 0.19692,0.90653 0.19792,1.04799 5.1e-4,0.064 0.18738,0.3941 0.25838,1.22164 0.15162,2.03767 1.56903,1.17604 3.24166,1.12654 0.34794,0.0773 0.69286,0.75885 0.65836,1.3007 -0.0211,0.33107 -1.0484,1.46972 -1.5658,1.73529 -1.04708,0.53743 -0.48862,0.89007 1.2914,0.81597 0.35242,-0.0147 0.29491,0.44645 -0.40928,3.26595 -0.72852,2.91695 -0.80274,3.35575 -0.63562,6.38359 h 14.90408 c -2.08938,-5.22626 -0.39941,-8.22916 -3.24639,-12.95683 l -2.15801,-0.47904 -2.15749,-0.47904 0.40669,-1.06195 c 1.7316,-4.51728 1.91346,-6.12884 0.89555,-7.92872 -1.015,-1.79476 -2.33907,-2.69437 -4.75474,-3.23081 -0.83849,-0.18619 -1.51164,-0.28229 -2.12132,-0.2744 z"
       sodipodi:nodetypes="ssscsccccssssccccccsss" /></g></svg>
